{
copyright = "Copyright (c) 2015, Cadson Demak (info@cadsondemak.com)";
customParameters = (
{
name = description;
value = "Copyright (c) 2015, Cadson Demak (info@cadsondemak.com)";
},
{
name = license;

glyphs = (
{
glyphname = A;
lastChange = "2015-07-18 15:21:20 +0000";
layers = (
{
layerId = "14EB8CAA-E485-44FF-8841-EC36E7F264D4";
name = Bold;
paths = (
{
closed = 1;
nodes = (
"225 0 LINE SMOOTH",
"247 0 OFFCURVE",
"259 10 OFFCURVE",
"264 27 CURVE SMOOTH",
"287 101 LINE",
"464 101 LINE",
"488 27 LINE SMOOTH",
"493 10 OFFCURVE",
"505 0 OFFCURVE",
"527 0 CURVE SMOOTH",
"715 0 LINE SMOOTH",
"739 0 OFFCURVE",
"742 20 OFFCURVE",
"732 43 CURVE SMOOTH",
"484 642 LINE SMOOTH",
"472 670 OFFCURVE",
"460 680 OFFCURVE",
"431 680 CURVE SMOOTH",
"322 680 LINE SMOOTH",
"293 680 OFFCURVE",
"281 670 OFFCURVE",
"269 642 CURVE SMOOTH",
"20 43 LINE SMOOTH",
"10 20 OFFCURVE",
"13 0 OFFCURVE",
"37 0 CURVE SMOOTH"
);
},
{
closed = 1;
nodes = (
"376 383 LINE",
"415 259 LINE",
"337 259 LINE"
);
}
);
width = 752;
}
);
note = A;
unicode = 0041;
},
{
glyphname = Aacute;
lastChange = "2015-07-18 15:21:20 +0000";
layers = (
{
layerId = "14EB8CAA-E485-44FF-8841-EC36E7F264D4";
name = Bold;
paths = (
{
closed = 1;
nodes = (
"225 0 LINE SMOOTH",
"247 0 OFFCURVE",
"259 10 OFFCURVE",
"264 27 CURVE SMOOTH",
"287 101 LINE",
"464 101 LINE",
"488 27 LINE SMOOTH",
"493 10 OFFCURVE",
"505 0 OFFCURVE",
"527 0 CURVE SMOOTH",
"715 0 LINE SMOOTH",
"739 0 OFFCURVE",
"742 20 OFFCURVE",
"732 43 CURVE SMOOTH",
"484 642 LINE SMOOTH",
"472 670 OFFCURVE",
"460 680 OFFCURVE",
"431 680 CURVE SMOOTH",
"322 680 LINE SMOOTH",
"293 680 OFFCURVE",
"281 670 OFFCURVE",
"269 642 CURVE SMOOTH",
"20 43 LINE SMOOTH",
"10 20 OFFCURVE",
"13 0 OFFCURVE",
"37 0 CURVE SMOOTH"
);
},
{
closed = 1;
nodes = (
"376 383 LINE",
"415 259 LINE",
"337 259 LINE"
);
},
{
closed = 1;
nodes = (
"416 712 LINE SMOOTH",
"464 712 OFFCURVE",
"472 720 OFFCURVE",
"490 750 CURVE SMOOTH",
"554 858 LINE SMOOTH",
"575 894 OFFCURVE",
"554 912 OFFCURVE",
"517 912 CURVE SMOOTH",
"374 912 LINE SMOOTH",
"331 912 OFFCURVE",
"324 901 OFFCURVE",
"314 873 CURVE SMOOTH",
"272 757 LINE SMOOTH",
"263 731 OFFCURVE",
"272 712 OFFCURVE",
"309 712 CURVE SMOOTH"
);
}
);
width = 752;
}
);
note = Aacute;
unicode = 00C1;
},
{
glyphname = Abreve;
lastChange = "2015-07-18 15:21:20 +0000";
layers = (
{
layerId = "14EB8CAA-E485-44FF-8841-EC36E7F264D4";
name = Bold;
paths = (
{
closed = 1;
nodes = (
"225 0 LINE SMOOTH",
"247 0 OFFCURVE",
"259 10 OFFCURVE",
"264 27 CURVE SMOOTH",
"287 101 LINE",
"464 101 LINE",
"488 27 LINE SMOOTH",
"493 10 OFFCURVE",
"505 0 OFFCURVE",
"527 0 CURVE SMOOTH",
"715 0 LINE SMOOTH",
"739 0 OFFCURVE",
"742 20 OFFCURVE",
"732 43 CURVE SMOOTH",
"484 642 LINE SMOOTH",
"472 670 OFFCURVE",
"460 680 OFFCURVE",
"431 680 CURVE SMOOTH",
"322 680 LINE SMOOTH",
"293 680 OFFCURVE",
"281 670 OFFCURVE",
"269 642 CURVE SMOOTH",
"20 43 LINE SMOOTH",
"10 20 OFFCURVE",
"13 0 OFFCURVE",
"37 0 CURVE SMOOTH"
);
},
{
closed = 1;
nodes = (
"376 383 LINE",
"415 259 LINE",
"337 259 LINE"
);
},
{
closed = 1;
nodes = (
"510 739 OFFCURVE",
"577 816 OFFCURVE",
"577 916 CURVE SMOOTH",
"577 927 OFFCURVE",
"571 934 OFFCURVE",
"561 934 CURVE SMOOTH",
"432 934 LINE SMOOTH",
"418 934 OFFCURVE",
"415 927 OFFCURVE",
"415 915 CURVE SMOOTH",
"415 891 OFFCURVE",
"400 879 OFFCURVE",
"376 879 CURVE SMOOTH",
"352 879 OFFCURVE",
"337 891 OFFCURVE",
"337 915 CURVE SMOOTH",
"337 927 OFFCURVE",
"334 934 OFFCURVE",
"320 934 CURVE SMOOTH",
"191 934 LINE SMOOTH",
"181 934 OFFCURVE",
"175 927 OFFCURVE",
"175 916 CURVE SMOOTH",
"175 816 OFFCURVE",
"241 739 OFFCURVE",
"376 739 CURVE SMOOTH"
);
}
);
width = 752;
}
);
note = Abreve;
unicode = 0102;
},
{
glyphname = Abreveacute;
lastChange = "2015-07-18 15:21:20 +0000";
layers = (
{
layerId = "14EB8CAA-E485-44FF-8841-EC36E7F264D4";
name = Bold;
paths = (
{
closed = 1;
nodes = (
"225 0 LINE SMOOTH",
"247 0 OFFCURVE",
"259 10 OFFCURVE",
"264 27 CURVE SMOOTH",
"287 101 LINE",
"464 101 LINE",
"488 27 LINE SMOOTH",
"493 10 OFFCURVE",
"505 0 OFFCURVE",
"527 0 CURVE SMOOTH",
"715 0 LINE SMOOTH",
"739 0 OFFCURVE",
"742 20 OFFCURVE",
"732 43 CURVE SMOOTH",
"484 642 LINE SMOOTH",
"472 670 OFFCURVE",
"460 680 OFFCURVE",
"431 680 CURVE SMOOTH",
"322 680 LINE SMOOTH",
"293 680 OFFCURVE",
"281 670 OFFCURVE",
"269 642 CURVE SMOOTH",
"20 43 LINE SMOOTH",
"10 20 OFFCURVE",
"13 0 OFFCURVE",
"37 0 CURVE SMOOTH"
);
},
{
closed = 1;
nodes = (
"376 383 LINE",
"415 259 LINE",
"337 259 LINE"
);
},
{
closed = 1;
nodes = (
"510 715 OFFCURVE",
"577 792 OFFCURVE",
"577 882 CURVE SMOOTH",
"577 893 OFFCURVE",
"571 900 OFFCURVE",
"561 900 CURVE SMOOTH",
"462 900 LINE SMOOTH",
"448 900 OFFCURVE",
"445 893 OFFCURVE",
"445 881 CURVE SMOOTH",
"445 847 OFFCURVE",
"420 835 OFFCURVE",
"376 835 CURVE SMOOTH",
"332 835 OFFCURVE",
"307 847 OFFCURVE",
"307 881 CURVE SMOOTH",
"307 893 OFFCURVE",
"304 900 OFFCURVE",
"290 900 CURVE SMOOTH",
"191 900 LINE SMOOTH",
"181 900 OFFCURVE",
"175 893 OFFCURVE",
"175 882 CURVE SMOOTH",
"175 792 OFFCURVE",
"241 715 OFFCURVE",
"376 715 CURVE SMOOTH"
);
},
{
closed = 1;
nodes = (
"412 909 LINE SMOOTH",
"438 909 OFFCURVE",
"447 914 OFFCURVE",
"459 937 CURVE SMOOTH",
"501 1018 LINE SMOOTH",
"513 1042 OFFCURVE",
"507 1058 OFFCURVE",
"480 1058 CURVE SMOOTH",
"389 1058 LINE SMOOTH",
"353 1058 OFFCURVE",
"350 1052 OFFCURVE",
"342 1029 CURVE SMOOTH",
"310 937 LINE SMOOTH",
"304 921 OFFCURVE",
"311 909 OFFCURVE",
"334 909 CURVE SMOOTH"
);
}
);
width = 752;
}
);
note = Abreveacute;
unicode = 1EAE;
},
{
glyphname = Abrevedotbelow;
lastChange = "2015-07-18 15:21:20 +0000";
layers = (
{
layerId = "14EB8CAA-E485-44FF-8841-EC36E7F264D4";
name = Bold;
paths = (
{
closed = 1;
nodes = (
"225 0 LINE SMOOTH",
"247 0 OFFCURVE",
"259 10 OFFCURVE",
"264 27 CURVE SMOOTH",
"287 101 LINE",
"464 101 LINE",
"488 27 LINE SMOOTH",
"493 10 OFFCURVE",
"505 0 OFFCURVE",
"527 0 CURVE SMOOTH",
"715 0 LINE SMOOTH",
"739 0 OFFCURVE",
"742 20 OFFCURVE",
"732 43 CURVE SMOOTH",
"484 642 LINE SMOOTH",
"472 670 OFFCURVE",
"460 680 OFFCURVE",
"431 680 CURVE SMOOTH",
"322 680 LINE SMOOTH",
"293 680 OFFCURVE",
"281 670 OFFCURVE",
"269 642 CURVE SMOOTH",
"20 43 LINE SMOOTH",
"10 20 OFFCURVE",
"13 0 OFFCURVE",
"37 0 CURVE SMOOTH"
);
},
{
closed = 1;
nodes = (
"394 -217 LINE SMOOTH",
"435 -217 OFFCURVE",
"462 -184 OFFCURVE",
"462 -146 CURVE SMOOTH",
"462 -117 LINE SMOOTH",
"462 -77 OFFCURVE",
"434 -46 OFFCURVE",
"394 -46 CURVE SMOOTH",
"364 -46 LINE SMOOTH",
"324 -46 OFFCURVE",
"296 -77 OFFCURVE",
"296 -117 CURVE SMOOTH",
"296 -146 LINE SMOOTH",
"296 -184 OFFCURVE",
"324 -217 OFFCURVE",
"364 -217 CURVE SMOOTH"
);
},
{
closed = 1;
nodes = (
"376 383 LINE",
"415 259 LINE",
"337 259 LINE"
);
},
{
closed = 1;
nodes = (
"510 727 OFFCURVE",
"577 804 OFFCURVE",
"577 904 CURVE SMOOTH",
"577 915 OFFCURVE",
"571 922 OFFCURVE",
"561 922 CURVE SMOOTH",
"432 922 LINE SMOOTH",
"418 922 OFFCURVE",
"415 915 OFFCURVE",
"415 903 CURVE SMOOTH",
"415 879 OFFCURVE",
"400 867 OFFCURVE",
"376 867 CURVE SMOOTH",
"352 867 OFFCURVE",
"337 879 OFFCURVE",
"337 903 CURVE SMOOTH",
"337 915 OFFCURVE",
"334 922 OFFCURVE",
"320 922 CURVE SMOOTH",
"191 922 LINE SMOOTH",
"181 922 OFFCURVE",
"175 915 OFFCURVE",
"175 904 CURVE SMOOTH",
"175 804 OFFCURVE",
"241 727 OFFCURVE",
"376 727 CURVE SMOOTH"
);
}
);
width = 752;
}
);
note = Abrevedotbelow;
unicode = 1EB6;
},
{
glyphname = Abrevegrave;
lastChange = "2015-07-18 15:21:20 +0000";
layers = (
{
layerId = "14EB8CAA-E485-44FF-8841-EC36E7F264D4";
name = Bold;
paths = (
{
closed = 1;
nodes = (
"225 0 LINE SMOOTH",
"247 0 OFFCURVE",
"259 10 OFFCURVE",
"264 27 CURVE SMOOTH",
"287 101 LINE",
"464 101 LINE",
"488 27 LINE SMOOTH",
"493 10 OFFCURVE",
"505 0 OFFCURVE",
"527 0 CURVE SMOOTH",
"715 0 LINE SMOOTH",
"739 0 OFFCURVE",
"742 20 OFFCURVE",
"732 43 CURVE SMOOTH",
"484 642 LINE SMOOTH",
"472 670 OFFCURVE",
"460 680 OFFCURVE",
"431 680 CURVE SMOOTH",
"322 680 LINE SMOOTH",
"293 680 OFFCURVE",
"281 670 OFFCURVE",
"269 642 CURVE SMOOTH",
"20 43 LINE SMOOTH",
"10 20 OFFCURVE",
"13 0 OFFCURVE",
"37 0 CURVE SMOOTH"
);
},
{
closed = 1;
nodes = (
"376 383 LINE",
"415 259 LINE",
"337 259 LINE"
);
},
{
closed = 1;
nodes = (
"511 715 OFFCURVE",
"577 792 OFFCURVE",
"577 882 CURVE SMOOTH",
"577 893 OFFCURVE",
"571 900 OFFCURVE",
"561 900 CURVE SMOOTH",
"462 900 LINE SMOOTH",
"448 900 OFFCURVE",
"445 893 OFFCURVE",
"445 881 CURVE SMOOTH",
"445 847 OFFCURVE",
"420 835 OFFCURVE",
"376 835 CURVE SMOOTH",
"332 835 OFFCURVE",
"307 847 OFFCURVE",
"307 881 CURVE SMOOTH",
"307 893 OFFCURVE",
"304 900 OFFCURVE",
"290 900 CURVE SMOOTH",
"191 900 LINE SMOOTH",
"181 900 OFFCURVE",
"175 893 OFFCURVE",
"175 882 CURVE SMOOTH",
"175 792 OFFCURVE",
"242 715 OFFCURVE",
"376 715 CURVE SMOOTH"
);
},
{
closed = 1;
nodes = (
"418 909 LINE SMOOTH",
"441 909 OFFCURVE",
"448 921 OFFCURVE",
"442 937 CURVE SMOOTH",
"410 1029 LINE SMOOTH",
"402 1052 OFFCURVE",
"399 1058 OFFCURVE",
"363 1058 CURVE SMOOTH",
"272 1058 LINE SMOOTH",
"245 1058 OFFCURVE",
"239 1042 OFFCURVE",
"251 1018 CURVE SMOOTH",
"293 937 LINE SMOOTH",
"305 914 OFFCURVE",
"314 909 OFFCURVE",
"340 909 CURVE SMOOTH"
);
}
);
width = 752;
}
);
note = Abrevegrave;
unicode = 1EB0;
},
{
glyphname = Abrevehookabove;
lastChange = "2015-07-18 15:21:20 +0000";
layers = (
{
layerId = "14EB8CAA-E485-44FF-8841-EC36E7F264D4";
name = Bold;
paths = (
{
closed = 1;
nodes = (
"225 0 LINE SMOOTH",
"247 0 OFFCURVE",
"259 10 OFFCURVE",
"264 27 CURVE SMOOTH",
"287 101 LINE",
"464 101 LINE",
"488 27 LINE SMOOTH",
"493 10 OFFCURVE",
"505 0 OFFCURVE",
"527 0 CURVE SMOOTH",
"715 0 LINE SMOOTH",
"739 0 OFFCURVE",
"742 20 OFFCURVE",
"732 43 CURVE SMOOTH",
"484 642 LINE SMOOTH",
"472 670 OFFCURVE",
"460 680 OFFCURVE",
"431 680 CURVE SMOOTH",
"322 680 LINE SMOOTH",
"293 680 OFFCURVE",
"281 670 OFFCURVE",
"269 642 CURVE SMOOTH",
"20 43 LINE SMOOTH",
"10 20 OFFCURVE",
"13 0 OFFCURVE",
"37 0 CURVE SMOOTH"
);
},
{
closed = 1;
nodes = (
"376 383 LINE",
"415 259 LINE",
"337 259 LINE"
);
},
{
closed = 1;
nodes = (
"511 714 OFFCURVE",
"577 791 OFFCURVE",
"577 881 CURVE SMOOTH",
"577 892 OFFCURVE",
"571 899 OFFCURVE",
"561 899 CURVE SMOOTH",
"462 899 LINE SMOOTH",
"448 899 OFFCURVE",
"445 892 OFFCURVE",
"445 880 CURVE SMOOTH",
"445 846 OFFCURVE",
"420 834 OFFCURVE",
"376 834 CURVE SMOOTH",
"332 834 OFFCURVE",
"307 846 OFFCURVE",
"307 880 CURVE SMOOTH",
"307 892 OFFCURVE",
"304 899 OFFCURVE",
"290 899 CURVE SMOOTH",
"191 899 LINE SMOOTH",
"181 899 OFFCURVE",
"175 892 OFFCURVE",
"175 881 CURVE SMOOTH",
"175 791 OFFCURVE",
"242 714 OFFCURVE",
"376 714 CURVE SMOOTH"
);
},
{
closed = 1;
nodes = (
"414 887 LINE SMOOTH",
"425 887 OFFCURVE",
"430 893 OFFCURVE",
"430 903 CURVE SMOOTH",
"430 918 LINE",
"464 918 OFFCURVE",
"492 942 OFFCURVE",
"492 983 CURVE SMOOTH",
"492 1033 OFFCURVE",
"462 1059 OFFCURVE",
"389 1059 CURVE SMOOTH",
"352 1059 OFFCURVE",
"314 1051 OFFCURVE",
"288 1037 CURVE SMOOTH",
"282 1034 OFFCURVE",
"283 1030 OFFCURVE",
"285 1026 CURVE SMOOTH",
"307 978 LINE SMOOTH",
"309 974 OFFCURVE",
"312 974 OFFCURVE",
"315 976 CURVE",
"327 983 OFFCURVE",
"343 988 OFFCURVE",
"360 988 CURVE SMOOTH",
"373 988 OFFCURVE",
"378 984 OFFCURVE",
"378 976 CURVE SMOOTH",
"378 965 OFFCURVE",
"368 962 OFFCURVE",
"349 962 CURVE SMOOTH",
"329 962 OFFCURVE",
"324 956 OFFCURVE",
"324 940 CURVE SMOOTH",
"324 903 LINE SMOOTH",
"324 893 OFFCURVE",
"329 887 OFFCURVE",
"340 887 CURVE SMOOTH"
);
}
);
width = 752;
}
);
note = Abrevehookabove;
unicode = 1EB2;
},
{
glyphname = Abrevetilde;
lastChange = "2015-07-18 15:21:20 +0000";
layers = (
{
layerId = "14EB8CAA-E485-44FF-8841-EC36E7F264D4";
name = Bold;
paths = (
{
closed = 1;
nodes = (
"225 0 LINE SMOOTH",
"247 0 OFFCURVE",
"259 10 OFFCURVE",
"264 27 CURVE SMOOTH",
"287 101 LINE",
"464 101 LINE",
"488 27 LINE SMOOTH",
"493 10 OFFCURVE",
"505 0 OFFCURVE",
"527 0 CURVE SMOOTH",
"715 0 LINE SMOOTH",
"739 0 OFFCURVE",
"742 20 OFFCURVE",
"732 43 CURVE SMOOTH",
"484 642 LINE SMOOTH",
"472 670 OFFCURVE",
"460 680 OFFCURVE",
"431 680 CURVE SMOOTH",
"322 680 LINE SMOOTH",
"293 680 OFFCURVE",
"281 670 OFFCURVE",
"269 642 CURVE SMOOTH",
"20 43 LINE SMOOTH",
"10 20 OFFCURVE",
"13 0 OFFCURVE",
"37 0 CURVE SMOOTH"
);
},
{
closed = 1;
nodes = (
"376 383 LINE",
"415 259 LINE",
"337 259 LINE"
);
},
{
closed = 1;
nodes = (
"515 714 OFFCURVE",
"581 791 OFFCURVE",
"581 881 CURVE SMOOTH",
"581 892 OFFCURVE",
"575 899 OFFCURVE",
"565 899 CURVE SMOOTH",
"466 899 LINE SMOOTH",
"452 899 OFFCURVE",
"449 892 OFFCURVE",
"449 880 CURVE SMOOTH",
"449 846 OFFCURVE",
"424 834 OFFCURVE",
"380 834 CURVE SMOOTH",
"336 834 OFFCURVE",
"311 846 OFFCURVE",
"311 880 CURVE SMOOTH",
"311 892 OFFCURVE",
"308 899 OFFCURVE",
"294 899 CURVE SMOOTH",
"195 899 LINE SMOOTH",
"185 899 OFFCURVE",
"179 892 OFFCURVE",
"179 881 CURVE SMOOTH",
"179 791 OFFCURVE",
"246 714 OFFCURVE",
"380 714 CURVE SMOOTH"
);
},
{
closed = 1;
nodes = (
"530 914 OFFCURVE",
"553 927 OFFCURVE",
"585 969 CURVE SMOOTH",
"612 1003 OFFCURVE",
"601 1015 OFFCURVE",
"563 1043 CURVE SMOOTH",
"523 1073 OFFCURVE",
"511 1074 OFFCURVE",
"492 1052 CURVE SMOOTH",
"475 1032 OFFCURVE",
"463 1025 OFFCURVE",
"438 1025 CURVE SMOOTH",
"407 1025 OFFCURVE",
"373 1060 OFFCURVE",
"310 1060 CURVE SMOOTH",
"258 1060 OFFCURVE",
"219 1048 OFFCURVE",
"181 1000 CURVE SMOOTH",
"160 974 OFFCURVE",
"162 965 OFFCURVE",
"203 934 CURVE SMOOTH",
"246 902 OFFCURVE",
"252 906 OFFCURVE",
"280 932 CURVE SMOOTH",
"294 945 OFFCURVE",
"312 948 OFFCURVE",
"328 948 CURVE SMOOTH",
"359 948 OFFCURVE",
"415 914 OFFCURVE",
"471 914 CURVE SMOOTH"
);
}
);
width = 752;
}
);
note = Abrevetilde;
unicode = 1EB4;
},
{
glyphname = Acaron;
lastChange = "2015-07-18 15:21:20 +0000";
layers = (
{
layerId = "14EB8CAA-E485-44FF-8841-EC36E7F264D4";
name = Bold;
paths = (
{
closed = 1;
nodes = (
"225 0 LINE SMOOTH",
"247 0 OFFCURVE",
"259 10 OFFCURVE",
"264 27 CURVE SMOOTH",
"287 101 LINE",
"464 101 LINE",
"488 27 LINE SMOOTH",
"493 10 OFFCURVE",
"505 0 OFFCURVE",
"527 0 CURVE SMOOTH",
"715 0 LINE SMOOTH",
"739 0 OFFCURVE",
"742 20 OFFCURVE",
"732 43 CURVE SMOOTH",
"484 642 LINE SMOOTH",
"472 670 OFFCURVE",
"460 680 OFFCURVE",
"431 680 CURVE SMOOTH",
"322 680 LINE SMOOTH",
"293 680 OFFCURVE",
"281 670 OFFCURVE",
"269 642 CURVE SMOOTH",
"20 43 LINE SMOOTH",
"10 20 OFFCURVE",
"13 0 OFFCURVE",
"37 0 CURVE SMOOTH"
);
},
{
closed = 1;
nodes = (
"376 383 LINE",
"415 259 LINE",
"337 259 LINE"
);
},
{
closed = 1;
nodes = (
"440 736 LINE SMOOTH",
"480 736 OFFCURVE",
"484 743 OFFCURVE",
"501 765 CURVE SMOOTH",
"593 882 LINE SMOOTH",
"619 915 OFFCURVE",
"609 936 OFFCURVE",
"572 936 CURVE SMOOTH",
"483 936 LINE SMOOTH",
"445 936 OFFCURVE",
"434 929 OFFCURVE",
"420 908 CURVE SMOOTH",
"378 843 LINE",
"336 908 LINE SMOOTH",
"322 929 OFFCURVE",
"311 936 OFFCURVE",
"273 936 CURVE SMOOTH",
"184 936 LINE SMOOTH",
"147 936 OFFCURVE",
"137 915 OFFCURVE",
"163 882 CURVE SMOOTH",
"255 765 LINE SMOOTH",
"272 743 OFFCURVE",
"276 736 OFFCURVE",
"316 736 CURVE SMOOTH"
);
}
);
width = 752;
}
);
note = Acaron;
unicode = 01CD;
},
{
glyphname = Acircumflex;
lastChange = "2015-07-18 15:21:20 +0000";
layers = (
{
layerId = "14EB8CAA-E485-44FF-8841-EC36E7F264D4";
name = Bold;
paths = (
{
closed = 1;
nodes = (
"225 0 LINE SMOOTH",
"247 0 OFFCURVE",
"259 10 OFFCURVE",
"264 27 CURVE SMOOTH",
"287 101 LINE",
"464 101 LINE",
"488 27 LINE SMOOTH",
"493 10 OFFCURVE",
"505 0 OFFCURVE",
"527 0 CURVE SMOOTH",
"715 0 LINE SMOOTH",
"739 0 OFFCURVE",
"742 20 OFFCURVE",
"732 43 CURVE SMOOTH",
"484 642 LINE SMOOTH",
"472 670 OFFCURVE",
"460 680 OFFCURVE",
"431 680 CURVE SMOOTH",
"322 680 LINE SMOOTH",
"293 680 OFFCURVE",
"281 670 OFFCURVE",
"269 642 CURVE SMOOTH",
"20 43 LINE SMOOTH",
"10 20 OFFCURVE",
"13 0 OFFCURVE",
"37 0 CURVE SMOOTH"
);
},
{
closed = 1;
nodes = (
"376 383 LINE",
"415 259 LINE",
"337 259 LINE"
);
},
{
closed = 1;
nodes = (
"271 715 LINE SMOOTH",
"309 715 OFFCURVE",
"320 722 OFFCURVE",
"334 743 CURVE SMOOTH",
"376 808 LINE",
"418 743 LINE SMOOTH",
"432 722 OFFCURVE",
"443 715 OFFCURVE",
"481 715 CURVE SMOOTH",
"570 715 LINE SMOOTH",
"607 715 OFFCURVE",
"617 736 OFFCURVE",
"591 769 CURVE SMOOTH",
"499 886 LINE SMOOTH",
"482 908 OFFCURVE",
"478 915 OFFCURVE",
"438 915 CURVE SMOOTH",
"314 915 LINE SMOOTH",
"274 915 OFFCURVE",
"270 908 OFFCURVE",
"253 886 CURVE SMOOTH",
"161 769 LINE SMOOTH",
"135 736 OFFCURVE",
"145 715 OFFCURVE",
"182 715 CURVE SMOOTH"
);
}
);
width = 752;
}
);
note = Acircumflex;
unicode = 00C2;
},
{
glyphname = Acircumflexacute;
lastChange = "2015-07-18 15:21:20 +0000";
layers = (
{
layerId = "14EB8CAA-E485-44FF-8841-EC36E7F264D4";
name = Bold;
paths = (
{
closed = 1;
nodes = (
"225 0 LINE SMOOTH",
"247 0 OFFCURVE",
"259 10 OFFCURVE",
"264 27 CURVE SMOOTH",
"287 101 LINE",
"464 101 LINE",
"488 27 LINE SMOOTH",
"493 10 OFFCURVE",
"505 0 OFFCURVE",
"527 0 CURVE SMOOTH",
"715 0 LINE SMOOTH",
"739 0 OFFCURVE",
"742 20 OFFCURVE",
"732 43 CURVE SMOOTH",
"484 642 LINE SMOOTH",
"472 670 OFFCURVE",
"460 680 OFFCURVE",
"431 680 CURVE SMOOTH",
"322 680 LINE SMOOTH",
"293 680 OFFCURVE",
"281 670 OFFCURVE",
"269 642 CURVE SMOOTH",
"20 43 LINE SMOOTH",
"10 20 OFFCURVE",
"13 0 OFFCURVE",
"37 0 CURVE SMOOTH"
);
},
{
closed = 1;
nodes = (
"376 383 LINE",
"415 259 LINE",
"337 259 LINE"
);
},
{
closed = 1;
nodes = (
"278 718 LINE SMOOTH",
"316 718 OFFCURVE",
"328 725 OFFCURVE",
"341 746 CURVE SMOOTH",
"378 806 LINE",
"415 746 LINE SMOOTH",
"428 725 OFFCURVE",
"440 718 OFFCURVE",
"478 718 CURVE SMOOTH",
"562 718 LINE SMOOTH",
"599 718 OFFCURVE",
"609 739 OFFCURVE",
"583 772 CURVE SMOOTH",
"491 889 LINE SMOOTH",
"474 911 OFFCURVE",
"470 918 OFFCURVE",
"430 918 CURVE SMOOTH",
"326 918 LINE SMOOTH",
"286 918 OFFCURVE",
"282 911 OFFCURVE",
"265 889 CURVE SMOOTH",
"173 772 LINE SMOOTH",
"147 739 OFFCURVE",
"157 718 OFFCURVE",
"194 718 CURVE SMOOTH"
);
},
{
closed = 1;
nodes = (
"587 886 LINE SMOOTH",
"629 886 OFFCURVE",
"636 890 OFFCURVE",
"656 924 CURVE SMOOTH",
"695 990 LINE SMOOTH",
"714 1022 OFFCURVE",
"706 1044 OFFCURVE",
"671 1044 CURVE SMOOTH",
"586 1044 LINE SMOOTH",
"550 1044 OFFCURVE",
"545 1033 OFFCURVE",
"535 1005 CURVE SMOOTH",
"505 924 LINE SMOOTH",
"497 903 OFFCURVE",
"508 886 OFFCURVE",
"536 886 CURVE SMOOTH"
);
}
);
width = 752;
}
);
note = Acircumflexacute;
unicode = 1EA4;
},
{
glyphname = Acircumflexdotbelow;
lastChange = "2015-07-18 15:21:20 +0000";
layers = (
{
layerId = "14EB8CAA-E485-44FF-8841-EC36E7F264D4";
name = Bold;
paths = (
{
closed = 1;
nodes = (
"225 0 LINE SMOOTH",
"247 0 OFFCURVE",
"259 10 OFFCURVE",
"264 27 CURVE SMOOTH",
"287 101 LINE",
"464 101 LINE",
"488 27 LINE SMOOTH",
"493 10 OFFCURVE",
"505 0 OFFCURVE",
"527 0 CURVE SMOOTH",
"715 0 LINE SMOOTH",
"739 0 OFFCURVE",
"742 20 OFFCURVE",
"732 43 CURVE SMOOTH",
"484 642 LINE SMOOTH",
"472 670 OFFCURVE",
"460 680 OFFCURVE",
"431 680 CURVE SMOOTH",
"322 680 LINE SMOOTH",
"293 680 OFFCURVE",
"281 670 OFFCURVE",
"269 642 CURVE SMOOTH",
"20 43 LINE SMOOTH",
"10 20 OFFCURVE",
"13 0 OFFCURVE",
"37 0 CURVE SMOOTH"
);
},
{
closed = 1;
nodes = (
"391 -217 LINE SMOOTH",
"432 -217 OFFCURVE",
"459 -184 OFFCURVE",
"459 -146 CURVE SMOOTH",
"459 -117 LINE SMOOTH",
"459 -77 OFFCURVE",
"431 -46 OFFCURVE",
"391 -46 CURVE SMOOTH",
"361 -46 LINE SMOOTH",
"321 -46 OFFCURVE",
"293 -77 OFFCURVE",
"293 -117 CURVE SMOOTH",
"293 -146 LINE SMOOTH",
"293 -184 OFFCURVE",
"321 -217 OFFCURVE",
"361 -217 CURVE SMOOTH"
);
},
{
closed = 1;
nodes = (
"376 383 LINE",
"415 259 LINE",
"337 259 LINE"
);
},
{
closed = 1;
nodes = (
"271 727 LINE SMOOTH",
"309 727 OFFCURVE",
"320 734 OFFCURVE",
"334 755 CURVE SMOOTH",
"376 820 LINE",
"418 755 LINE SMOOTH",
"432 734 OFFCURVE",
"443 727 OFFCURVE",
"481 727 CURVE SMOOTH",
"570 727 LINE SMOOTH",
"607 727 OFFCURVE",
"617 748 OFFCURVE",
"591 781 CURVE SMOOTH",
"499 898 LINE SMOOTH",
"482 920 OFFCURVE",
"478 927 OFFCURVE",
"438 927 CURVE SMOOTH",
"314 927 LINE SMOOTH",
"274 927 OFFCURVE",
"270 920 OFFCURVE",
"253 898 CURVE SMOOTH",
"161 781 LINE SMOOTH",
"135 748 OFFCURVE",
"145 727 OFFCURVE",
"182 727 CURVE SMOOTH"
);
}
);
width = 752;
}
);
note = Acircumflexdotbelow;
unicode = 1EAC;
},
{
glyphname = Acircumflexgrave;
lastChange = "2015-07-18 15:21:20 +0000";
layers = (
{
layerId = "14EB8CAA-E485-44FF-8841-EC36E7F264D4";
name = Bold;
paths = (
{
closed = 1;
nodes = (
"225 0 LINE SMOOTH",
"247 0 OFFCURVE",
"259 10 OFFCURVE",
"264 27 CURVE SMOOTH",
"287 101 LINE",
"464 101 LINE",
"488 27 LINE SMOOTH",
"493 10 OFFCURVE",
"505 0 OFFCURVE",
"527 0 CURVE SMOOTH",
"715 0 LINE SMOOTH",
"739 0 OFFCURVE",
"742 20 OFFCURVE",
"732 43 CURVE SMOOTH",
"484 642 LINE SMOOTH",
"472 670 OFFCURVE",
"460 680 OFFCURVE",
"431 680 CURVE SMOOTH",
"322 680 LINE SMOOTH",
"293 680 OFFCURVE",
"281 670 OFFCURVE",
"269 642 CURVE SMOOTH",
"20 43 LINE SMOOTH",
"10 20 OFFCURVE",
"13 0 OFFCURVE",
"37 0 CURVE SMOOTH"
);
},
{
closed = 1;
nodes = (
"376 383 LINE",
"415 259 LINE",
"337 259 LINE"
);
},
{
closed = 1;
nodes = (
"219 886 LINE SMOOTH",
"247 886 OFFCURVE",
"258 903 OFFCURVE",
"250 924 CURVE SMOOTH",
"220 1005 LINE SMOOTH",
"210 1033 OFFCURVE",
"205 1044 OFFCURVE",
"169 1044 CURVE SMOOTH",
"84 1044 LINE SMOOTH",
"49 1044 OFFCURVE",
"41 1022 OFFCURVE",
"60 990 CURVE SMOOTH",
"99 924 LINE SMOOTH",
"119 890 OFFCURVE",
"126 886 OFFCURVE",
"168 886 CURVE SMOOTH"
);
},
{
closed = 1;
nodes = (
"277 718 LINE SMOOTH",
"315 718 OFFCURVE",
"327 725 OFFCURVE",
"340 746 CURVE SMOOTH",
"377 806 LINE",
"414 746 LINE SMOOTH",
"427 725 OFFCURVE",
"439 718 OFFCURVE",
"477 718 CURVE SMOOTH",
"561 718 LINE SMOOTH",
"598 718 OFFCURVE",
"608 739 OFFCURVE",
"582 772 CURVE SMOOTH",
"490 889 LINE SMOOTH",
"473 911 OFFCURVE",
"469 918 OFFCURVE",
"429 918 CURVE SMOOTH",
"325 918 LINE SMOOTH",
"285 918 OFFCURVE",
"281 911 OFFCURVE",
"264 889 CURVE SMOOTH",
"172 772 LINE SMOOTH",
"146 739 OFFCURVE",
"156 718 OFFCURVE",
"193 718 CURVE SMOOTH"
);
}
);
width = 752;
}
);
note = Acircumflexgrave;
unicode = 1EA6;
},
{
glyphname = Acircumflexhookabove;
lastChange = "2015-07-18 15:21:20 +0000";
layers = (
{
layerId = "14EB8CAA-E485-44FF-8841-EC36E7F264D4";
name = Bold;
paths = (
{
closed = 1;
nodes = (
"225 0 LINE SMOOTH",
"247 0 OFFCURVE",
"259 10 OFFCURVE",
"264 27 CURVE SMOOTH",
"287 101 LINE",
"464 101 LINE",
"488 27 LINE SMOOTH",
"493 10 OFFCURVE",
"505 0 OFFCURVE",
"527 0 CURVE SMOOTH",
"715 0 LINE SMOOTH",
"739 0 OFFCURVE",
"742 20 OFFCURVE",
"732 43 CURVE SMOOTH",
"484 642 LINE SMOOTH",
"472 670 OFFCURVE",
"460 680 OFFCURVE",
"431 680 CURVE SMOOTH",
"322 680 LINE SMOOTH",
"293 680 OFFCURVE",
"281 670 OFFCURVE",
"269 642 CURVE SMOOTH",
"20 43 LINE SMOOTH",
"10 20 OFFCURVE",
"13 0 OFFCURVE",
"37 0 CURVE SMOOTH"
);
},
{
closed = 1;
nodes = (
"376 383 LINE",
"415 259 LINE",
"337 259 LINE"
);
},
{
closed = 1;
nodes = (
"276 718 LINE SMOOTH",
"314 718 OFFCURVE",
"326 725 OFFCURVE",
"339 746 CURVE SMOOTH",
"376 806 LINE",
"413 746 LINE SMOOTH",
"426 725 OFFCURVE",
"438 718 OFFCURVE",
"476 718 CURVE SMOOTH",
"560 718 LINE SMOOTH",
"597 718 OFFCURVE",
"607 739 OFFCURVE",
"581 772 CURVE SMOOTH",
"489 889 LINE SMOOTH",
"472 911 OFFCURVE",
"468 918 OFFCURVE",
"428 918 CURVE SMOOTH",
"324 918 LINE SMOOTH",
"284 918 OFFCURVE",
"280 911 OFFCURVE",
"263 889 CURVE SMOOTH",
"171 772 LINE SMOOTH",
"145 739 OFFCURVE",
"155 718 OFFCURVE",
"192 718 CURVE SMOOTH"
);
},
{
closed = 1;
nodes = (
"598 873 LINE SMOOTH",
"609 873 OFFCURVE",
"614 879 OFFCURVE",
"614 889 CURVE SMOOTH",
"614 904 LINE",
"648 904 OFFCURVE",
"676 928 OFFCURVE",
"676 969 CURVE SMOOTH",
"676 1019 OFFCURVE",
"646 1045 OFFCURVE",
"573 1045 CURVE SMOOTH",
"536 1045 OFFCURVE",
"498 1037 OFFCURVE",
"472 1023 CURVE SMOOTH",
"466 1020 OFFCURVE",
"467 1016 OFFCURVE",
"469 1012 CURVE SMOOTH",
"491 964 LINE SMOOTH",
"493 960 OFFCURVE",
"496 960 OFFCURVE",
"499 962 CURVE",
"511 969 OFFCURVE",
"527 974 OFFCURVE",
"544 974 CURVE SMOOTH",
"557 974 OFFCURVE",
"562 970 OFFCURVE",
"562 962 CURVE SMOOTH",
"562 951 OFFCURVE",
"552 948 OFFCURVE",
"533 948 CURVE SMOOTH",
"513 948 OFFCURVE",
"508 942 OFFCURVE",
"508 926 CURVE SMOOTH",
"508 889 LINE SMOOTH",
"508 879 OFFCURVE",
"513 873 OFFCURVE",
"524 873 CURVE SMOOTH"
);
}
);
width = 752;
}
);
note = Acircumflexhookabove;
unicode = 1EA8;
},
{
glyphname = Acircumflextilde;
lastChange = "2015-07-18 15:21:20 +0000";
layers = (
{
layerId = "14EB8CAA-E485-44FF-8841-EC36E7F264D4";
name = Bold;
paths = (
{
closed = 1;
nodes = (
"225 0 LINE SMOOTH",
"247 0 OFFCURVE",
"259 10 OFFCURVE",
"264 27 CURVE SMOOTH",
"287 101 LINE",
"464 101 LINE",
"488 27 LINE SMOOTH",
"493 10 OFFCURVE",
"505 0 OFFCURVE",
"527 0 CURVE SMOOTH",
"715 0 LINE SMOOTH",
"739 0 OFFCURVE",
"742 20 OFFCURVE",
"732 43 CURVE SMOOTH",
"484 642 LINE SMOOTH",
"472 670 OFFCURVE",
"460 680 OFFCURVE",
"431 680 CURVE SMOOTH",
"322 680 LINE SMOOTH",
"293 680 OFFCURVE",
"281 670 OFFCURVE",
"269 642 CURVE SMOOTH",
"20 43 LINE SMOOTH",
"10 20 OFFCURVE",
"13 0 OFFCURVE",
"37 0 CURVE SMOOTH"
);
},
{
closed = 1;
nodes = (
"376 383 LINE",
"415 259 LINE",
"337 259 LINE"
);
},
{
closed = 1;
nodes = (
"277 718 LINE SMOOTH",
"315 718 OFFCURVE",
"325 726 OFFCURVE",
"340 746 CURVE SMOOTH",
"377 796 LINE",
"414 746 LINE SMOOTH",
"429 726 OFFCURVE",
"439 718 OFFCURVE",
"477 718 CURVE SMOOTH",
"561 718 LINE SMOOTH",
"598 718 OFFCURVE",
"609 740 OFFCURVE",
"582 772 CURVE SMOOTH",
"490 879 LINE SMOOTH",
"472 900 OFFCURVE",
"469 908 OFFCURVE",
"429 908 CURVE SMOOTH",
"325 908 LINE SMOOTH",
"285 908 OFFCURVE",
"282 900 OFFCURVE",
"264 879 CURVE SMOOTH",
"172 772 LINE SMOOTH",
"145 740 OFFCURVE",
"156 718 OFFCURVE",
"193 718 CURVE SMOOTH"
);
},
{
closed = 1;
nodes = (
"528 918 OFFCURVE",
"551 931 OFFCURVE",
"583 973 CURVE SMOOTH",
"610 1007 OFFCURVE",
"599 1019 OFFCURVE",
"561 1047 CURVE SMOOTH",
"521 1077 OFFCURVE",
"509 1078 OFFCURVE",
"490 1056 CURVE SMOOTH",
"473 1036 OFFCURVE",
"461 1029 OFFCURVE",
"436 1029 CURVE SMOOTH",
"405 1029 OFFCURVE",
"371 1064 OFFCURVE",
"308 1064 CURVE SMOOTH",
"256 1064 OFFCURVE",
"217 1047 OFFCURVE",
"179 999 CURVE SMOOTH",
"158 973 OFFCURVE",
"160 964 OFFCURVE",
"201 933 CURVE SMOOTH",
"244 901 OFFCURVE",
"251 904 OFFCURVE",
"278 931 CURVE SMOOTH",
"297 950 OFFCURVE",
"310 952 OFFCURVE",
"333 952 CURVE SMOOTH",
"364 952 OFFCURVE",
"413 918 OFFCURVE",
"469 918 CURVE SMOOTH"
);
}
);
width = 752;
}
);
note = Acircumflextilde;
unicode = 1EAA;
},
{
glyphname = Adieresis;
lastChange = "2015-07-18 15:21:20 +0000";
layers = (
{
layerId = "14EB8CAA-E485-44FF-8841-EC36E7F264D4";
name = Bold;
paths = (
{
closed = 1;
nodes = (
"225 0 LINE SMOOTH",
"247 0 OFFCURVE",
"259 10 OFFCURVE",
"264 27 CURVE SMOOTH",
"287 101 LINE",
"464 101 LINE",
"488 27 LINE SMOOTH",
"493 10 OFFCURVE",
"505 0 OFFCURVE",
"527 0 CURVE SMOOTH",
"715 0 LINE SMOOTH",
"739 0 OFFCURVE",
"742 20 OFFCURVE",
"732 43 CURVE SMOOTH",
"484 642 LINE SMOOTH",
"472 670 OFFCURVE",
"460 680 OFFCURVE",
"431 680 CURVE SMOOTH",
"322 680 LINE SMOOTH",
"293 680 OFFCURVE",
"281 670 OFFCURVE",
"269 642 CURVE SMOOTH",
"20 43 LINE SMOOTH",
"10 20 OFFCURVE",
"13 0 OFFCURVE",
"37 0 CURVE SMOOTH"
);
},
{
closed = 1;
nodes = (
"376 383 LINE",
"415 259 LINE",
"337 259 LINE"
);
},
{
closed = 1;
nodes = (
"280 707 LINE SMOOTH",
"321 707 OFFCURVE",
"348 740 OFFCURVE",
"348 778 CURVE SMOOTH",
"348 807 LINE SMOOTH",
"348 847 OFFCURVE",
"320 878 OFFCURVE",
"280 878 CURVE SMOOTH",
"250 878 LINE SMOOTH",
"210 878 OFFCURVE",
"182 847 OFFCURVE",
"182 807 CURVE SMOOTH",
"182 778 LINE SMOOTH",
"182 740 OFFCURVE",
"210 707 OFFCURVE",
"250 707 CURVE SMOOTH"
);
},
{
closed = 1;
nodes = (
"503 707 LINE SMOOTH",
"544 707 OFFCURVE",
"571 740 OFFCURVE",
"571 778 CURVE SMOOTH",
"571 807 LINE SMOOTH",
"571 847 OFFCURVE",
"543 878 OFFCURVE",
"503 878 CURVE SMOOTH",
"473 878 LINE SMOOTH",
"433 878 OFFCURVE",
"405 847 OFFCURVE",
"405 807 CURVE SMOOTH",
"405 778 LINE SMOOTH",
"405 740 OFFCURVE",
"433 707 OFFCURVE",
"473 707 CURVE SMOOTH"
);
}
);
width = 752;
}
);
note = Adieresis;
unicode = 00C4;
},
{
glyphname = Adotbelow;
lastChange = "2015-07-18 15:21:20 +0000";
layers = (
{
layerId = "14EB8CAA-E485-44FF-8841-EC36E7F264D4";
name = Bold;
paths = (
{
closed = 1;
nodes = (
"225 0 LINE SMOOTH",
"247 0 OFFCURVE",
"259 10 OFFCURVE",
"264 27 CURVE SMOOTH",
"287 101 LINE",
"464 101 LINE",
"488 27 LINE SMOOTH",
"493 10 OFFCURVE",
"505 0 OFFCURVE",
"527 0 CURVE SMOOTH",
"715 0 LINE SMOOTH",
"739 0 OFFCURVE",
"742 20 OFFCURVE",
"732 43 CURVE SMOOTH",
"484 642 LINE SMOOTH",
"472 670 OFFCURVE",
"460 680 OFFCURVE",
"431 680 CURVE SMOOTH",
"322 680 LINE SMOOTH",
"293 680 OFFCURVE",
"281 670 OFFCURVE",
"269 642 CURVE SMOOTH",
"20 43 LINE SMOOTH",
"10 20 OFFCURVE",
"13 0 OFFCURVE",
"37 0 CURVE SMOOTH"
);
},
{
closed = 1;
nodes = (
"392 -217 LINE SMOOTH",
"433 -217 OFFCURVE",
"460 -184 OFFCURVE",
"460 -146 CURVE SMOOTH",
"460 -117 LINE SMOOTH",
"460 -77 OFFCURVE",
"432 -46 OFFCURVE",
"392 -46 CURVE SMOOTH",
"362 -46 LINE SMOOTH",
"322 -46 OFFCURVE",
"294 -77 OFFCURVE",
"294 -117 CURVE SMOOTH",
"294 -146 LINE SMOOTH",
"294 -184 OFFCURVE",
"322 -217 OFFCURVE",
"362 -217 CURVE SMOOTH"
);
},
{
closed = 1;
nodes = (
"376 383 LINE",
"415 259 LINE",
"337 259 LINE"
);
}
);
width = 752;
}
);
note = Adotbelow;
unicode = 1EA0;
},
{
glyphname = Agrave;
lastChange = "2015-07-18 15:21:20 +0000";
layers = (
{
layerId = "14EB8CAA-E485-44FF-8841-EC36E7F264D4";
name = Bold;
paths = (
{
closed = 1;
nodes = (
"225 0 LINE SMOOTH",
"247 0 OFFCURVE",
"259 10 OFFCURVE",
"264 27 CURVE SMOOTH",
"287 101 LINE",
"464 101 LINE",
"488 27 LINE SMOOTH",
"493 10 OFFCURVE",
"505 0 OFFCURVE",
"527 0 CURVE SMOOTH",
"715 0 LINE SMOOTH",
"739 0 OFFCURVE",
"742 20 OFFCURVE",
"732 43 CURVE SMOOTH",
"484 642 LINE SMOOTH",
"472 670 OFFCURVE",
"460 680 OFFCURVE",
"431 680 CURVE SMOOTH",
"322 680 LINE SMOOTH",
"293 680 OFFCURVE",
"281 670 OFFCURVE",
"269 642 CURVE SMOOTH",
"20 43 LINE SMOOTH",
"10 20 OFFCURVE",
"13 0 OFFCURVE",
"37 0 CURVE SMOOTH"
);
},
{
closed = 1;
nodes = (
"376 383 LINE",
"415 259 LINE",
"337 259 LINE"
);
},
{
closed = 1;
nodes = (
"437 712 LINE SMOOTH",
"474 712 OFFCURVE",
"484 731 OFFCURVE",
"474 757 CURVE SMOOTH",
"432 873 LINE SMOOTH",
"422 902 OFFCURVE",
"415 912 OFFCURVE",
"372 912 CURVE SMOOTH",
"229 912 LINE SMOOTH",
"192 912 OFFCURVE",
"171 894 OFFCURVE",
"192 858 CURVE SMOOTH",
"256 750 LINE SMOOTH",
"274 720 OFFCURVE",
"282 712 OFFCURVE",
"330 712 CURVE SMOOTH"
);
}
);
width = 752;
}
);
note = Agrave;
unicode = 00C0;
},
{
glyphname = Ahookabove;
lastChange = "2015-07-18 15:21:20 +0000";
layers = (
{
layerId = "14EB8CAA-E485-44FF-8841-EC36E7F264D4";
name = Bold;
paths = (
{
closed = 1;
nodes = (
"225 0 LINE SMOOTH",
"247 0 OFFCURVE",
"259 10 OFFCURVE",
"264 27 CURVE SMOOTH",
"287 101 LINE",
"464 101 LINE",
"488 27 LINE SMOOTH",
"493 10 OFFCURVE",
"505 0 OFFCURVE",
"527 0 CURVE SMOOTH",
"715 0 LINE SMOOTH",
"739 0 OFFCURVE",
"742 20 OFFCURVE",
"732 43 CURVE SMOOTH",
"484 642 LINE SMOOTH",
"472 670 OFFCURVE",
"460 680 OFFCURVE",
"431 680 CURVE SMOOTH",
"322 680 LINE SMOOTH",
"293 680 OFFCURVE",
"281 670 OFFCURVE",
"269 642 CURVE SMOOTH",
"20 43 LINE SMOOTH",
"10 20 OFFCURVE",
"13 0 OFFCURVE",
"37 0 CURVE SMOOTH"
);
},
{
closed = 1;
nodes = (
"376 383 LINE",
"415 259 LINE",
"337 259 LINE"
);
},
{
closed = 1;
nodes = (
"413 724 LINE SMOOTH",
"429 724 OFFCURVE",
"436 732 OFFCURVE",
"436 747 CURVE SMOOTH",
"436 760 LINE",
"486 760 OFFCURVE",
"525 799 OFFCURVE",
"525 863 CURVE SMOOTH",
"525 936 OFFCURVE",
"476 975 OFFCURVE",
"378 975 CURVE SMOOTH",
"335 975 OFFCURVE",
"278 963 OFFCURVE",
"247 943 CURVE",
"240 938 OFFCURVE",
"240 933 OFFCURVE",
"243 927 CURVE",
"274 856 LINE",
"277 850 OFFCURVE",
"281 850 OFFCURVE",
"286 852 CURVE",
"306 861 OFFCURVE",
"326 870 OFFCURVE",
"350 870 CURVE SMOOTH",
"369 870 OFFCURVE",
"377 865 OFFCURVE",
"377 853 CURVE SMOOTH",
"377 837 OFFCURVE",
"361 833 OFFCURVE",
"334 833 CURVE SMOOTH",
"302 833 OFFCURVE",
"297 824 OFFCURVE",
"297 802 CURVE SMOOTH",
"297 747 LINE SMOOTH",
"297 732 OFFCURVE",
"304 724 OFFCURVE",
"320 724 CURVE SMOOTH"
);
}
);
width = 752;
}
);
note = Ahookabove;
unicode = 1EA2;
},
{
glyphname = Amacron;
lastChange = "2015-07-18 15:21:20 +0000";
layers = (
{
layerId = "14EB8CAA-E485-44FF-8841-EC36E7F264D4";
name = Bold;
paths = (
{
closed = 1;
nodes = (
"225 0 LINE SMOOTH",
"247 0 OFFCURVE",
"259 10 OFFCURVE",
"264 27 CURVE SMOOTH",
"287 101 LINE",
"464 101 LINE",
"488 27 LINE SMOOTH",
"493 10 OFFCURVE",
"505 0 OFFCURVE",
"527 0 CURVE SMOOTH",
"715 0 LINE SMOOTH",
"739 0 OFFCURVE",
"742 20 OFFCURVE",
"732 43 CURVE SMOOTH",
"484 642 LINE SMOOTH",
"472 670 OFFCURVE",
"460 680 OFFCURVE",
"431 680 CURVE SMOOTH",
"322 680 LINE SMOOTH",
"293 680 OFFCURVE",
"281 670 OFFCURVE",
"269 642 CURVE SMOOTH",
"20 43 LINE SMOOTH",
"10 20 OFFCURVE",
"13 0 OFFCURVE",
"37 0 CURVE SMOOTH"
);
},
{
closed = 1;
nodes = (
"376 383 LINE",
"415 259 LINE",
"337 259 LINE"
);
},
{
closed = 1;
nodes = (
"510 742 LINE SMOOTH",
"555 742 OFFCURVE",
"565 761 OFFCURVE",
"565 799 CURVE SMOOTH",
"565 855 LINE SMOOTH",
"565 893 OFFCURVE",
"555 912 OFFCURVE",
"510 912 CURVE SMOOTH",
"243 912 LINE SMOOTH",
"198 912 OFFCURVE",
"188 893 OFFCURVE",
"188 855 CURVE SMOOTH",
"188 799 LINE SMOOTH",
"188 761 OFFCURVE",
"198 742 OFFCURVE",
"243 742 CURVE SMOOTH"
);
}
);
width = 752;
}
);
note = Amacron;
unicode = 0100;
},
{
glyphname = Aogonek;
lastChange = "2015-07-18 15:21:20 +0000";
layers = (
{
layerId = "14EB8CAA-E485-44FF-8841-EC36E7F264D4";
name = Bold;
paths = (
{
closed = 1;
nodes = (
"225 0 LINE SMOOTH",
"247 0 OFFCURVE",
"259 10 OFFCURVE",
"264 27 CURVE SMOOTH",
"287 101 LINE",
"464 101 LINE",
"488 27 LINE SMOOTH",
"493 10 OFFCURVE",
"505 0 OFFCURVE",
"527 0 CURVE SMOOTH",
"715 0 LINE SMOOTH",
"739 0 OFFCURVE",
"742 20 OFFCURVE",
"732 43 CURVE SMOOTH",
"484 642 LINE SMOOTH",
"472 670 OFFCURVE",
"460 680 OFFCURVE",
"431 680 CURVE SMOOTH",
"322 680 LINE SMOOTH",
"293 680 OFFCURVE",
"281 670 OFFCURVE",
"269 642 CURVE SMOOTH",
"20 43 LINE SMOOTH",
"10 20 OFFCURVE",
"13 0 OFFCURVE",
"37 0 CURVE SMOOTH"
);
},
{
closed = 1;
nodes = (
"595 -225 OFFCURVE",
"631 -220 OFFCURVE",
"660 -207 CURVE SMOOTH",
"673 -201 OFFCURVE",
"673 -197 OFFCURVE",
"670 -190 CURVE",
"646 -139 LINE SMOOTH",
"642 -130 OFFCURVE",
"639 -131 OFFCURVE",
"632 -134 CURVE",
"626 -137 OFFCURVE",
"619 -138 OFFCURVE",
"610 -138 CURVE SMOOTH",
"595 -138 OFFCURVE",
"586 -128 OFFCURVE",
"586 -111 CURVE SMOOTH",
"586 -82 OFFCURVE",
"603 -67 OFFCURVE",
"649 -11 CURVE SMOOTH",
"656 -3 OFFCURVE",
"651 5 OFFCURVE",
"639 5 CURVE SMOOTH",
"523 5 LINE SMOOTH",
"510 5 OFFCURVE",
"506 1 OFFCURVE",
"498 -8 CURVE SMOOTH",
"454 -58 OFFCURVE",
"437 -95 OFFCURVE",
"437 -131 CURVE SMOOTH",
"437 -182 OFFCURVE",
"468 -225 OFFCURVE",
"545 -225 CURVE SMOOTH"
);
},
{
closed = 1;
nodes = (
"376 383 LINE",
"415 259 LINE",
"337 259 LINE"
);
}
);
width = 752;
}
);
note = Aogonek;
unicode = 0104;
},
{
glyphname = Aring;
lastChange = "2015-07-18 15:21:20 +0000";
layers = (
{
layerId = "14EB8CAA-E485-44FF-8841-EC36E7F264D4";
name = Bold;
paths = (
{
closed = 1;
nodes = (
"225 0 LINE SMOOTH",
"247 0 OFFCURVE",
"259 10 OFFCURVE",
"264 27 CURVE SMOOTH",
"287 101 LINE",
"464 101 LINE",
"488 27 LINE SMOOTH",
"493 10 OFFCURVE",
"505 0 OFFCURVE",
"527 0 CURVE SMOOTH",
"715 0 LINE SMOOTH",
"739 0 OFFCURVE",
"742 20 OFFCURVE",
"732 43 CURVE SMOOTH",
"484 642 LINE SMOOTH",
"472 670 OFFCURVE",
"460 680 OFFCURVE",
"431 680 CURVE SMOOTH",
"322 680 LINE SMOOTH",
"293 680 OFFCURVE",
"281 670 OFFCURVE",
"269 642 CURVE SMOOTH",
"20 43 LINE SMOOTH",
"10 20 OFFCURVE",
"13 0 OFFCURVE",
"37 0 CURVE SMOOTH"
);
},
{
closed = 1;
nodes = (
"376 383 LINE",
"415 259 LINE",
"337 259 LINE"
);
},
{
closed = 1;
nodes = (
"448 632 OFFCURVE",
"505 688 OFFCURVE",
"505 759 CURVE SMOOTH",
"505 830 OFFCURVE",
"448 887 OFFCURVE",
"377 887 CURVE SMOOTH",
"306 887 OFFCURVE",
"250 830 OFFCURVE",
"250 759 CURVE SMOOTH",
"250 688 OFFCURVE",
"306 632 OFFCURVE",
"377 632 CURVE SMOOTH"
);
},
{
closed = 1;
nodes = (
"360 728 OFFCURVE",
"346 742 OFFCURVE",
"346 759 CURVE SMOOTH",
"346 776 OFFCURVE",
"360 790 OFFCURVE",
"377 790 CURVE SMOOTH",
"394 790 OFFCURVE",
"408 776 OFFCURVE",
"408 759 CURVE SMOOTH",
"408 742 OFFCURVE",
"394 728 OFFCURVE",
"377 728 CURVE SMOOTH"
);
}
);
width = 752;
}
);
note = Aring;
unicode = 00C5;
},
{
glyphname = Aringacute;
lastChange = "2015-07-18 15:21:20 +0000";
layers = (
{
layerId = "14EB8CAA-E485-44FF-8841-EC36E7F264D4";
name = Bold;
paths = (
{
closed = 1;
nodes = (
"225 0 LINE SMOOTH",
"247 0 OFFCURVE",
"259 10 OFFCURVE",
"264 27 CURVE SMOOTH",
"287 101 LINE",
"464 101 LINE",
"488 27 LINE SMOOTH",
"493 10 OFFCURVE",
"505 0 OFFCURVE",
"527 0 CURVE SMOOTH",
"715 0 LINE SMOOTH",
"739 0 OFFCURVE",
"742 20 OFFCURVE",
"732 43 CURVE SMOOTH",
"484 642 LINE SMOOTH",
"472 670 OFFCURVE",
"460 680 OFFCURVE",
"431 680 CURVE SMOOTH",
"322 680 LINE SMOOTH",
"293 680 OFFCURVE",
"281 670 OFFCURVE",
"269 642 CURVE SMOOTH",
"20 43 LINE SMOOTH",
"10 20 OFFCURVE",
"13 0 OFFCURVE",
"37 0 CURVE SMOOTH"
);
},
{
closed = 1;
nodes = (
"376 383 LINE",
"415 259 LINE",
"337 259 LINE"
);
},
{
closed = 1;
nodes = (
"448 632 OFFCURVE",
"505 688 OFFCURVE",
"505 759 CURVE SMOOTH",
"505 830 OFFCURVE",
"448 887 OFFCURVE",
"377 887 CURVE SMOOTH",
"306 887 OFFCURVE",
"250 830 OFFCURVE",
"250 759 CURVE SMOOTH",
"250 688 OFFCURVE",
"306 632 OFFCURVE",
"377 632 CURVE SMOOTH"
);
},
{
closed = 1;
nodes = (
"360 728 OFFCURVE",
"346 742 OFFCURVE",
"346 759 CURVE SMOOTH",
"346 776 OFFCURVE",
"360 790 OFFCURVE",
"377 790 CURVE SMOOTH",
"394 790 OFFCURVE",
"408 776 OFFCURVE",
"408 759 CURVE SMOOTH",
"408 742 OFFCURVE",
"394 728 OFFCURVE",
"377 728 CURVE SMOOTH"
);
},
{
closed = 1;
nodes = (
"428 906 LINE SMOOTH",
"476 906 OFFCURVE",
"484 914 OFFCURVE",
"502 944 CURVE SMOOTH",
"566 1052 LINE SMOOTH",
"587 1088 OFFCURVE",
"566 1106 OFFCURVE",
"529 1106 CURVE SMOOTH",
"386 1106 LINE SMOOTH",
"343 1106 OFFCURVE",
"336 1095 OFFCURVE",
"326 1067 CURVE SMOOTH",
"284 951 LINE SMOOTH",
"275 925 OFFCURVE",
"284 906 OFFCURVE",
"321 906 CURVE SMOOTH"
);
}
);
width = 752;
}
);
note = Aringacute;
unicode = 01FA;
},
{
glyphname = Atilde;
lastChange = "2015-07-18 15:21:20 +0000";
layers = (
{
layerId = "14EB8CAA-E485-44FF-8841-EC36E7F264D4";
name = Bold;
paths = (
{
closed = 1;
nodes = (
"225 0 LINE SMOOTH",
"247 0 OFFCURVE",
"259 10 OFFCURVE",
"264 27 CURVE SMOOTH",
"287 101 LINE",
"464 101 LINE",
"488 27 LINE SMOOTH",
"493 10 OFFCURVE",
"505 0 OFFCURVE",
"527 0 CURVE SMOOTH",
"715 0 LINE SMOOTH",
"739 0 OFFCURVE",
"742 20 OFFCURVE",
"732 43 CURVE SMOOTH",
"484 642 LINE SMOOTH",
"472 670 OFFCURVE",
"460 680 OFFCURVE",
"431 680 CURVE SMOOTH",
"322 680 LINE SMOOTH",
"293 680 OFFCURVE",
"281 670 OFFCURVE",
"269 642 CURVE SMOOTH",
"20 43 LINE SMOOTH",
"10 20 OFFCURVE",
"13 0 OFFCURVE",
"37 0 CURVE SMOOTH"
);
},
{
closed = 1;
nodes = (
"376 383 LINE",
"415 259 LINE",
"337 259 LINE"
);
},
{
closed = 1;
nodes = (
"528 705 OFFCURVE",
"561 734 OFFCURVE",
"603 795 CURVE SMOOTH",
"628 831 OFFCURVE",
"624 848 OFFCURVE",
"581 880 CURVE SMOOTH",
"537 913 OFFCURVE",
"514 921 OFFCURVE",
"495 898 CURVE SMOOTH",
"475 874 OFFCURVE",
"465 865 OFFCURVE",
"442 865 CURVE SMOOTH",
"399 865 OFFCURVE",
"364 914 OFFCURVE",
"286 914 CURVE SMOOTH",
"225 914 OFFCURVE",
"192 883 OFFCURVE",
"150 822 CURVE SMOOTH",
"125 786 OFFCURVE",
"131 771 OFFCURVE",
"174 739 CURVE SMOOTH",
"218 706 OFFCURVE",
"241 698 OFFCURVE",
"260 721 CURVE SMOOTH",
"280 745 OFFCURVE",
"293 754 OFFCURVE",
"317 754 CURVE SMOOTH",
"366 754 OFFCURVE",
"406 705 OFFCURVE",
"467 705 CURVE SMOOTH"
);
}
);
width = 752;
}
);
note = Atilde;
unicode = 00C3;
},
{
glyphname = AE;
lastChange = "2015-07-18 15:27:06 +0000";
layers = (
{
layerId = "14EB8CAA-E485-44FF-8841-EC36E7F264D4";
name = Bold;
paths = (
{
closed = 1;
nodes = (
"226 0 LINE SMOOTH",
"248 0 OFFCURVE",
"260 10 OFFCURVE",
"265 27 CURVE SMOOTH",
"288 104 LINE",
"377 104 LINE",
"377 57 LINE SMOOTH",
"377 19 OFFCURVE",
"392 0 OFFCURVE",
"437 0 CURVE SMOOTH",
"810 0 LINE SMOOTH",
"855 0 OFFCURVE",
"865 19 OFFCURVE",
"865 57 CURVE SMOOTH",
"865 113 LINE SMOOTH",
"865 151 OFFCURVE",
"855 170 OFFCURVE",
"810 170 CURVE SMOOTH",
"597 170 LINE",
"597 256 LINE",
"721 256 LINE SMOOTH",
"766 256 OFFCURVE",
"776 275 OFFCURVE",
"776 313 CURVE SMOOTH",
"776 367 LINE SMOOTH",
"776 405 OFFCURVE",
"766 424 OFFCURVE",
"721 424 CURVE SMOOTH",
"597 424 LINE",
"597 510 LINE",
"811 510 LINE SMOOTH",
"856 510 OFFCURVE",
"866 529 OFFCURVE",
"866 567 CURVE SMOOTH",
"866 623 LINE SMOOTH",
"866 661 OFFCURVE",
"856 680 OFFCURVE",
"811 680 CURVE SMOOTH",
"323 680 LINE SMOOTH",
"294 680 OFFCURVE",
"282 670 OFFCURVE",
"270 642 CURVE SMOOTH",
"21 43 LINE SMOOTH",
"11 20 OFFCURVE",
"14 0 OFFCURVE",
"38 0 CURVE SMOOTH"
);
},
{
closed = 1;
nodes = (
"377 416 LINE",
"377 259 LINE",
"331 259 LINE"
);
}
);
width = 880;
}
);
note = AE;
unicode = 00C6;
},
{
glyphname = AEacute;
lastChange = "2015-07-18 05:53:06 +0000";
layers = (
{
layerId = "14EB8CAA-E485-44FF-8841-EC36E7F264D4";
name = Bold;
paths = (
{
closed = 1;
nodes = (
"226 0 LINE SMOOTH",
"248 0 OFFCURVE",
"260 10 OFFCURVE",
"265 27 CURVE SMOOTH",
"288 104 LINE",
"377 104 LINE",
"377 57 LINE SMOOTH",
"377 19 OFFCURVE",
"392 0 OFFCURVE",
"437 0 CURVE SMOOTH",
"810 0 LINE SMOOTH",
"855 0 OFFCURVE",
"865 19 OFFCURVE",
"865 57 CURVE SMOOTH",
"865 113 LINE SMOOTH",
"865 151 OFFCURVE",
"855 170 OFFCURVE",
"810 170 CURVE SMOOTH",
"597 170 LINE",
"597 256 LINE",
"721 256 LINE SMOOTH",
"766 256 OFFCURVE",
"776 275 OFFCURVE",
"776 313 CURVE SMOOTH",
"776 367 LINE SMOOTH",
"776 405 OFFCURVE",
"766 424 OFFCURVE",
"721 424 CURVE SMOOTH",
"597 424 LINE",
"597 510 LINE",
"811 510 LINE SMOOTH",
"856 510 OFFCURVE",
"866 529 OFFCURVE",
"866 567 CURVE SMOOTH",
"866 623 LINE SMOOTH",
"866 661 OFFCURVE",
"856 680 OFFCURVE",
"811 680 CURVE SMOOTH",
"323 680 LINE SMOOTH",
"294 680 OFFCURVE",
"282 670 OFFCURVE",
"270 642 CURVE SMOOTH",
"21 43 LINE SMOOTH",
"11 20 OFFCURVE",
"14 0 OFFCURVE",
"38 0 CURVE SMOOTH"
);
},
{
closed = 1;
nodes = (
"377 416 LINE",
"377 259 LINE",
"331 259 LINE"
);
},
{
closed = 1;
nodes = (
"556 712 LINE SMOOTH",
"604 712 OFFCURVE",
"612 720 OFFCURVE",
"630 750 CURVE SMOOTH",
"694 858 LINE SMOOTH",
"715 894 OFFCURVE",
"694 912 OFFCURVE",
"657 912 CURVE SMOOTH",
"514 912 LINE SMOOTH",
"471 912 OFFCURVE",
"464 901 OFFCURVE",
"454 873 CURVE SMOOTH",
"412 757 LINE SMOOTH",
"403 731 OFFCURVE",
"412 712 OFFCURVE",
"449 712 CURVE SMOOTH"
);
}
);
width = 884;
}
);
note = AEacute;
unicode = 01FC;
},
{
glyphname = B;
lastChange = "2015-07-18 05:53:06 +0000";
layers = (
{
layerId = "14EB8CAA-E485-44FF-8841-EC36E7F264D4";
name = Bold;
paths = (
{
closed = 1;
nodes = (
"391 0 LINE SMOOTH",
"571 0 OFFCURVE",
"653 94 OFFCURVE",
"653 212 CURVE SMOOTH",
"653 288 OFFCURVE",
"621 333 OFFCURVE",
"564 352 CURVE",
"607 370 OFFCURVE",
"635 420 OFFCURVE",
"635 480 CURVE SMOOTH",
"635 602 OFFCURVE",
"567 680 OFFCURVE",
"398 680 CURVE SMOOTH",
"95 680 LINE SMOOTH",
"50 680 OFFCURVE",
"35 661 OFFCURVE",
"35 623 CURVE SMOOTH",
"35 57 LINE SMOOTH",
"35 19 OFFCURVE",
"50 0 OFFCURVE",
"95 0 CURVE SMOOTH"
);
},
{
closed = 1;
nodes = (
"274 269 LINE",
"367 269 LINE SMOOTH",
"395 269 OFFCURVE",
"414 252 OFFCURVE",
"414 219 CURVE SMOOTH",
"414 188 OFFCURVE",
"395 169 OFFCURVE",
"367 169 CURVE SMOOTH",
"274 169 LINE"
);
},
{
closed = 1;
nodes = (
"274 511 LINE",
"350 511 LINE SMOOTH",
"378 511 OFFCURVE",
"396 500 OFFCURVE",
"396 467 CURVE SMOOTH",
"396 436 OFFCURVE",
"378 423 OFFCURVE",
"350 423 CURVE SMOOTH",
"274 423 LINE"
);
}
);
width = 668;
}
);
note = B;
unicode = 0042;
},
{
glyphname = C;
lastChange = "2015-07-18 05:53:02 +0000";
layers = (
{
layerId = "14EB8CAA-E485-44FF-8841-EC36E7F264D4";
name = Bold;
paths = (
{
closed = 1;
nodes = (
"510 -15 OFFCURVE",
"598 8 OFFCURVE",
"654 46 CURVE SMOOTH",
"671 58 OFFCURVE",
"667 73 OFFCURVE",
"657 91 CURVE SMOOTH",
"607 177 LINE SMOOTH",
"595 197 OFFCURVE",
"585 193 OFFCURVE",
"565 183 CURVE SMOOTH",
"533 167 OFFCURVE",
"493 153 OFFCURVE",
"433 153 CURVE SMOOTH",
"324 153 OFFCURVE",
"254 218 OFFCURVE",
"254 340 CURVE SMOOTH",
"254 462 OFFCURVE",
"314 527 OFFCURVE",
"425 527 CURVE SMOOTH",
"485 527 OFFCURVE",
"523 513 OFFCURVE",
"555 497 CURVE SMOOTH",
"575 487 OFFCURVE",
"585 483 OFFCURVE",
"597 503 CURVE SMOOTH",
"647 589 LINE SMOOTH",
"657 607 OFFCURVE",
"661 622 OFFCURVE",
"644 634 CURVE SMOOTH",
"588 672 OFFCURVE",
"502 695 OFFCURVE",
"391 695 CURVE SMOOTH",
"153 695 OFFCURVE",
"15 579 OFFCURVE",
"15 340 CURVE SMOOTH",
"15 101 OFFCURVE",
"161 -15 OFFCURVE",
"399 -15 CURVE SMOOTH"
);
}
);
width = 681;
}
);
note = C;
unicode = 0043;
},
{
glyphname = Cacute;
lastChange = "2015-07-18 05:53:06 +0000";
layers = (
{
layerId = "14EB8CAA-E485-44FF-8841-EC36E7F264D4";
name = Bold;
paths = (
{
closed = 1;
nodes = (
"510 -15 OFFCURVE",
"598 8 OFFCURVE",
"654 46 CURVE SMOOTH",
"671 58 OFFCURVE",
"667 73 OFFCURVE",
"657 91 CURVE SMOOTH",
"607 177 LINE SMOOTH",
"595 197 OFFCURVE",
"585 193 OFFCURVE",
"565 183 CURVE SMOOTH",
"533 167 OFFCURVE",
"493 153 OFFCURVE",
"433 153 CURVE SMOOTH",
"324 153 OFFCURVE",
"254 218 OFFCURVE",
"254 340 CURVE SMOOTH",
"254 462 OFFCURVE",
"314 527 OFFCURVE",
"425 527 CURVE SMOOTH",
"485 527 OFFCURVE",
"523 513 OFFCURVE",
"555 497 CURVE SMOOTH",
"575 487 OFFCURVE",
"585 483 OFFCURVE",
"597 503 CURVE SMOOTH",
"647 589 LINE SMOOTH",
"657 607 OFFCURVE",
"661 622 OFFCURVE",
"644 634 CURVE SMOOTH",
"588 672 OFFCURVE",
"502 695 OFFCURVE",
"391 695 CURVE SMOOTH",
"153 695 OFFCURVE",
"15 579 OFFCURVE",
"15 340 CURVE SMOOTH",
"15 101 OFFCURVE",
"161 -15 OFFCURVE",
"399 -15 CURVE SMOOTH"
);
},
{
closed = 1;
nodes = (
"416 736 LINE SMOOTH",
"464 736 OFFCURVE",
"472 744 OFFCURVE",
"490 774 CURVE SMOOTH",
"554 882 LINE SMOOTH",
"575 918 OFFCURVE",
"554 936 OFFCURVE",
"517 936 CURVE SMOOTH",
"374 936 LINE SMOOTH",
"331 936 OFFCURVE",
"324 925 OFFCURVE",
"314 897 CURVE SMOOTH",
"272 781 LINE SMOOTH",
"263 755 OFFCURVE",
"272 736 OFFCURVE",
"309 736 CURVE SMOOTH"
);
}
);
width = 681;
}
);
note = Cacute;
unicode = 0106;
},
{
glyphname = Ccaron;
lastChange = "2015-07-18 06:02:25 +0000";
layers = (
{
layerId = "14EB8CAA-E485-44FF-8841-EC36E7F264D4";
name = Bold;
paths = (
{
closed = 1;
nodes = (
"510 -15 OFFCURVE",
"598 8 OFFCURVE",
"654 46 CURVE SMOOTH",
"671 58 OFFCURVE",
"667 73 OFFCURVE",
"657 91 CURVE SMOOTH",
"607 177 LINE SMOOTH",
"595 197 OFFCURVE",
"585 193 OFFCURVE",
"565 183 CURVE SMOOTH",
"533 167 OFFCURVE",
"493 153 OFFCURVE",
"433 153 CURVE SMOOTH",
"324 153 OFFCURVE",
"254 218 OFFCURVE",
"254 340 CURVE SMOOTH",
"254 462 OFFCURVE",
"314 527 OFFCURVE",
"425 527 CURVE SMOOTH",
"485 527 OFFCURVE",
"523 513 OFFCURVE",
"555 497 CURVE SMOOTH",
"575 487 OFFCURVE",
"585 483 OFFCURVE",
"597 503 CURVE SMOOTH",
"647 589 LINE SMOOTH",
"657 607 OFFCURVE",
"661 622 OFFCURVE",
"644 634 CURVE SMOOTH",
"588 672 OFFCURVE",
"502 695 OFFCURVE",
"391 695 CURVE SMOOTH",
"153 695 OFFCURVE",
"15 579 OFFCURVE",
"15 340 CURVE SMOOTH",
"15 101 OFFCURVE",
"161 -15 OFFCURVE",
"399 -15 CURVE SMOOTH"
);
},
{
closed = 1;
nodes = (
"456 748 LINE SMOOTH",
"496 748 OFFCURVE",
"500 755 OFFCURVE",
"517 777 CURVE SMOOTH",
"609 894 LINE SMOOTH",
"635 927 OFFCURVE",
"625 948 OFFCURVE",
"588 948 CURVE SMOOTH",
"499 948 LINE SMOOTH",
"461 948 OFFCURVE",
"450 941 OFFCURVE",
"436 920 CURVE SMOOTH",
"394 855 LINE",
"352 920 LINE SMOOTH",
"338 941 OFFCURVE",
"327 948 OFFCURVE",
"289 948 CURVE SMOOTH",
"200 948 LINE SMOOTH",
"163 948 OFFCURVE",
"153 927 OFFCURVE",
"179 894 CURVE SMOOTH",
"271 777 LINE SMOOTH",
"288 755 OFFCURVE",
"292 748 OFFCURVE",
"332 748 CURVE SMOOTH"
);
}
);
width = 681;
}
);
note = Ccaron;
unicode = 010C;
},
{
glyphname = Ccedilla;
lastChange = "2015-07-18 05:53:06 +0000";
layers = (
{
layerId = "14EB8CAA-E485-44FF-8841-EC36E7F264D4";
name = Bold;
paths = (
{
closed = 1;
nodes = (
"510 -15 OFFCURVE",
"598 8 OFFCURVE",
"654 46 CURVE SMOOTH",
"671 58 OFFCURVE",
"667 73 OFFCURVE",
"657 91 CURVE SMOOTH",
"607 177 LINE SMOOTH",
"595 197 OFFCURVE",
"585 193 OFFCURVE",
"565 183 CURVE SMOOTH",
"533 167 OFFCURVE",
"493 153 OFFCURVE",
"433 153 CURVE SMOOTH",
"324 153 OFFCURVE",
"254 218 OFFCURVE",
"254 340 CURVE SMOOTH",
"254 462 OFFCURVE",
"314 527 OFFCURVE",
"425 527 CURVE SMOOTH",
"485 527 OFFCURVE",
"523 513 OFFCURVE",
"555 497 CURVE SMOOTH",
"575 487 OFFCURVE",
"585 483 OFFCURVE",
"597 503 CURVE SMOOTH",
"647 589 LINE SMOOTH",
"657 607 OFFCURVE",
"661 622 OFFCURVE",
"644 634 CURVE SMOOTH",
"588 672 OFFCURVE",
"502 695 OFFCURVE",
"391 695 CURVE SMOOTH",
"153 695 OFFCURVE",
"15 579 OFFCURVE",
"15 340 CURVE SMOOTH",
"15 101 OFFCURVE",
"161 -15 OFFCURVE",
"399 -15 CURVE SMOOTH"
);
},
{
closed = 1;
nodes = (
"467 -235 OFFCURVE",
"508 -191 OFFCURVE",
"508 -145 CURVE SMOOTH",
"508 -102 OFFCURVE",
"489 -80 OFFCURVE",
"445 -71 CURVE",
"468 -21 LINE SMOOTH",
"473 -11 OFFCURVE",
"470 -5 OFFCURVE",
"458 -5 CURVE SMOOTH",
"336 -5 LINE SMOOTH",
"322 -5 OFFCURVE",
"318 -8 OFFCURVE",
"314 -19 CURVE SMOOTH",
"287 -86 LINE SMOOTH",
"283 -96 OFFCURVE",
"287 -102 OFFCURVE",
"297 -102 CURVE SMOOTH",
"315 -102 LINE SMOOTH",
"348 -102 OFFCURVE",
"362 -108 OFFCURVE",
"362 -125 CURVE SMOOTH",
"362 -135 OFFCURVE",
"354 -142 OFFCURVE",
"332 -142 CURVE SMOOTH",
"320 -142 OFFCURVE",
"303 -138 OFFCURVE",
"291 -132 CURVE SMOOTH",
"283 -128 OFFCURVE",
"277 -127 OFFCURVE",
"273 -136 CURVE",
"249 -199 LINE SMOOTH",
"245 -209 OFFCURVE",
"247 -211 OFFCURVE",
"259 -217 CURVE SMOOTH",
"279 -227 OFFCURVE",
"328 -235 OFFCURVE",
"367 -235 CURVE SMOOTH"
);
}
);
width = 681;
}
);
note = Ccedilla;
unicode = 00C7;
},
{
glyphname = Ccircumflex;
lastChange = "2015-07-18 06:02:32 +0000";
layers = (
{
layerId = "14EB8CAA-E485-44FF-8841-EC36E7F264D4";
name = Bold;
paths = (
{
closed = 1;
nodes = (
"510 -15 OFFCURVE",
"598 8 OFFCURVE",
"654 46 CURVE SMOOTH",
"671 58 OFFCURVE",
"667 73 OFFCURVE",
"657 91 CURVE SMOOTH",
"607 177 LINE SMOOTH",
"595 197 OFFCURVE",
"585 193 OFFCURVE",
"565 183 CURVE SMOOTH",
"533 167 OFFCURVE",
"493 153 OFFCURVE",
"433 153 CURVE SMOOTH",
"324 153 OFFCURVE",
"254 218 OFFCURVE",
"254 340 CURVE SMOOTH",
"254 462 OFFCURVE",
"314 527 OFFCURVE",
"425 527 CURVE SMOOTH",
"485 527 OFFCURVE",
"523 513 OFFCURVE",
"555 497 CURVE SMOOTH",
"575 487 OFFCURVE",
"585 483 OFFCURVE",
"597 503 CURVE SMOOTH",
"647 589 LINE SMOOTH",
"657 607 OFFCURVE",
"661 622 OFFCURVE",
"644 634 CURVE SMOOTH",
"588 672 OFFCURVE",
"502 695 OFFCURVE",
"391 695 CURVE SMOOTH",
"153 695 OFFCURVE",
"15 579 OFFCURVE",
"15 340 CURVE SMOOTH",
"15 101 OFFCURVE",
"161 -15 OFFCURVE",
"399 -15 CURVE SMOOTH"
);
},
{
closed = 1;
nodes = (
"264 727 LINE SMOOTH",
"302 727 OFFCURVE",
"313 734 OFFCURVE",
"327 755 CURVE SMOOTH",
"369 820 LINE",
"411 755 LINE SMOOTH",
"425 734 OFFCURVE",
"436 727 OFFCURVE",
"474 727 CURVE SMOOTH",
"563 727 LINE SMOOTH",
"600 727 OFFCURVE",
"610 748 OFFCURVE",
"584 781 CURVE SMOOTH",
"492 898 LINE SMOOTH",
"475 920 OFFCURVE",
"471 927 OFFCURVE",
"431 927 CURVE SMOOTH",
"307 927 LINE SMOOTH",
"267 927 OFFCURVE",
"263 920 OFFCURVE",
"246 898 CURVE SMOOTH",
"154 781 LINE SMOOTH",
"128 748 OFFCURVE",
"138 727 OFFCURVE",
"175 727 CURVE SMOOTH"
);
}
);
width = 681;
}
);
note = Ccircumflex;
unicode = 0108;
},
{
glyphname = Cdotaccent;
lastChange = "2015-07-18 05:53:06 +0000";
layers = (
{
layerId = "14EB8CAA-E485-44FF-8841-EC36E7F264D4";
name = Bold;
paths = (
{
closed = 1;
nodes = (
"510 -15 OFFCURVE",
"598 8 OFFCURVE",
"654 46 CURVE SMOOTH",
"671 58 OFFCURVE",
"667 73 OFFCURVE",
"657 91 CURVE SMOOTH",
"607 177 LINE SMOOTH",
"595 197 OFFCURVE",
"585 193 OFFCURVE",
"565 183 CURVE SMOOTH",
"533 167 OFFCURVE",
"493 153 OFFCURVE",
"433 153 CURVE SMOOTH",
"324 153 OFFCURVE",
"254 218 OFFCURVE",
"254 340 CURVE SMOOTH",
"254 462 OFFCURVE",
"314 527 OFFCURVE",
"425 527 CURVE SMOOTH",
"485 527 OFFCURVE",
"523 513 OFFCURVE",
"555 497 CURVE SMOOTH",
"575 487 OFFCURVE",
"585 483 OFFCURVE",
"597 503 CURVE SMOOTH",
"647 589 LINE SMOOTH",
"657 607 OFFCURVE",
"661 622 OFFCURVE",
"644 634 CURVE SMOOTH",
"588 672 OFFCURVE",
"502 695 OFFCURVE",
"391 695 CURVE SMOOTH",
"153 695 OFFCURVE",
"15 579 OFFCURVE",
"15 340 CURVE SMOOTH",
"15 101 OFFCURVE",
"161 -15 OFFCURVE",
"399 -15 CURVE SMOOTH"
);
},
{
closed = 1;
nodes = (
"376 741 LINE SMOOTH",
"417 741 OFFCURVE",
"444 774 OFFCURVE",
"444 812 CURVE SMOOTH",
"444 841 LINE SMOOTH",
"444 881 OFFCURVE",
"416 912 OFFCURVE",
"376 912 CURVE SMOOTH",
"346 912 LINE SMOOTH",
"306 912 OFFCURVE",
"278 881 OFFCURVE",
"278 841 CURVE SMOOTH",
"278 812 LINE SMOOTH",
"278 774 OFFCURVE",
"306 741 OFFCURVE",
"346 741 CURVE SMOOTH"
);
}
);
width = 681;
}
);
note = Cdotaccent;
unicode = 010A;
},
{
glyphname = D;
lastChange = "2015-07-18 05:53:06 +0000";
layers = (
{
layerId = "14EB8CAA-E485-44FF-8841-EC36E7F264D4";
name = Bold;
paths = (
{
closed = 1;
nodes = (
"325 0 LINE SMOOTH",
"553 0 OFFCURVE",
"678 114 OFFCURVE",
"678 340 CURVE SMOOTH",
"678 575 OFFCURVE",
"553 680 OFFCURVE",
"325 680 CURVE SMOOTH",
"95 680 LINE SMOOTH",
"50 680 OFFCURVE",
"35 661 OFFCURVE",
"35 623 CURVE SMOOTH",
"35 57 LINE SMOOTH",
"35 19 OFFCURVE",
"50 0 OFFCURVE",
"95 0 CURVE SMOOTH"
);
},
{
closed = 1;
nodes = (
"275 510 LINE",
"334 510 LINE SMOOTH",
"406 510 OFFCURVE",
"439 471 OFFCURVE",
"439 340 CURVE SMOOTH",
"439 209 OFFCURVE",
"406 170 OFFCURVE",
"334 170 CURVE SMOOTH",
"275 170 LINE"
);
}
);
width = 693;
}
);
note = D;
unicode = 0044;
},
{
glyphname = Eth;
lastChange = "2015-07-18 05:53:06 +0000";
layers = (
{
layerId = "14EB8CAA-E485-44FF-8841-EC36E7F264D4";
name = Bold;
paths = (
{
closed = 1;
nodes = (
"363 0 LINE SMOOTH",
"591 0 OFFCURVE",
"716 114 OFFCURVE",
"716 340 CURVE SMOOTH",
"716 575 OFFCURVE",
"591 680 OFFCURVE",
"363 680 CURVE SMOOTH",
"133 680 LINE SMOOTH",
"88 680 OFFCURVE",
"73 661 OFFCURVE",
"73 623 CURVE SMOOTH",
"73 426 LINE",
"50 426 LINE SMOOTH",
"5 426 OFFCURVE",
"-5 407 OFFCURVE",
"-5 369 CURVE SMOOTH",
"-5 313 LINE SMOOTH",
"-5 275 OFFCURVE",
"5 256 OFFCURVE",
"50 256 CURVE SMOOTH",
"73 256 LINE",
"73 57 LINE SMOOTH",
"73 19 OFFCURVE",
"88 0 OFFCURVE",
"133 0 CURVE SMOOTH"
);
},
{
closed = 1;
nodes = (
"313 256 LINE",
"377 256 LINE SMOOTH",
"422 256 OFFCURVE",
"432 275 OFFCURVE",
"432 313 CURVE SMOOTH",
"432 369 LINE SMOOTH",
"432 407 OFFCURVE",
"422 426 OFFCURVE",
"377 426 CURVE SMOOTH",
"313 426 LINE",
"313 510 LINE",
"372 510 LINE SMOOTH",
"444 510 OFFCURVE",
"477 471 OFFCURVE",
"477 340 CURVE SMOOTH",
"477 209 OFFCURVE",
"444 170 OFFCURVE",
"372 170 CURVE SMOOTH",
"313 170 LINE"
);
}
);
width = 731;
}
);
note = Eth;
unicode = 00D0;
},
{
glyphname = Dcaron;
lastChange = "2015-07-18 05:53:05 +0000";
layers = (
{
layerId = "14EB8CAA-E485-44FF-8841-EC36E7F264D4";
name = Bold;
paths = (
{
closed = 1;
nodes = (
"325 0 LINE SMOOTH",
"553 0 OFFCURVE",
"678 114 OFFCURVE",
"678 340 CURVE SMOOTH",
"678 575 OFFCURVE",
"553 680 OFFCURVE",
"325 680 CURVE SMOOTH",
"95 680 LINE SMOOTH",
"50 680 OFFCURVE",
"35 661 OFFCURVE",
"35 623 CURVE SMOOTH",
"35 57 LINE SMOOTH",
"35 19 OFFCURVE",
"50 0 OFFCURVE",
"95 0 CURVE SMOOTH"
);
},
{
closed = 1;
nodes = (
"275 510 LINE",
"334 510 LINE SMOOTH",
"406 510 OFFCURVE",
"439 471 OFFCURVE",
"439 340 CURVE SMOOTH",
"439 209 OFFCURVE",
"406 170 OFFCURVE",
"334 170 CURVE SMOOTH",
"275 170 LINE"
);
},
{
closed = 1;
nodes = (
"383 748 LINE SMOOTH",
"423 748 OFFCURVE",
"427 755 OFFCURVE",
"444 777 CURVE SMOOTH",
"536 894 LINE SMOOTH",
"562 927 OFFCURVE",
"552 948 OFFCURVE",
"515 948 CURVE SMOOTH",
"426 948 LINE SMOOTH",
"388 948 OFFCURVE",
"377 941 OFFCURVE",
"363 920 CURVE SMOOTH",
"321 855 LINE",
"279 920 LINE SMOOTH",
"265 941 OFFCURVE",
"254 948 OFFCURVE",
"216 948 CURVE SMOOTH",
"127 948 LINE SMOOTH",
"90 948 OFFCURVE",
"80 927 OFFCURVE",
"106 894 CURVE SMOOTH",
"198 777 LINE SMOOTH",
"215 755 OFFCURVE",
"219 748 OFFCURVE",
"259 748 CURVE SMOOTH"
);
}
);
width = 693;
}
);
note = Dcaron;
unicode = 010E;
},
{
glyphname = Dcroat;
lastChange = "2015-07-18 05:53:06 +0000";
layers = (
{
layerId = "14EB8CAA-E485-44FF-8841-EC36E7F264D4";
name = Bold;
paths = (
{
closed = 1;
nodes = (
"353 0 LINE SMOOTH",
"581 0 OFFCURVE",
"706 114 OFFCURVE",
"706 340 CURVE SMOOTH",
"706 575 OFFCURVE",
"581 680 OFFCURVE",
"353 680 CURVE SMOOTH",
"123 680 LINE SMOOTH",
"78 680 OFFCURVE",
"63 661 OFFCURVE",
"63 623 CURVE SMOOTH",
"63 426 LINE",
"40 426 LINE SMOOTH",
"-5 426 OFFCURVE",
"-15 407 OFFCURVE",
"-15 369 CURVE SMOOTH",
"-15 313 LINE SMOOTH",
"-15 275 OFFCURVE",
"-5 256 OFFCURVE",
"40 256 CURVE SMOOTH",
"63 256 LINE",
"63 57 LINE SMOOTH",
"63 19 OFFCURVE",
"78 0 OFFCURVE",
"123 0 CURVE SMOOTH"
);
},
{
closed = 1;
nodes = (
"303 256 LINE",
"367 256 LINE SMOOTH",
"412 256 OFFCURVE",
"422 275 OFFCURVE",
"422 313 CURVE SMOOTH",
"422 369 LINE SMOOTH",
"422 407 OFFCURVE",
"412 426 OFFCURVE",
"367 426 CURVE SMOOTH",
"303 426 LINE",
"303 510 LINE",
"362 510 LINE SMOOTH",
"434 510 OFFCURVE",
"467 471 OFFCURVE",
"467 340 CURVE SMOOTH",
"467 209 OFFCURVE",
"434 170 OFFCURVE",
"362 170 CURVE SMOOTH",
"303 170 LINE"
);
}
);
width = 721;
}
);
note = Dcroat;
unicode = 0110;
},
{
glyphname = Ddotbelow;
lastChange = "2015-07-18 05:53:05 +0000";
layers = (
{
layerId = "14EB8CAA-E485-44FF-8841-EC36E7F264D4";
name = Bold;
paths = (
{
closed = 1;
nodes = (
"326 0 LINE SMOOTH",
"554 0 OFFCURVE",
"679 114 OFFCURVE",
"679 340 CURVE SMOOTH",
"679 575 OFFCURVE",
"554 680 OFFCURVE",
"326 680 CURVE SMOOTH",
"96 680 LINE SMOOTH",
"51 680 OFFCURVE",
"36 661 OFFCURVE",
"36 623 CURVE SMOOTH",
"36 57 LINE SMOOTH",
"36 19 OFFCURVE",
"51 0 OFFCURVE",
"96 0 CURVE SMOOTH"
);
},
{
closed = 1;
nodes = (
"328 -217 LINE SMOOTH",
"369 -217 OFFCURVE",
"396 -184 OFFCURVE",
"396 -146 CURVE SMOOTH",
"396 -117 LINE SMOOTH",
"396 -77 OFFCURVE",
"368 -46 OFFCURVE",
"328 -46 CURVE SMOOTH",
"298 -46 LINE SMOOTH",
"258 -46 OFFCURVE",
"230 -77 OFFCURVE",
"230 -117 CURVE SMOOTH",
"230 -146 LINE SMOOTH",
"230 -184 OFFCURVE",
"258 -217 OFFCURVE",
"298 -217 CURVE SMOOTH"
);
},
{
closed = 1;
nodes = (
"276 510 LINE",
"335 510 LINE SMOOTH",
"407 510 OFFCURVE",
"440 471 OFFCURVE",
"440 340 CURVE SMOOTH",
"440 209 OFFCURVE",
"407 170 OFFCURVE",
"335 170 CURVE SMOOTH",
"276 170 LINE"
);
}
);
width = 694;
}
);
note = Ddotbelow;
unicode = 1E0C;
},
{
glyphname = Dlinebelow;
lastChange = "2015-07-18 05:53:06 +0000";
layers = (
{
layerId = "14EB8CAA-E485-44FF-8841-EC36E7F264D4";
name = Bold;
paths = (
{
closed = 1;
nodes = (
"325 0 LINE SMOOTH",
"553 0 OFFCURVE",
"678 114 OFFCURVE",
"678 340 CURVE SMOOTH",
"678 575 OFFCURVE",
"553 680 OFFCURVE",
"325 680 CURVE SMOOTH",
"95 680 LINE SMOOTH",
"50 680 OFFCURVE",
"35 661 OFFCURVE",
"35 623 CURVE SMOOTH",
"35 57 LINE SMOOTH",
"35 19 OFFCURVE",
"50 0 OFFCURVE",
"95 0 CURVE SMOOTH"
);
},
{
closed = 1;
nodes = (
"405 -200 LINE SMOOTH",
"450 -200 OFFCURVE",
"460 -181 OFFCURVE",
"460 -143 CURVE SMOOTH",
"460 -107 LINE SMOOTH",
"460 -69 OFFCURVE",
"450 -50 OFFCURVE",
"405 -50 CURVE SMOOTH",
"171 -50 LINE SMOOTH",
"126 -50 OFFCURVE",
"116 -69 OFFCURVE",
"116 -107 CURVE SMOOTH",
"116 -143 LINE SMOOTH",
"116 -181 OFFCURVE",
"126 -200 OFFCURVE",
"171 -200 CURVE SMOOTH"
);
},
{
closed = 1;
nodes = (
"275 510 LINE",
"334 510 LINE SMOOTH",
"406 510 OFFCURVE",
"439 471 OFFCURVE",
"439 340 CURVE SMOOTH",
"439 209 OFFCURVE",
"406 170 OFFCURVE",
"334 170 CURVE SMOOTH",
"275 170 LINE"
);
}
);
width = 693;
}
);
note = Dlinebelow;
unicode = 1E0E;
},
{
glyphname = E;
lastChange = "2015-07-18 06:03:21 +0000";
layers = (
{
layerId = "14EB8CAA-E485-44FF-8841-EC36E7F264D4";
name = Bold;
paths = (
{
closed = 1;
nodes = (
"508 0 LINE SMOOTH",
"553 0 OFFCURVE",
"563 19 OFFCURVE",
"563 57 CURVE SMOOTH",
"563 113 LINE SMOOTH",
"563 151 OFFCURVE",
"553 170 OFFCURVE",
"508 170 CURVE SMOOTH",
"275 170 LINE",
"275 256 LINE",
"419 256 LINE SMOOTH",
"464 256 OFFCURVE",
"474 275 OFFCURVE",
"474 313 CURVE SMOOTH",
"474 367 LINE SMOOTH",
"474 405 OFFCURVE",
"464 424 OFFCURVE",
"419 424 CURVE SMOOTH",
"275 424 LINE",
"275 510 LINE",
"509 510 LINE SMOOTH",
"554 510 OFFCURVE",
"564 529 OFFCURVE",
"564 567 CURVE SMOOTH",
"564 623 LINE SMOOTH",
"564 661 OFFCURVE",
"554 680 OFFCURVE",
"509 680 CURVE SMOOTH",
"95 680 LINE SMOOTH",
"50 680 OFFCURVE",
"35 661 OFFCURVE",
"35 623 CURVE SMOOTH",
"35 57 LINE SMOOTH",
"35 19 OFFCURVE",
"50 0 OFFCURVE",
"95 0 CURVE SMOOTH"
);
}
);
width = 574;
}
);
note = E;
unicode = 0045;
},
{
glyphname = Eacute;
lastChange = "2015-07-18 06:03:25 +0000";
layers = (
{
layerId = "14EB8CAA-E485-44FF-8841-EC36E7F264D4";
name = Bold;
paths = (
{
closed = 1;
nodes = (
"508 0 LINE SMOOTH",
"553 0 OFFCURVE",
"563 19 OFFCURVE",
"563 57 CURVE SMOOTH",
"563 113 LINE SMOOTH",
"563 151 OFFCURVE",
"553 170 OFFCURVE",
"508 170 CURVE SMOOTH",
"275 170 LINE",
"275 256 LINE",
"419 256 LINE SMOOTH",
"464 256 OFFCURVE",
"474 275 OFFCURVE",
"474 313 CURVE SMOOTH",
"474 367 LINE SMOOTH",
"474 405 OFFCURVE",
"464 424 OFFCURVE",
"419 424 CURVE SMOOTH",
"275 424 LINE",
"275 510 LINE",
"509 510 LINE SMOOTH",
"554 510 OFFCURVE",
"564 529 OFFCURVE",
"564 567 CURVE SMOOTH",
"564 623 LINE SMOOTH",
"564 661 OFFCURVE",
"554 680 OFFCURVE",
"509 680 CURVE SMOOTH",
"95 680 LINE SMOOTH",
"50 680 OFFCURVE",
"35 661 OFFCURVE",
"35 623 CURVE SMOOTH",
"35 57 LINE SMOOTH",
"35 19 OFFCURVE",
"50 0 OFFCURVE",
"95 0 CURVE SMOOTH"
);
},
{
closed = 1;
nodes = (
"318 736 LINE SMOOTH",
"366 736 OFFCURVE",
"374 744 OFFCURVE",
"392 774 CURVE SMOOTH",
"456 882 LINE SMOOTH",
"477 918 OFFCURVE",
"456 936 OFFCURVE",
"419 936 CURVE SMOOTH",
"276 936 LINE SMOOTH",
"233 936 OFFCURVE",
"226 925 OFFCURVE",
"216 897 CURVE SMOOTH",
"174 781 LINE SMOOTH",
"165 755 OFFCURVE",
"174 736 OFFCURVE",
"211 736 CURVE SMOOTH"
);
}
);
width = 574;
}
);
note = Eacute;
unicode = 00C9;
},
{
glyphname = Ebreve;
lastChange = "2015-07-18 06:03:29 +0000";
layers = (
{
layerId = "14EB8CAA-E485-44FF-8841-EC36E7F264D4";
name = Bold;
paths = (
{
closed = 1;
nodes = (
"508 0 LINE SMOOTH",
"553 0 OFFCURVE",
"563 19 OFFCURVE",
"563 57 CURVE SMOOTH",
"563 113 LINE SMOOTH",
"563 151 OFFCURVE",
"553 170 OFFCURVE",
"508 170 CURVE SMOOTH",
"275 170 LINE",
"275 256 LINE",
"419 256 LINE SMOOTH",
"464 256 OFFCURVE",
"474 275 OFFCURVE",
"474 313 CURVE SMOOTH",
"474 367 LINE SMOOTH",
"474 405 OFFCURVE",
"464 424 OFFCURVE",
"419 424 CURVE SMOOTH",
"275 424 LINE",
"275 510 LINE",
"509 510 LINE SMOOTH",
"554 510 OFFCURVE",
"564 529 OFFCURVE",
"564 567 CURVE SMOOTH",
"564 623 LINE SMOOTH",
"564 661 OFFCURVE",
"554 680 OFFCURVE",
"509 680 CURVE SMOOTH",
"95 680 LINE SMOOTH",
"50 680 OFFCURVE",
"35 661 OFFCURVE",
"35 623 CURVE SMOOTH",
"35 57 LINE SMOOTH",
"35 19 OFFCURVE",
"50 0 OFFCURVE",
"95 0 CURVE SMOOTH"
);
},
{
closed = 1;
nodes = (
"445 739 OFFCURVE",
"512 816 OFFCURVE",
"512 916 CURVE SMOOTH",
"512 927 OFFCURVE",
"506 934 OFFCURVE",
"496 934 CURVE SMOOTH",
"367 934 LINE SMOOTH",
"353 934 OFFCURVE",
"350 927 OFFCURVE",
"350 915 CURVE SMOOTH",
"350 891 OFFCURVE",
"335 879 OFFCURVE",
"311 879 CURVE SMOOTH",
"287 879 OFFCURVE",
"272 891 OFFCURVE",
"272 915 CURVE SMOOTH",
"272 927 OFFCURVE",
"269 934 OFFCURVE",
"255 934 CURVE SMOOTH",
"126 934 LINE SMOOTH",
"116 934 OFFCURVE",
"110 927 OFFCURVE",
"110 916 CURVE SMOOTH",
"110 816 OFFCURVE",
"176 739 OFFCURVE",
"311 739 CURVE SMOOTH"
);
}
);
width = 574;
}
);
note = Ebreve;
unicode = 0114;
},
{
glyphname = Ecaron;
lastChange = "2015-07-18 06:03:32 +0000";
layers = (
{
layerId = "14EB8CAA-E485-44FF-8841-EC36E7F264D4";
name = Bold;
paths = (
{
closed = 1;
nodes = (
"508 0 LINE SMOOTH",
"553 0 OFFCURVE",
"563 19 OFFCURVE",
"563 57 CURVE SMOOTH",
"563 113 LINE SMOOTH",
"563 151 OFFCURVE",
"553 170 OFFCURVE",
"508 170 CURVE SMOOTH",
"275 170 LINE",
"275 256 LINE",
"419 256 LINE SMOOTH",
"464 256 OFFCURVE",
"474 275 OFFCURVE",
"474 313 CURVE SMOOTH",
"474 367 LINE SMOOTH",
"474 405 OFFCURVE",
"464 424 OFFCURVE",
"419 424 CURVE SMOOTH",
"275 424 LINE",
"275 510 LINE",
"509 510 LINE SMOOTH",
"554 510 OFFCURVE",
"564 529 OFFCURVE",
"564 567 CURVE SMOOTH",
"564 623 LINE SMOOTH",
"564 661 OFFCURVE",
"554 680 OFFCURVE",
"509 680 CURVE SMOOTH",
"95 680 LINE SMOOTH",
"50 680 OFFCURVE",
"35 661 OFFCURVE",
"35 623 CURVE SMOOTH",
"35 57 LINE SMOOTH",
"35 19 OFFCURVE",
"50 0 OFFCURVE",
"95 0 CURVE SMOOTH"
);
},
{
closed = 1;
nodes = (
"366 748 LINE SMOOTH",
"406 748 OFFCURVE",
"410 755 OFFCURVE",
"427 777 CURVE SMOOTH",
"519 894 LINE SMOOTH",
"545 927 OFFCURVE",
"535 948 OFFCURVE",
"498 948 CURVE SMOOTH",
"409 948 LINE SMOOTH",
"371 948 OFFCURVE",
"360 941 OFFCURVE",
"346 920 CURVE SMOOTH",
"304 855 LINE",
"262 920 LINE SMOOTH",
"248 941 OFFCURVE",
"237 948 OFFCURVE",
"199 948 CURVE SMOOTH",
"110 948 LINE SMOOTH",
"73 948 OFFCURVE",
"63 927 OFFCURVE",
"89 894 CURVE SMOOTH",
"181 777 LINE SMOOTH",
"198 755 OFFCURVE",
"202 748 OFFCURVE",
"242 748 CURVE SMOOTH"
);
}
);
width = 574;
}
);
note = Ecaron;
unicode = 011A;
},
{
glyphname = Ecircumflex;
lastChange = "2015-07-18 06:03:35 +0000";
layers = (
{
layerId = "14EB8CAA-E485-44FF-8841-EC36E7F264D4";
name = Bold;
paths = (
{
closed = 1;
nodes = (
"508 0 LINE SMOOTH",
"553 0 OFFCURVE",
"563 19 OFFCURVE",
"563 57 CURVE SMOOTH",
"563 113 LINE SMOOTH",
"563 151 OFFCURVE",
"553 170 OFFCURVE",
"508 170 CURVE SMOOTH",
"275 170 LINE",
"275 256 LINE",
"419 256 LINE SMOOTH",
"464 256 OFFCURVE",
"474 275 OFFCURVE",
"474 313 CURVE SMOOTH",
"474 367 LINE SMOOTH",
"474 405 OFFCURVE",
"464 424 OFFCURVE",
"419 424 CURVE SMOOTH",
"275 424 LINE",
"275 510 LINE",
"509 510 LINE SMOOTH",
"554 510 OFFCURVE",
"564 529 OFFCURVE",
"564 567 CURVE SMOOTH",
"564 623 LINE SMOOTH",
"564 661 OFFCURVE",
"554 680 OFFCURVE",
"509 680 CURVE SMOOTH",
"95 680 LINE SMOOTH",
"50 680 OFFCURVE",
"35 661 OFFCURVE",
"35 623 CURVE SMOOTH",
"35 57 LINE SMOOTH",
"35 19 OFFCURVE",
"50 0 OFFCURVE",
"95 0 CURVE SMOOTH"
);
},
{
closed = 1;
nodes = (
"195 739 LINE SMOOTH",
"233 739 OFFCURVE",
"244 746 OFFCURVE",
"258 767 CURVE SMOOTH",
"300 832 LINE",
"342 767 LINE SMOOTH",
"356 746 OFFCURVE",
"367 739 OFFCURVE",
"405 739 CURVE SMOOTH",
"494 739 LINE SMOOTH",
"531 739 OFFCURVE",
"541 760 OFFCURVE",
"515 793 CURVE SMOOTH",
"423 910 LINE SMOOTH",
"406 932 OFFCURVE",
"402 939 OFFCURVE",
"362 939 CURVE SMOOTH",
"238 939 LINE SMOOTH",
"198 939 OFFCURVE",
"194 932 OFFCURVE",
"177 910 CURVE SMOOTH",
"85 793 LINE SMOOTH",
"59 760 OFFCURVE",
"69 739 OFFCURVE",
"106 739 CURVE SMOOTH"
);
}
);
width = 574;
}
);
note = Ecircumflex;
unicode = 00CA;
},
{
glyphname = Ecircumflexacute;
lastChange = "2015-07-18 15:30:23 +0000";
layers = (
{
layerId = "14EB8CAA-E485-44FF-8841-EC36E7F264D4";
name = Bold;
paths = (
{
closed = 1;
nodes = (
"508 0 LINE SMOOTH",
"553 0 OFFCURVE",
"563 19 OFFCURVE",
"563 57 CURVE SMOOTH",
"563 113 LINE SMOOTH",
"563 151 OFFCURVE",
"553 170 OFFCURVE",
"508 170 CURVE SMOOTH",
"275 170 LINE",
"275 256 LINE",
"419 256 LINE SMOOTH",
"464 256 OFFCURVE",
"474 275 OFFCURVE",
"474 313 CURVE SMOOTH",
"474 367 LINE SMOOTH",
"474 405 OFFCURVE",
"464 424 OFFCURVE",
"419 424 CURVE SMOOTH",
"275 424 LINE",
"275 510 LINE",
"509 510 LINE SMOOTH",
"554 510 OFFCURVE",
"564 529 OFFCURVE",
"564 567 CURVE SMOOTH",
"564 623 LINE SMOOTH",
"564 661 OFFCURVE",
"554 680 OFFCURVE",
"509 680 CURVE SMOOTH",
"95 680 LINE SMOOTH",
"50 680 OFFCURVE",
"35 661 OFFCURVE",
"35 623 CURVE SMOOTH",
"35 57 LINE SMOOTH",
"35 19 OFFCURVE",
"50 0 OFFCURVE",
"95 0 CURVE SMOOTH"
);
},
{
closed = 1;
nodes = (
"185 718 LINE SMOOTH",
"223 718 OFFCURVE",
"235 725 OFFCURVE",
"248 746 CURVE SMOOTH",
"285 806 LINE",
"322 746 LINE SMOOTH",
"335 725 OFFCURVE",
"347 718 OFFCURVE",
"385 718 CURVE SMOOTH",
"469 718 LINE SMOOTH",
"506 718 OFFCURVE",
"516 739 OFFCURVE",
"490 772 CURVE SMOOTH",
"398 889 LINE SMOOTH",
"381 911 OFFCURVE",
"377 918 OFFCURVE",
"337 918 CURVE SMOOTH",
"233 918 LINE SMOOTH",
"193 918 OFFCURVE",
"189 911 OFFCURVE",
"172 889 CURVE SMOOTH",
"80 772 LINE SMOOTH",
"54 739 OFFCURVE",
"64 718 OFFCURVE",
"101 718 CURVE SMOOTH"
);
},
{
closed = 1;
nodes = (
"494 886 LINE SMOOTH",
"536 886 OFFCURVE",
"543 890 OFFCURVE",
"563 924 CURVE SMOOTH",
"602 990 LINE SMOOTH",
"621 1022 OFFCURVE",
"613 1044 OFFCURVE",
"578 1044 CURVE SMOOTH",
"493 1044 LINE SMOOTH",
"457 1044 OFFCURVE",
"452 1033 OFFCURVE",
"442 1005 CURVE SMOOTH",
"412 924 LINE SMOOTH",
"404 903 OFFCURVE",
"415 886 OFFCURVE",
"443 886 CURVE SMOOTH"
);
}
);
width = 584;
}
);
note = Ecircumflexacute;
unicode = 1EBE;
},
{
glyphname = Ecircumflexdotbelow;
lastChange = "2015-07-18 06:03:42 +0000";
layers = (
{
layerId = "14EB8CAA-E485-44FF-8841-EC36E7F264D4";
name = Bold;
paths = (
{
closed = 1;
nodes = (
"508 0 LINE SMOOTH",
"553 0 OFFCURVE",
"563 19 OFFCURVE",
"563 57 CURVE SMOOTH",
"563 113 LINE SMOOTH",
"563 151 OFFCURVE",
"553 170 OFFCURVE",
"508 170 CURVE SMOOTH",
"275 170 LINE",
"275 256 LINE",
"419 256 LINE SMOOTH",
"464 256 OFFCURVE",
"474 275 OFFCURVE",
"474 313 CURVE SMOOTH",
"474 367 LINE SMOOTH",
"474 405 OFFCURVE",
"464 424 OFFCURVE",
"419 424 CURVE SMOOTH",
"275 424 LINE",
"275 510 LINE",
"509 510 LINE SMOOTH",
"554 510 OFFCURVE",
"564 529 OFFCURVE",
"564 567 CURVE SMOOTH",
"564 623 LINE SMOOTH",
"564 661 OFFCURVE",
"554 680 OFFCURVE",
"509 680 CURVE SMOOTH",
"95 680 LINE SMOOTH",
"50 680 OFFCURVE",
"35 661 OFFCURVE",
"35 623 CURVE SMOOTH",
"35 57 LINE SMOOTH",
"35 19 OFFCURVE",
"50 0 OFFCURVE",
"95 0 CURVE SMOOTH"
);
},
{
closed = 1;
nodes = (
"316 -217 LINE SMOOTH",
"357 -217 OFFCURVE",
"384 -184 OFFCURVE",
"384 -146 CURVE SMOOTH",
"384 -117 LINE SMOOTH",
"384 -77 OFFCURVE",
"356 -46 OFFCURVE",
"316 -46 CURVE SMOOTH",
"286 -46 LINE SMOOTH",
"246 -46 OFFCURVE",
"218 -77 OFFCURVE",
"218 -117 CURVE SMOOTH",
"218 -146 LINE SMOOTH",
"218 -184 OFFCURVE",
"246 -217 OFFCURVE",
"286 -217 CURVE SMOOTH"
);
},
{
closed = 1;
nodes = (
"189 727 LINE SMOOTH",
"227 727 OFFCURVE",
"238 734 OFFCURVE",
"252 755 CURVE SMOOTH",
"294 820 LINE",
"336 755 LINE SMOOTH",
"350 734 OFFCURVE",
"361 727 OFFCURVE",
"399 727 CURVE SMOOTH",
"488 727 LINE SMOOTH",
"525 727 OFFCURVE",
"535 748 OFFCURVE",
"509 781 CURVE SMOOTH",
"417 898 LINE SMOOTH",
"400 920 OFFCURVE",
"396 927 OFFCURVE",
"356 927 CURVE SMOOTH",
"232 927 LINE SMOOTH",
"192 927 OFFCURVE",
"188 920 OFFCURVE",
"171 898 CURVE SMOOTH",
"79 781 LINE SMOOTH",
"53 748 OFFCURVE",
"63 727 OFFCURVE",
"100 727 CURVE SMOOTH"
);
}
);
width = 574;
}
);
note = Ecircumflexdotbelow;
unicode = 1EC6;
},
{
glyphname = Ecircumflexgrave;
lastChange = "2015-07-18 06:03:52 +0000";
layers = (
{
layerId = "14EB8CAA-E485-44FF-8841-EC36E7F264D4";
name = Bold;
paths = (
{
closed = 1;
nodes = (
"508 0 LINE SMOOTH",
"553 0 OFFCURVE",
"563 19 OFFCURVE",
"563 57 CURVE SMOOTH",
"563 113 LINE SMOOTH",
"563 151 OFFCURVE",
"553 170 OFFCURVE",
"508 170 CURVE SMOOTH",
"275 170 LINE",
"275 256 LINE",
"419 256 LINE SMOOTH",
"464 256 OFFCURVE",
"474 275 OFFCURVE",
"474 313 CURVE SMOOTH",
"474 367 LINE SMOOTH",
"474 405 OFFCURVE",
"464 424 OFFCURVE",
"419 424 CURVE SMOOTH",
"275 424 LINE",
"275 510 LINE",
"509 510 LINE SMOOTH",
"554 510 OFFCURVE",
"564 529 OFFCURVE",
"564 567 CURVE SMOOTH",
"564 623 LINE SMOOTH",
"564 661 OFFCURVE",
"554 680 OFFCURVE",
"509 680 CURVE SMOOTH",
"95 680 LINE SMOOTH",
"50 680 OFFCURVE",
"35 661 OFFCURVE",
"35 623 CURVE SMOOTH",
"35 57 LINE SMOOTH",
"35 19 OFFCURVE",
"50 0 OFFCURVE",
"95 0 CURVE SMOOTH"
);
},
{
closed = 1;
nodes = (
"160 886 LINE SMOOTH",
"188 886 OFFCURVE",
"199 903 OFFCURVE",
"191 924 CURVE SMOOTH",
"161 1005 LINE SMOOTH",
"151 1033 OFFCURVE",
"146 1044 OFFCURVE",
"110 1044 CURVE SMOOTH",
"25 1044 LINE SMOOTH",
"-10 1044 OFFCURVE",
"-18 1022 OFFCURVE",
"1 990 CURVE SMOOTH",
"40 924 LINE SMOOTH",
"60 890 OFFCURVE",
"67 886 OFFCURVE",
"109 886 CURVE SMOOTH"
);
},
{
closed = 1;
nodes = (
"218 718 LINE SMOOTH",
"256 718 OFFCURVE",
"268 725 OFFCURVE",
"281 746 CURVE SMOOTH",
"318 806 LINE",
"355 746 LINE SMOOTH",
"368 725 OFFCURVE",
"380 718 OFFCURVE",
"418 718 CURVE SMOOTH",
"502 718 LINE SMOOTH",
"539 718 OFFCURVE",
"549 739 OFFCURVE",
"523 772 CURVE SMOOTH",
"431 889 LINE SMOOTH",
"414 911 OFFCURVE",
"410 918 OFFCURVE",
"370 918 CURVE SMOOTH",
"266 918 LINE SMOOTH",
"226 918 OFFCURVE",
"222 911 OFFCURVE",
"205 889 CURVE SMOOTH",
"113 772 LINE SMOOTH",
"87 739 OFFCURVE",
"97 718 OFFCURVE",
"134 718 CURVE SMOOTH"
);
}
);
width = 574;
}
);
note = Ecircumflexgrave;
unicode = 1EC0;
},
{
glyphname = Ecircumflexhookabove;
lastChange = "2015-07-18 15:30:38 +0000";
layers = (
{
layerId = "14EB8CAA-E485-44FF-8841-EC36E7F264D4";
name = Bold;
paths = (
{
closed = 1;
nodes = (
"508 0 LINE SMOOTH",
"553 0 OFFCURVE",
"563 19 OFFCURVE",
"563 57 CURVE SMOOTH",
"563 113 LINE SMOOTH",
"563 151 OFFCURVE",
"553 170 OFFCURVE",
"508 170 CURVE SMOOTH",
"275 170 LINE",
"275 256 LINE",
"419 256 LINE SMOOTH",
"464 256 OFFCURVE",
"474 275 OFFCURVE",
"474 313 CURVE SMOOTH",
"474 367 LINE SMOOTH",
"474 405 OFFCURVE",
"464 424 OFFCURVE",
"419 424 CURVE SMOOTH",
"275 424 LINE",
"275 510 LINE",
"509 510 LINE SMOOTH",
"554 510 OFFCURVE",
"564 529 OFFCURVE",
"564 567 CURVE SMOOTH",
"564 623 LINE SMOOTH",
"564 661 OFFCURVE",
"554 680 OFFCURVE",
"509 680 CURVE SMOOTH",
"95 680 LINE SMOOTH",
"50 680 OFFCURVE",
"35 661 OFFCURVE",
"35 623 CURVE SMOOTH",
"35 57 LINE SMOOTH",
"35 19 OFFCURVE",
"50 0 OFFCURVE",
"95 0 CURVE SMOOTH"
);
},
{
closed = 1;
nodes = (
"198 718 LINE SMOOTH",
"236 718 OFFCURVE",
"248 725 OFFCURVE",
"261 746 CURVE SMOOTH",
"298 806 LINE",
"335 746 LINE SMOOTH",
"348 725 OFFCURVE",
"360 718 OFFCURVE",
"398 718 CURVE SMOOTH",
"482 718 LINE SMOOTH",
"519 718 OFFCURVE",
"529 739 OFFCURVE",
"503 772 CURVE SMOOTH",
"411 889 LINE SMOOTH",
"394 911 OFFCURVE",
"390 918 OFFCURVE",
"350 918 CURVE SMOOTH",
"246 918 LINE SMOOTH",
"206 918 OFFCURVE",
"202 911 OFFCURVE",
"185 889 CURVE SMOOTH",
"93 772 LINE SMOOTH",
"67 739 OFFCURVE",
"77 718 OFFCURVE",
"114 718 CURVE SMOOTH"
);
},
{
closed = 1;
nodes = (
"520 873 LINE SMOOTH",
"531 873 OFFCURVE",
"536 879 OFFCURVE",
"536 889 CURVE SMOOTH",
"536 904 LINE",
"570 904 OFFCURVE",
"598 928 OFFCURVE",
"598 969 CURVE SMOOTH",
"598 1019 OFFCURVE",
"568 1045 OFFCURVE",
"495 1045 CURVE SMOOTH",
"458 1045 OFFCURVE",
"420 1037 OFFCURVE",
"394 1023 CURVE SMOOTH",
"388 1020 OFFCURVE",
"389 1016 OFFCURVE",
"391 1012 CURVE SMOOTH",
"413 964 LINE SMOOTH",
"415 960 OFFCURVE",
"418 960 OFFCURVE",
"421 962 CURVE",
"433 969 OFFCURVE",
"449 974 OFFCURVE",
"466 974 CURVE SMOOTH",
"479 974 OFFCURVE",
"484 970 OFFCURVE",
"484 962 CURVE SMOOTH",
"484 951 OFFCURVE",
"474 948 OFFCURVE",
"455 948 CURVE SMOOTH",
"435 948 OFFCURVE",
"430 942 OFFCURVE",
"430 926 CURVE SMOOTH",
"430 889 LINE SMOOTH",
"430 879 OFFCURVE",
"435 873 OFFCURVE",
"446 873 CURVE SMOOTH"
);
}
);
width = 588;
}
);
note = Ecircumflexhookabove;
unicode = 1EC2;
},
{
glyphname = Ecircumflextilde;
lastChange = "2015-07-18 05:53:06 +0000";
layers = (
{
layerId = "14EB8CAA-E485-44FF-8841-EC36E7F264D4";
name = Bold;
paths = (
{
closed = 1;
nodes = (
"508 0 LINE SMOOTH",
"553 0 OFFCURVE",
"563 19 OFFCURVE",
"563 57 CURVE SMOOTH",
"563 113 LINE SMOOTH",
"563 151 OFFCURVE",
"553 170 OFFCURVE",
"508 170 CURVE SMOOTH",
"275 170 LINE",
"275 256 LINE",
"419 256 LINE SMOOTH",
"464 256 OFFCURVE",
"474 275 OFFCURVE",
"474 313 CURVE SMOOTH",
"474 367 LINE SMOOTH",
"474 405 OFFCURVE",
"464 424 OFFCURVE",
"419 424 CURVE SMOOTH",
"275 424 LINE",
"275 510 LINE",
"509 510 LINE SMOOTH",
"554 510 OFFCURVE",
"564 529 OFFCURVE",
"564 567 CURVE SMOOTH",
"564 623 LINE SMOOTH",
"564 661 OFFCURVE",
"554 680 OFFCURVE",
"509 680 CURVE SMOOTH",
"95 680 LINE SMOOTH",
"50 680 OFFCURVE",
"35 661 OFFCURVE",
"35 623 CURVE SMOOTH",
"35 57 LINE SMOOTH",
"35 19 OFFCURVE",
"50 0 OFFCURVE",
"95 0 CURVE SMOOTH"
);
},
{
closed = 1;
nodes = (
"216 718 LINE SMOOTH",
"254 718 OFFCURVE",
"264 726 OFFCURVE",
"279 746 CURVE SMOOTH",
"316 796 LINE",
"353 746 LINE SMOOTH",
"368 726 OFFCURVE",
"378 718 OFFCURVE",
"416 718 CURVE SMOOTH",
"500 718 LINE SMOOTH",
"537 718 OFFCURVE",
"548 740 OFFCURVE",
"521 772 CURVE SMOOTH",
"429 879 LINE SMOOTH",
"411 900 OFFCURVE",
"408 908 OFFCURVE",
"368 908 CURVE SMOOTH",
"264 908 LINE SMOOTH",
"224 908 OFFCURVE",
"221 900 OFFCURVE",
"203 879 CURVE SMOOTH",
"111 772 LINE SMOOTH",
"84 740 OFFCURVE",
"95 718 OFFCURVE",
"132 718 CURVE SMOOTH"
);
},
{
closed = 1;
nodes = (
"467 918 OFFCURVE",
"490 931 OFFCURVE",
"522 973 CURVE SMOOTH",
"549 1007 OFFCURVE",
"538 1019 OFFCURVE",
"500 1047 CURVE SMOOTH",
"460 1077 OFFCURVE",
"448 1078 OFFCURVE",
"429 1056 CURVE SMOOTH",
"412 1036 OFFCURVE",
"400 1029 OFFCURVE",
"375 1029 CURVE SMOOTH",
"344 1029 OFFCURVE",
"310 1064 OFFCURVE",
"247 1064 CURVE SMOOTH",
"195 1064 OFFCURVE",
"156 1047 OFFCURVE",
"118 999 CURVE SMOOTH",
"97 973 OFFCURVE",
"99 964 OFFCURVE",
"140 933 CURVE SMOOTH",
"183 901 OFFCURVE",
"190 904 OFFCURVE",
"217 931 CURVE SMOOTH",
"236 950 OFFCURVE",
"249 952 OFFCURVE",
"272 952 CURVE SMOOTH",
"303 952 OFFCURVE",
"352 918 OFFCURVE",
"408 918 CURVE SMOOTH"
);
}
);
width = 579;
}
);
note = Ecircumflextilde;
unicode = 1EC4;
},
{
glyphname = Edieresis;
lastChange = "2015-07-18 05:53:06 +0000";
layers = (
{
layerId = "14EB8CAA-E485-44FF-8841-EC36E7F264D4";
name = Bold;
paths = (
{
closed = 1;
nodes = (
"508 0 LINE SMOOTH",
"553 0 OFFCURVE",
"563 19 OFFCURVE",
"563 57 CURVE SMOOTH",
"563 113 LINE SMOOTH",
"563 151 OFFCURVE",
"553 170 OFFCURVE",
"508 170 CURVE SMOOTH",
"275 170 LINE",
"275 256 LINE",
"419 256 LINE SMOOTH",
"464 256 OFFCURVE",
"474 275 OFFCURVE",
"474 313 CURVE SMOOTH",
"474 367 LINE SMOOTH",
"474 405 OFFCURVE",
"464 424 OFFCURVE",
"419 424 CURVE SMOOTH",
"275 424 LINE",
"275 510 LINE",
"509 510 LINE SMOOTH",
"554 510 OFFCURVE",
"564 529 OFFCURVE",
"564 567 CURVE SMOOTH",
"564 623 LINE SMOOTH",
"564 661 OFFCURVE",
"554 680 OFFCURVE",
"509 680 CURVE SMOOTH",
"95 680 LINE SMOOTH",
"50 680 OFFCURVE",
"35 661 OFFCURVE",
"35 623 CURVE SMOOTH",
"35 57 LINE SMOOTH",
"35 19 OFFCURVE",
"50 0 OFFCURVE",
"95 0 CURVE SMOOTH"
);
},
{
closed = 1;
nodes = (
"201 711 LINE SMOOTH",
"242 711 OFFCURVE",
"269 744 OFFCURVE",
"269 782 CURVE SMOOTH",
"269 811 LINE SMOOTH",
"269 851 OFFCURVE",
"241 882 OFFCURVE",
"201 882 CURVE SMOOTH",
"171 882 LINE SMOOTH",
"131 882 OFFCURVE",
"103 851 OFFCURVE",
"103 811 CURVE SMOOTH",
"103 782 LINE SMOOTH",
"103 744 OFFCURVE",
"131 711 OFFCURVE",
"171 711 CURVE SMOOTH"
);
},
{
closed = 1;
nodes = (
"424 711 LINE SMOOTH",
"465 711 OFFCURVE",
"492 744 OFFCURVE",
"492 782 CURVE SMOOTH",
"492 811 LINE SMOOTH",
"492 851 OFFCURVE",
"464 882 OFFCURVE",
"424 882 CURVE SMOOTH",
"394 882 LINE SMOOTH",
"354 882 OFFCURVE",
"326 851 OFFCURVE",
"326 811 CURVE SMOOTH",
"326 782 LINE SMOOTH",
"326 744 OFFCURVE",
"354 711 OFFCURVE",
"394 711 CURVE SMOOTH"
);
}
);
width = 579;
}
);
note = Edieresis;
unicode = 00CB;
},
{
glyphname = Edotaccent;
lastChange = "2015-07-18 05:53:07 +0000";
layers = (
{
layerId = "14EB8CAA-E485-44FF-8841-EC36E7F264D4";
name = Bold;
paths = (
{
closed = 1;
nodes = (
"508 0 LINE SMOOTH",
"553 0 OFFCURVE",
"563 19 OFFCURVE",
"563 57 CURVE SMOOTH",
"563 113 LINE SMOOTH",
"563 151 OFFCURVE",
"553 170 OFFCURVE",
"508 170 CURVE SMOOTH",
"275 170 LINE",
"275 256 LINE",
"419 256 LINE SMOOTH",
"464 256 OFFCURVE",
"474 275 OFFCURVE",
"474 313 CURVE SMOOTH",
"474 367 LINE SMOOTH",
"474 405 OFFCURVE",
"464 424 OFFCURVE",
"419 424 CURVE SMOOTH",
"275 424 LINE",
"275 510 LINE",
"509 510 LINE SMOOTH",
"554 510 OFFCURVE",
"564 529 OFFCURVE",
"564 567 CURVE SMOOTH",
"564 623 LINE SMOOTH",
"564 661 OFFCURVE",
"554 680 OFFCURVE",
"509 680 CURVE SMOOTH",
"95 680 LINE SMOOTH",
"50 680 OFFCURVE",
"35 661 OFFCURVE",
"35 623 CURVE SMOOTH",
"35 57 LINE SMOOTH",
"35 19 OFFCURVE",
"50 0 OFFCURVE",
"95 0 CURVE SMOOTH"
);
},
{
closed = 1;
nodes = (
"321 741 LINE SMOOTH",
"362 741 OFFCURVE",
"389 774 OFFCURVE",
"389 812 CURVE SMOOTH",
"389 841 LINE SMOOTH",
"389 881 OFFCURVE",
"361 912 OFFCURVE",
"321 912 CURVE SMOOTH",
"291 912 LINE SMOOTH",
"251 912 OFFCURVE",
"223 881 OFFCURVE",
"223 841 CURVE SMOOTH",
"223 812 LINE SMOOTH",
"223 774 OFFCURVE",
"251 741 OFFCURVE",
"291 741 CURVE SMOOTH"
);
}
);
width = 579;
}
);
note = Edotaccent;
unicode = 0116;
},
{
glyphname = Edotbelow;
lastChange = "2015-07-18 05:53:07 +0000";
layers = (
{
layerId = "14EB8CAA-E485-44FF-8841-EC36E7F264D4";
name = Bold;
paths = (
{
closed = 1;
nodes = (
"508 0 LINE SMOOTH",
"553 0 OFFCURVE",
"563 19 OFFCURVE",
"563 57 CURVE SMOOTH",
"563 113 LINE SMOOTH",
"563 151 OFFCURVE",
"553 170 OFFCURVE",
"508 170 CURVE SMOOTH",
"275 170 LINE",
"275 256 LINE",
"419 256 LINE SMOOTH",
"464 256 OFFCURVE",
"474 275 OFFCURVE",
"474 313 CURVE SMOOTH",
"474 367 LINE SMOOTH",
"474 405 OFFCURVE",
"464 424 OFFCURVE",
"419 424 CURVE SMOOTH",
"275 424 LINE",
"275 510 LINE",
"509 510 LINE SMOOTH",
"554 510 OFFCURVE",
"564 529 OFFCURVE",
"564 567 CURVE SMOOTH",
"564 623 LINE SMOOTH",
"564 661 OFFCURVE",
"554 680 OFFCURVE",
"509 680 CURVE SMOOTH",
"95 680 LINE SMOOTH",
"50 680 OFFCURVE",
"35 661 OFFCURVE",
"35 623 CURVE SMOOTH",
"35 57 LINE SMOOTH",
"35 19 OFFCURVE",
"50 0 OFFCURVE",
"95 0 CURVE SMOOTH"
);
},
{
closed = 1;
nodes = (
"305 -217 LINE SMOOTH",
"346 -217 OFFCURVE",
"373 -184 OFFCURVE",
"373 -146 CURVE SMOOTH",
"373 -117 LINE SMOOTH",
"373 -77 OFFCURVE",
"345 -46 OFFCURVE",
"305 -46 CURVE SMOOTH",
"275 -46 LINE SMOOTH",
"235 -46 OFFCURVE",
"207 -77 OFFCURVE",
"207 -117 CURVE SMOOTH",
"207 -146 LINE SMOOTH",
"207 -184 OFFCURVE",
"235 -217 OFFCURVE",
"275 -217 CURVE SMOOTH"
);
}
);
width = 579;
}
);
note = Edotbelow;
unicode = 1EB8;
},
{
glyphname = Egrave;
lastChange = "2015-07-18 05:53:06 +0000";
layers = (
{
layerId = "14EB8CAA-E485-44FF-8841-EC36E7F264D4";
name = Bold;
paths = (
{
closed = 1;
nodes = (
"508 0 LINE SMOOTH",
"553 0 OFFCURVE",
"563 19 OFFCURVE",
"563 57 CURVE SMOOTH",
"563 113 LINE SMOOTH",
"563 151 OFFCURVE",
"553 170 OFFCURVE",
"508 170 CURVE SMOOTH",
"275 170 LINE",
"275 256 LINE",
"419 256 LINE SMOOTH",
"464 256 OFFCURVE",
"474 275 OFFCURVE",
"474 313 CURVE SMOOTH",
"474 367 LINE SMOOTH",
"474 405 OFFCURVE",
"464 424 OFFCURVE",
"419 424 CURVE SMOOTH",
"275 424 LINE",
"275 510 LINE",
"509 510 LINE SMOOTH",
"554 510 OFFCURVE",
"564 529 OFFCURVE",
"564 567 CURVE SMOOTH",
"564 623 LINE SMOOTH",
"564 661 OFFCURVE",
"554 680 OFFCURVE",
"509 680 CURVE SMOOTH",
"95 680 LINE SMOOTH",
"50 680 OFFCURVE",
"35 661 OFFCURVE",
"35 623 CURVE SMOOTH",
"35 57 LINE SMOOTH",
"35 19 OFFCURVE",
"50 0 OFFCURVE",
"95 0 CURVE SMOOTH"
);
},
{
closed = 1;
nodes = (
"388 736 LINE SMOOTH",
"425 736 OFFCURVE",
"435 755 OFFCURVE",
"425 781 CURVE SMOOTH",
"383 897 LINE SMOOTH",
"373 926 OFFCURVE",
"366 936 OFFCURVE",
"323 936 CURVE SMOOTH",
"180 936 LINE SMOOTH",
"143 936 OFFCURVE",
"122 918 OFFCURVE",
"143 882 CURVE SMOOTH",
"207 774 LINE SMOOTH",
"225 744 OFFCURVE",
"233 736 OFFCURVE",
"281 736 CURVE SMOOTH"
);
}
);
width = 579;
}
);
note = Egrave;
unicode = 00C8;
},
{
glyphname = Ehookabove;
lastChange = "2015-07-18 05:53:06 +0000";
layers = (
{
layerId = "14EB8CAA-E485-44FF-8841-EC36E7F264D4";
name = Bold;
paths = (
{
closed = 1;
nodes = (
"508 0 LINE SMOOTH",
"553 0 OFFCURVE",
"563 19 OFFCURVE",
"563 57 CURVE SMOOTH",
"563 113 LINE SMOOTH",
"563 151 OFFCURVE",
"553 170 OFFCURVE",
"508 170 CURVE SMOOTH",
"275 170 LINE",
"275 256 LINE",
"419 256 LINE SMOOTH",
"464 256 OFFCURVE",
"474 275 OFFCURVE",
"474 313 CURVE SMOOTH",
"474 367 LINE SMOOTH",
"474 405 OFFCURVE",
"464 424 OFFCURVE",
"419 424 CURVE SMOOTH",
"275 424 LINE",
"275 510 LINE",
"509 510 LINE SMOOTH",
"554 510 OFFCURVE",
"564 529 OFFCURVE",
"564 567 CURVE SMOOTH",
"564 623 LINE SMOOTH",
"564 661 OFFCURVE",
"554 680 OFFCURVE",
"509 680 CURVE SMOOTH",
"95 680 LINE SMOOTH",
"50 680 OFFCURVE",
"35 661 OFFCURVE",
"35 623 CURVE SMOOTH",
"35 57 LINE SMOOTH",
"35 19 OFFCURVE",
"50 0 OFFCURVE",
"95 0 CURVE SMOOTH"
);
},
{
closed = 1;
nodes = (
"316 724 LINE SMOOTH",
"332 724 OFFCURVE",
"339 732 OFFCURVE",
"339 747 CURVE SMOOTH",
"339 760 LINE",
"389 760 OFFCURVE",
"428 799 OFFCURVE",
"428 863 CURVE SMOOTH",
"428 936 OFFCURVE",
"379 975 OFFCURVE",
"281 975 CURVE SMOOTH",
"238 975 OFFCURVE",
"181 963 OFFCURVE",
"150 943 CURVE",
"143 938 OFFCURVE",
"143 933 OFFCURVE",
"146 927 CURVE",
"177 856 LINE",
"180 850 OFFCURVE",
"184 850 OFFCURVE",
"189 852 CURVE",
"209 861 OFFCURVE",
"229 870 OFFCURVE",
"253 870 CURVE SMOOTH",
"272 870 OFFCURVE",
"280 865 OFFCURVE",
"280 853 CURVE SMOOTH",
"280 837 OFFCURVE",
"264 833 OFFCURVE",
"237 833 CURVE SMOOTH",
"205 833 OFFCURVE",
"200 824 OFFCURVE",
"200 802 CURVE SMOOTH",
"200 747 LINE SMOOTH",
"200 732 OFFCURVE",
"207 724 OFFCURVE",
"223 724 CURVE SMOOTH"
);
}
);
width = 579;
}
);
note = Ehookabove;
unicode = 1EBA;
},
{
glyphname = Emacron;
lastChange = "2015-07-18 05:53:05 +0000";
layers = (
{
layerId = "14EB8CAA-E485-44FF-8841-EC36E7F264D4";
name = Bold;
paths = (
{
closed = 1;
nodes = (
"508 0 LINE SMOOTH",
"553 0 OFFCURVE",
"563 19 OFFCURVE",
"563 57 CURVE SMOOTH",
"563 113 LINE SMOOTH",
"563 151 OFFCURVE",
"553 170 OFFCURVE",
"508 170 CURVE SMOOTH",
"275 170 LINE",
"275 256 LINE",
"419 256 LINE SMOOTH",
"464 256 OFFCURVE",
"474 275 OFFCURVE",
"474 313 CURVE SMOOTH",
"474 367 LINE SMOOTH",
"474 405 OFFCURVE",
"464 424 OFFCURVE",
"419 424 CURVE SMOOTH",
"275 424 LINE",
"275 510 LINE",
"509 510 LINE SMOOTH",
"554 510 OFFCURVE",
"564 529 OFFCURVE",
"564 567 CURVE SMOOTH",
"564 623 LINE SMOOTH",
"564 661 OFFCURVE",
"554 680 OFFCURVE",
"509 680 CURVE SMOOTH",
"95 680 LINE SMOOTH",
"50 680 OFFCURVE",
"35 661 OFFCURVE",
"35 623 CURVE SMOOTH",
"35 57 LINE SMOOTH",
"35 19 OFFCURVE",
"50 0 OFFCURVE",
"95 0 CURVE SMOOTH"
);
},
{
closed = 1;
nodes = (
"422 742 LINE SMOOTH",
"467 742 OFFCURVE",
"477 761 OFFCURVE",
"477 799 CURVE SMOOTH",
"477 855 LINE SMOOTH",
"477 893 OFFCURVE",
"467 912 OFFCURVE",
"422 912 CURVE SMOOTH",
"155 912 LINE SMOOTH",
"110 912 OFFCURVE",
"100 893 OFFCURVE",
"100 855 CURVE SMOOTH",
"100 799 LINE SMOOTH",
"100 761 OFFCURVE",
"110 742 OFFCURVE",
"155 742 CURVE SMOOTH"
);
}
);
width = 579;
}
);
note = Emacron;
unicode = 0112;
},
{
glyphname = Eogonek;
lastChange = "2015-07-18 05:53:06 +0000";
layers = (
{
layerId = "14EB8CAA-E485-44FF-8841-EC36E7F264D4";
name = Bold;
paths = (
{
closed = 1;
nodes = (
"508 0 LINE SMOOTH",
"553 0 OFFCURVE",
"563 19 OFFCURVE",
"563 57 CURVE SMOOTH",
"563 113 LINE SMOOTH",
"563 151 OFFCURVE",
"553 170 OFFCURVE",
"508 170 CURVE SMOOTH",
"275 170 LINE",
"275 256 LINE",
"419 256 LINE SMOOTH",
"464 256 OFFCURVE",
"474 275 OFFCURVE",
"474 313 CURVE SMOOTH",
"474 367 LINE SMOOTH",
"474 405 OFFCURVE",
"464 424 OFFCURVE",
"419 424 CURVE SMOOTH",
"275 424 LINE",
"275 510 LINE",
"509 510 LINE SMOOTH",
"554 510 OFFCURVE",
"564 529 OFFCURVE",
"564 567 CURVE SMOOTH",
"564 623 LINE SMOOTH",
"564 661 OFFCURVE",
"554 680 OFFCURVE",
"509 680 CURVE SMOOTH",
"95 680 LINE SMOOTH",
"50 680 OFFCURVE",
"35 661 OFFCURVE",
"35 623 CURVE SMOOTH",
"35 57 LINE SMOOTH",
"35 19 OFFCURVE",
"50 0 OFFCURVE",
"95 0 CURVE SMOOTH"
);
},
{
closed = 1;
nodes = (
"453 -225 OFFCURVE",
"489 -220 OFFCURVE",
"518 -207 CURVE SMOOTH",
"531 -201 OFFCURVE",
"531 -197 OFFCURVE",
"528 -190 CURVE",
"504 -139 LINE SMOOTH",
"500 -130 OFFCURVE",
"497 -131 OFFCURVE",
"490 -134 CURVE",
"484 -137 OFFCURVE",
"477 -138 OFFCURVE",
"468 -138 CURVE SMOOTH",
"453 -138 OFFCURVE",
"444 -128 OFFCURVE",
"444 -111 CURVE SMOOTH",
"444 -82 OFFCURVE",
"461 -67 OFFCURVE",
"507 -11 CURVE SMOOTH",
"514 -3 OFFCURVE",
"509 5 OFFCURVE",
"497 5 CURVE SMOOTH",
"381 5 LINE SMOOTH",
"368 5 OFFCURVE",
"364 1 OFFCURVE",
"356 -8 CURVE SMOOTH",
"312 -58 OFFCURVE",
"295 -95 OFFCURVE",
"295 -131 CURVE SMOOTH",
"295 -182 OFFCURVE",
"326 -225 OFFCURVE",
"403 -225 CURVE SMOOTH"
);
}
);
width = 579;
}
);
note = Eogonek;
unicode = 0118;
},
{
glyphname = Etilde;
lastChange = "2015-07-18 15:43:14 +0000";
layers = (
{
layerId = "14EB8CAA-E485-44FF-8841-EC36E7F264D4";
name = Bold;
paths = (
{
closed = 1;
nodes = (
"508 0 LINE SMOOTH",
"553 0 OFFCURVE",
"563 19 OFFCURVE",
"563 57 CURVE SMOOTH",
"563 113 LINE SMOOTH",
"563 151 OFFCURVE",
"553 170 OFFCURVE",
"508 170 CURVE SMOOTH",
"275 170 LINE",
"275 256 LINE",
"419 256 LINE SMOOTH",
"464 256 OFFCURVE",
"474 275 OFFCURVE",
"474 313 CURVE SMOOTH",
"474 367 LINE SMOOTH",
"474 405 OFFCURVE",
"464 424 OFFCURVE",
"419 424 CURVE SMOOTH",
"275 424 LINE",
"275 510 LINE",
"509 510 LINE SMOOTH",
"554 510 OFFCURVE",
"564 529 OFFCURVE",
"564 567 CURVE SMOOTH",
"564 623 LINE SMOOTH",
"564 661 OFFCURVE",
"554 680 OFFCURVE",
"509 680 CURVE SMOOTH",
"95 680 LINE SMOOTH",
"50 680 OFFCURVE",
"35 661 OFFCURVE",
"35 623 CURVE SMOOTH",
"35 57 LINE SMOOTH",
"35 19 OFFCURVE",
"50 0 OFFCURVE",
"95 0 CURVE SMOOTH"
);
},
{
closed = 1;
nodes = (
"485 717 OFFCURVE",
"518 746 OFFCURVE",
"560 807 CURVE SMOOTH",
"585 843 OFFCURVE",
"581 860 OFFCURVE",
"538 892 CURVE SMOOTH",
"494 925 OFFCURVE",
"471 933 OFFCURVE",
"452 910 CURVE SMOOTH",
"432 886 OFFCURVE",
"422 877 OFFCURVE",
"399 877 CURVE SMOOTH",
"356 877 OFFCURVE",
"321 926 OFFCURVE",
"243 926 CURVE SMOOTH",
"182 926 OFFCURVE",
"149 895 OFFCURVE",
"107 834 CURVE SMOOTH",
"82 798 OFFCURVE",
"88 783 OFFCURVE",
"131 751 CURVE SMOOTH",
"175 718 OFFCURVE",
"198 710 OFFCURVE",
"217 733 CURVE SMOOTH",
"237 757 OFFCURVE",
"250 766 OFFCURVE",
"274 766 CURVE SMOOTH",
"323 766 OFFCURVE",
"363 717 OFFCURVE",
"424 717 CURVE SMOOTH"
);
}
);
width = 579;
}
);
note = Etilde;
unicode = 1EBC;
},
{
glyphname = F;
lastChange = "2015-07-18 06:04:13 +0000";
layers = (
{
layerId = "14EB8CAA-E485-44FF-8841-EC36E7F264D4";
name = Bold;
paths = (
{
closed = 1;
nodes = (
"214 0 LINE SMOOTH",
"260 0 OFFCURVE",
"275 19 OFFCURVE",
"275 57 CURVE SMOOTH",
"275 255 LINE",
"419 255 LINE SMOOTH",
"464 255 OFFCURVE",
"474 274 OFFCURVE",
"474 312 CURVE SMOOTH",
"474 368 LINE SMOOTH",
"474 406 OFFCURVE",
"464 425 OFFCURVE",
"419 425 CURVE SMOOTH",
"275 425 LINE",
"275 510 LINE",
"509 510 LINE SMOOTH",
"554 510 OFFCURVE",
"564 529 OFFCURVE",
"564 567 CURVE SMOOTH",
"564 623 LINE SMOOTH",
"564 661 OFFCURVE",
"554 680 OFFCURVE",
"509 680 CURVE SMOOTH",
"95 680 LINE SMOOTH",
"50 680 OFFCURVE",
"35 661 OFFCURVE",
"35 623 CURVE SMOOTH",
"35 57 LINE SMOOTH",
"35 19 OFFCURVE",
"50 0 OFFCURVE",
"95 0 CURVE SMOOTH"
);
}
);
width = 564;
}
);
note = F;
unicode = 0046;
},
{
glyphname = G;
lastChange = "2015-07-18 05:53:02 +0000";
layers = (
{
layerId = "14EB8CAA-E485-44FF-8841-EC36E7F264D4";
name = Bold;
paths = (
{
closed = 1;
nodes = (
"524 -15 OFFCURVE",
"609 13 OFFCURVE",
"666 54 CURVE SMOOTH",
"688 70 OFFCURVE",
"693 83 OFFCURVE",
"693 111 CURVE SMOOTH",
"693 345 LINE SMOOTH",
"693 393 OFFCURVE",
"678 418 OFFCURVE",
"624 418 CURVE SMOOTH",
"409 418 LINE SMOOTH",
"364 418 OFFCURVE",
"354 401 OFFCURVE",
"354 363 CURVE SMOOTH",
"354 308 LINE SMOOTH",
"354 270 OFFCURVE",
"364 253 OFFCURVE",
"409 253 CURVE SMOOTH",
"473 253 LINE",
"473 162 LINE",
"459 158 OFFCURVE",
"432 154 OFFCURVE",
"413 154 CURVE SMOOTH",
"309 154 OFFCURVE",
"254 212 OFFCURVE",
"254 340 CURVE SMOOTH",
"254 466 OFFCURVE",
"324 527 OFFCURVE",
"432 527 CURVE SMOOTH",
"492 527 OFFCURVE",
"532 513 OFFCURVE",
"564 497 CURVE SMOOTH",
"584 487 OFFCURVE",
"594 483 OFFCURVE",
"606 503 CURVE SMOOTH",
"656 589 LINE SMOOTH",
"666 607 OFFCURVE",
"670 622 OFFCURVE",
"653 634 CURVE SMOOTH",
"597 672 OFFCURVE",
"509 695 OFFCURVE",
"398 695 CURVE SMOOTH",
"163 695 OFFCURVE",
"15 579 OFFCURVE",
"15 340 CURVE SMOOTH",
"15 101 OFFCURVE",
"161 -15 OFFCURVE",
"399 -15 CURVE SMOOTH"
);
}
);
width = 708;
}
);
note = G;
unicode = 0047;
},
{
glyphname = Gbreve;
lastChange = "2015-07-18 05:53:06 +0000";
layers = (
{
layerId = "14EB8CAA-E485-44FF-8841-EC36E7F264D4";
name = Bold;
paths = (
{
closed = 1;
nodes = (
"524 -15 OFFCURVE",
"609 13 OFFCURVE",
"666 54 CURVE SMOOTH",
"688 70 OFFCURVE",
"693 83 OFFCURVE",
"693 111 CURVE SMOOTH",
"693 345 LINE SMOOTH",
"693 393 OFFCURVE",
"678 418 OFFCURVE",
"624 418 CURVE SMOOTH",
"409 418 LINE SMOOTH",
"364 418 OFFCURVE",
"354 401 OFFCURVE",
"354 363 CURVE SMOOTH",
"354 308 LINE SMOOTH",
"354 270 OFFCURVE",
"364 253 OFFCURVE",
"409 253 CURVE SMOOTH",
"473 253 LINE",
"473 162 LINE",
"459 158 OFFCURVE",
"432 154 OFFCURVE",
"413 154 CURVE SMOOTH",
"309 154 OFFCURVE",
"254 212 OFFCURVE",
"254 340 CURVE SMOOTH",
"254 466 OFFCURVE",
"324 527 OFFCURVE",
"432 527 CURVE SMOOTH",
"492 527 OFFCURVE",
"532 513 OFFCURVE",
"564 497 CURVE SMOOTH",
"584 487 OFFCURVE",
"594 483 OFFCURVE",
"606 503 CURVE SMOOTH",
"656 589 LINE SMOOTH",
"666 607 OFFCURVE",
"670 622 OFFCURVE",
"653 634 CURVE SMOOTH",
"597 672 OFFCURVE",
"509 695 OFFCURVE",
"398 695 CURVE SMOOTH",
"163 695 OFFCURVE",
"15 579 OFFCURVE",
"15 340 CURVE SMOOTH",
"15 101 OFFCURVE",
"161 -15 OFFCURVE",
"399 -15 CURVE SMOOTH"
);
},
{
closed = 1;
nodes = (
"526 715 OFFCURVE",
"593 792 OFFCURVE",
"593 892 CURVE SMOOTH",
"593 903 OFFCURVE",
"587 910 OFFCURVE",
"577 910 CURVE SMOOTH",
"448 910 LINE SMOOTH",
"434 910 OFFCURVE",
"431 903 OFFCURVE",
"431 891 CURVE SMOOTH",
"431 867 OFFCURVE",
"416 855 OFFCURVE",
"392 855 CURVE SMOOTH",
"368 855 OFFCURVE",
"353 867 OFFCURVE",
"353 891 CURVE SMOOTH",
"353 903 OFFCURVE",
"350 910 OFFCURVE",
"336 910 CURVE SMOOTH",
"207 910 LINE SMOOTH",
"197 910 OFFCURVE",
"191 903 OFFCURVE",
"191 892 CURVE SMOOTH",
"191 792 OFFCURVE",
"257 715 OFFCURVE",
"392 715 CURVE SMOOTH"
);
}
);
width = 708;
}
);
note = Gbreve;
unicode = 011E;
},
{
glyphname = Gcaron;
lastChange = "2015-07-18 05:53:07 +0000";
layers = (
{
layerId = "14EB8CAA-E485-44FF-8841-EC36E7F264D4";
name = Bold;
paths = (
{
closed = 1;
nodes = (
"524 -15 OFFCURVE",
"609 13 OFFCURVE",
"666 54 CURVE SMOOTH",
"688 70 OFFCURVE",
"693 83 OFFCURVE",
"693 111 CURVE SMOOTH",
"693 345 LINE SMOOTH",
"693 393 OFFCURVE",
"678 418 OFFCURVE",
"624 418 CURVE SMOOTH",
"409 418 LINE SMOOTH",
"364 418 OFFCURVE",
"354 401 OFFCURVE",
"354 363 CURVE SMOOTH",
"354 308 LINE SMOOTH",
"354 270 OFFCURVE",
"364 253 OFFCURVE",
"409 253 CURVE SMOOTH",
"473 253 LINE",
"473 162 LINE",
"459 158 OFFCURVE",
"432 154 OFFCURVE",
"413 154 CURVE SMOOTH",
"309 154 OFFCURVE",
"254 212 OFFCURVE",
"254 340 CURVE SMOOTH",
"254 466 OFFCURVE",
"324 527 OFFCURVE",
"432 527 CURVE SMOOTH",
"492 527 OFFCURVE",
"532 513 OFFCURVE",
"564 497 CURVE SMOOTH",
"584 487 OFFCURVE",
"594 483 OFFCURVE",
"606 503 CURVE SMOOTH",
"656 589 LINE SMOOTH",
"666 607 OFFCURVE",
"670 622 OFFCURVE",
"653 634 CURVE SMOOTH",
"597 672 OFFCURVE",
"509 695 OFFCURVE",
"398 695 CURVE SMOOTH",
"163 695 OFFCURVE",
"15 579 OFFCURVE",
"15 340 CURVE SMOOTH",
"15 101 OFFCURVE",
"161 -15 OFFCURVE",
"399 -15 CURVE SMOOTH"
);
},
{
closed = 1;
nodes = (
"464 736 LINE SMOOTH",
"504 736 OFFCURVE",
"508 743 OFFCURVE",
"525 765 CURVE SMOOTH",
"617 882 LINE SMOOTH",
"643 915 OFFCURVE",
"633 936 OFFCURVE",
"596 936 CURVE SMOOTH",
"507 936 LINE SMOOTH",
"469 936 OFFCURVE",
"458 929 OFFCURVE",
"444 908 CURVE SMOOTH",
"402 843 LINE",
"360 908 LINE SMOOTH",
"346 929 OFFCURVE",
"335 936 OFFCURVE",
"297 936 CURVE SMOOTH",
"208 936 LINE SMOOTH",
"171 936 OFFCURVE",
"161 915 OFFCURVE",
"187 882 CURVE SMOOTH",
"279 765 LINE SMOOTH",
"296 743 OFFCURVE",
"300 736 OFFCURVE",
"340 736 CURVE SMOOTH"
);
}
);
width = 708;
}
);
note = Gcaron;
unicode = 01E6;
},
{
glyphname = Gcircumflex;
lastChange = "2015-07-18 05:53:06 +0000";
layers = (
{
layerId = "14EB8CAA-E485-44FF-8841-EC36E7F264D4";
name = Bold;
paths = (
{
closed = 1;
nodes = (
"524 -15 OFFCURVE",
"609 13 OFFCURVE",
"666 54 CURVE SMOOTH",
"688 70 OFFCURVE",
"693 83 OFFCURVE",
"693 111 CURVE SMOOTH",
"693 345 LINE SMOOTH",
"693 393 OFFCURVE",
"678 418 OFFCURVE",
"624 418 CURVE SMOOTH",
"409 418 LINE SMOOTH",
"364 418 OFFCURVE",
"354 401 OFFCURVE",
"354 363 CURVE SMOOTH",
"354 308 LINE SMOOTH",
"354 270 OFFCURVE",
"364 253 OFFCURVE",
"409 253 CURVE SMOOTH",
"473 253 LINE",
"473 162 LINE",
"459 158 OFFCURVE",
"432 154 OFFCURVE",
"413 154 CURVE SMOOTH",
"309 154 OFFCURVE",
"254 212 OFFCURVE",
"254 340 CURVE SMOOTH",
"254 466 OFFCURVE",
"324 527 OFFCURVE",
"432 527 CURVE SMOOTH",
"492 527 OFFCURVE",
"532 513 OFFCURVE",
"564 497 CURVE SMOOTH",
"584 487 OFFCURVE",
"594 483 OFFCURVE",
"606 503 CURVE SMOOTH",
"656 589 LINE SMOOTH",
"666 607 OFFCURVE",
"670 622 OFFCURVE",
"653 634 CURVE SMOOTH",
"597 672 OFFCURVE",
"509 695 OFFCURVE",
"398 695 CURVE SMOOTH",
"163 695 OFFCURVE",
"15 579 OFFCURVE",
"15 340 CURVE SMOOTH",
"15 101 OFFCURVE",
"161 -15 OFFCURVE",
"399 -15 CURVE SMOOTH"
);
},
{
closed = 1;
nodes = (
"298 715 LINE SMOOTH",
"336 715 OFFCURVE",
"347 722 OFFCURVE",
"361 743 CURVE SMOOTH",
"403 808 LINE",
"445 743 LINE SMOOTH",
"459 722 OFFCURVE",
"470 715 OFFCURVE",
"508 715 CURVE SMOOTH",
"597 715 LINE SMOOTH",
"634 715 OFFCURVE",
"644 736 OFFCURVE",
"618 769 CURVE SMOOTH",
"526 886 LINE SMOOTH",
"509 908 OFFCURVE",
"505 915 OFFCURVE",
"465 915 CURVE SMOOTH",
"341 915 LINE SMOOTH",
"301 915 OFFCURVE",
"297 908 OFFCURVE",
"280 886 CURVE SMOOTH",
"188 769 LINE SMOOTH",
"162 736 OFFCURVE",
"172 715 OFFCURVE",
"209 715 CURVE SMOOTH"
);
}
);
width = 708;
}
);
note = Gcircumflex;
unicode = 011C;
},
{
glyphname = Gcommaaccent;
lastChange = "2015-07-18 05:53:07 +0000";
layers = (
{
layerId = "14EB8CAA-E485-44FF-8841-EC36E7F264D4";
name = Bold;
paths = (
{
closed = 1;
nodes = (
"524 -15 OFFCURVE",
"609 13 OFFCURVE",
"666 54 CURVE SMOOTH",
"688 70 OFFCURVE",
"693 83 OFFCURVE",
"693 111 CURVE SMOOTH",
"693 345 LINE SMOOTH",
"693 393 OFFCURVE",
"678 418 OFFCURVE",
"624 418 CURVE SMOOTH",
"409 418 LINE SMOOTH",
"364 418 OFFCURVE",
"354 401 OFFCURVE",
"354 363 CURVE SMOOTH",
"354 308 LINE SMOOTH",
"354 270 OFFCURVE",
"364 253 OFFCURVE",
"409 253 CURVE SMOOTH",
"473 253 LINE",
"473 162 LINE",
"459 158 OFFCURVE",
"432 154 OFFCURVE",
"413 154 CURVE SMOOTH",
"309 154 OFFCURVE",
"254 212 OFFCURVE",
"254 340 CURVE SMOOTH",
"254 466 OFFCURVE",
"324 527 OFFCURVE",
"432 527 CURVE SMOOTH",
"492 527 OFFCURVE",
"532 513 OFFCURVE",
"564 497 CURVE SMOOTH",
"584 487 OFFCURVE",
"594 483 OFFCURVE",
"606 503 CURVE SMOOTH",
"656 589 LINE SMOOTH",
"666 607 OFFCURVE",
"670 622 OFFCURVE",
"653 634 CURVE SMOOTH",
"597 672 OFFCURVE",
"509 695 OFFCURVE",
"398 695 CURVE SMOOTH",
"163 695 OFFCURVE",
"15 579 OFFCURVE",
"15 340 CURVE SMOOTH",
"15 101 OFFCURVE",
"161 -15 OFFCURVE",
"399 -15 CURVE SMOOTH"
);
},
{
closed = 1;
nodes = (
"409 -277 LINE SMOOTH",
"435 -277 OFFCURVE",
"445 -267 OFFCURVE",
"452 -251 CURVE SMOOTH",
"519 -94 LINE SMOOTH",
"537 -52 OFFCURVE",
"529 -36 OFFCURVE",
"484 -36 CURVE SMOOTH",
"390 -36 LINE SMOOTH",
"355 -36 OFFCURVE",
"343 -43 OFFCURVE",
"333 -78 CURVE SMOOTH",
"289 -240 LINE SMOOTH",
"283 -261 OFFCURVE",
"288 -277 OFFCURVE",
"317 -277 CURVE SMOOTH"
);
}
);
width = 708;
}
);
note = Gcommaaccent;
unicode = 0122;
},
{
glyphname = Gdotaccent;
lastChange = "2015-07-18 05:53:05 +0000";
layers = (
{
layerId = "14EB8CAA-E485-44FF-8841-EC36E7F264D4";
name = Bold;
paths = (
{
closed = 1;
nodes = (
"524 -15 OFFCURVE",
"609 13 OFFCURVE",
"666 54 CURVE SMOOTH",
"688 70 OFFCURVE",
"693 83 OFFCURVE",
"693 111 CURVE SMOOTH",
"693 345 LINE SMOOTH",
"693 393 OFFCURVE",
"678 418 OFFCURVE",
"624 418 CURVE SMOOTH",
"409 418 LINE SMOOTH",
"364 418 OFFCURVE",
"354 401 OFFCURVE",
"354 363 CURVE SMOOTH",
"354 308 LINE SMOOTH",
"354 270 OFFCURVE",
"364 253 OFFCURVE",
"409 253 CURVE SMOOTH",
"473 253 LINE",
"473 162 LINE",
"459 158 OFFCURVE",
"432 154 OFFCURVE",
"413 154 CURVE SMOOTH",
"309 154 OFFCURVE",
"254 212 OFFCURVE",
"254 340 CURVE SMOOTH",
"254 466 OFFCURVE",
"324 527 OFFCURVE",
"432 527 CURVE SMOOTH",
"492 527 OFFCURVE",
"532 513 OFFCURVE",
"564 497 CURVE SMOOTH",
"584 487 OFFCURVE",
"594 483 OFFCURVE",
"606 503 CURVE SMOOTH",
"656 589 LINE SMOOTH",
"666 607 OFFCURVE",
"670 622 OFFCURVE",
"653 634 CURVE SMOOTH",
"597 672 OFFCURVE",
"509 695 OFFCURVE",
"398 695 CURVE SMOOTH",
"163 695 OFFCURVE",
"15 579 OFFCURVE",
"15 340 CURVE SMOOTH",
"15 101 OFFCURVE",
"161 -15 OFFCURVE",
"399 -15 CURVE SMOOTH"
);
},
{
closed = 1;
nodes = (
"407 741 LINE SMOOTH",
"448 741 OFFCURVE",
"475 774 OFFCURVE",
"475 812 CURVE SMOOTH",
"475 841 LINE SMOOTH",
"475 881 OFFCURVE",
"447 912 OFFCURVE",
"407 912 CURVE SMOOTH",
"377 912 LINE SMOOTH",
"337 912 OFFCURVE",
"309 881 OFFCURVE",
"309 841 CURVE SMOOTH",
"309 812 LINE SMOOTH",
"309 774 OFFCURVE",
"337 741 OFFCURVE",
"377 741 CURVE SMOOTH"
);
}
);
width = 708;
}
);
note = Gdotaccent;
unicode = 0120;
},
{
glyphname = Gmacron;
lastChange = "2015-07-18 05:53:06 +0000";
layers = (
{
layerId = "14EB8CAA-E485-44FF-8841-EC36E7F264D4";
name = Bold;
paths = (
{
closed = 1;
nodes = (
"524 -15 OFFCURVE",
"609 13 OFFCURVE",
"666 54 CURVE SMOOTH",
"688 70 OFFCURVE",
"693 83 OFFCURVE",
"693 111 CURVE SMOOTH",
"693 345 LINE SMOOTH",
"693 393 OFFCURVE",
"678 418 OFFCURVE",
"624 418 CURVE SMOOTH",
"409 418 LINE SMOOTH",
"364 418 OFFCURVE",
"354 401 OFFCURVE",
"354 363 CURVE SMOOTH",
"354 308 LINE SMOOTH",
"354 270 OFFCURVE",
"364 253 OFFCURVE",
"409 253 CURVE SMOOTH",
"473 253 LINE",
"473 162 LINE",
"459 158 OFFCURVE",
"432 154 OFFCURVE",
"413 154 CURVE SMOOTH",
"309 154 OFFCURVE",
"254 212 OFFCURVE",
"254 340 CURVE SMOOTH",
"254 466 OFFCURVE",
"324 527 OFFCURVE",
"432 527 CURVE SMOOTH",
"492 527 OFFCURVE",
"532 513 OFFCURVE",
"564 497 CURVE SMOOTH",
"584 487 OFFCURVE",
"594 483 OFFCURVE",
"606 503 CURVE SMOOTH",
"656 589 LINE SMOOTH",
"666 607 OFFCURVE",
"670 622 OFFCURVE",
"653 634 CURVE SMOOTH",
"597 672 OFFCURVE",
"509 695 OFFCURVE",
"398 695 CURVE SMOOTH",
"163 695 OFFCURVE",
"15 579 OFFCURVE",
"15 340 CURVE SMOOTH",
"15 101 OFFCURVE",
"161 -15 OFFCURVE",
"399 -15 CURVE SMOOTH"
);
},
{
closed = 1;
nodes = (
"505 730 LINE SMOOTH",
"550 730 OFFCURVE",
"560 749 OFFCURVE",
"560 787 CURVE SMOOTH",
"560 843 LINE SMOOTH",
"560 881 OFFCURVE",
"550 900 OFFCURVE",
"505 900 CURVE SMOOTH",
"238 900 LINE SMOOTH",
"193 900 OFFCURVE",
"183 881 OFFCURVE",
"183 843 CURVE SMOOTH",
"183 787 LINE SMOOTH",
"183 749 OFFCURVE",
"193 730 OFFCURVE",
"238 730 CURVE SMOOTH"
);
}
);
width = 708;
}
);
note = Gmacron;
unicode = 1E20;
},
{
glyphname = H;
lastChange = "2015-07-18 05:53:02 +0000";
layers = (
{
layerId = "14EB8CAA-E485-44FF-8841-EC36E7F264D4";
name = Bold;
paths = (
{
closed = 1;
nodes = (
"214 0 LINE SMOOTH",
"260 0 OFFCURVE",
"275 19 OFFCURVE",
"275 57 CURVE SMOOTH",
"275 255 LINE",
"453 255 LINE",
"453 57 LINE SMOOTH",
"453 19 OFFCURVE",
"468 0 OFFCURVE",
"513 0 CURVE SMOOTH",
"632 0 LINE SMOOTH",
"678 0 OFFCURVE",
"693 19 OFFCURVE",
"693 57 CURVE SMOOTH",
"693 623 LINE SMOOTH",
"693 661 OFFCURVE",
"678 680 OFFCURVE",
"632 680 CURVE SMOOTH",
"513 680 LINE SMOOTH",
"468 680 OFFCURVE",
"453 661 OFFCURVE",
"453 623 CURVE SMOOTH",
"453 425 LINE",
"275 425 LINE",
"275 623 LINE SMOOTH",
"275 661 OFFCURVE",
"260 680 OFFCURVE",
"214 680 CURVE SMOOTH",
"95 680 LINE SMOOTH",
"50 680 OFFCURVE",
"35 661 OFFCURVE",
"35 623 CURVE SMOOTH",
"35 57 LINE SMOOTH",
"35 19 OFFCURVE",
"50 0 OFFCURVE",
"95 0 CURVE SMOOTH"
);
}
);
width = 728;
}
);
note = H;
unicode = 0048;
},
{
glyphname = Hbar;
lastChange = "2015-07-18 06:05:45 +0000";
layers = (
{
layerId = "14EB8CAA-E485-44FF-8841-EC36E7F264D4";
name = Bold;
paths = (
{
closed = 1;
nodes = (
"228 0 LINE SMOOTH",
"274 0 OFFCURVE",
"289 19 OFFCURVE",
"289 57 CURVE SMOOTH",
"289 255 LINE",
"467 255 LINE",
"467 57 LINE SMOOTH",
"467 19 OFFCURVE",
"482 0 OFFCURVE",
"527 0 CURVE SMOOTH",
"646 0 LINE SMOOTH",
"692 0 OFFCURVE",
"707 19 OFFCURVE",
"707 57 CURVE SMOOTH",
"707 623 LINE SMOOTH",
"707 661 OFFCURVE",
"692 680 OFFCURVE",
"646 680 CURVE SMOOTH",
"527 680 LINE SMOOTH",
"482 680 OFFCURVE",
"467 661 OFFCURVE",
"467 623 CURVE SMOOTH",
"467 425 LINE",
"289 425 LINE",
"289 623 LINE SMOOTH",
"289 661 OFFCURVE",
"274 680 OFFCURVE",
"228 680 CURVE SMOOTH",
"109 680 LINE SMOOTH",
"64 680 OFFCURVE",
"49 661 OFFCURVE",
"49 623 CURVE SMOOTH",
"49 57 LINE SMOOTH",
"49 19 OFFCURVE",
"64 0 OFFCURVE",
"109 0 CURVE SMOOTH"
);
},
{
closed = 1;
nodes = (
"713 469 LINE SMOOTH",
"745 469 OFFCURVE",
"751 476 OFFCURVE",
"751 506 CURVE SMOOTH",
"751 568 LINE SMOOTH",
"751 598 OFFCURVE",
"744 605 OFFCURVE",
"713 605 CURVE SMOOTH",
"33 605 LINE SMOOTH",
"2 605 OFFCURVE",
"-5 598 OFFCURVE",
"-5 568 CURVE SMOOTH",
"-5 506 LINE SMOOTH",
"-5 476 OFFCURVE",
"1 469 OFFCURVE",
"33 469 CURVE SMOOTH"
);
}
);
width = 746;
}
);
note = Hbar;
unicode = 0126;
},
{
glyphname = Hbrevebelow;
lastChange = "2015-07-18 05:53:05 +0000";
layers = (
{
layerId = "14EB8CAA-E485-44FF-8841-EC36E7F264D4";
name = Bold;
paths = (
{
closed = 1;
nodes = (
"214 0 LINE SMOOTH",
"260 0 OFFCURVE",
"275 19 OFFCURVE",
"275 57 CURVE SMOOTH",
"275 255 LINE",
"453 255 LINE",
"453 57 LINE SMOOTH",
"453 19 OFFCURVE",
"468 0 OFFCURVE",
"513 0 CURVE SMOOTH",
"632 0 LINE SMOOTH",
"678 0 OFFCURVE",
"693 19 OFFCURVE",
"693 57 CURVE SMOOTH",
"693 623 LINE SMOOTH",
"693 661 OFFCURVE",
"678 680 OFFCURVE",
"632 680 CURVE SMOOTH",
"513 680 LINE SMOOTH",
"468 680 OFFCURVE",
"453 661 OFFCURVE",
"453 623 CURVE SMOOTH",
"453 425 LINE",
"275 425 LINE",
"275 623 LINE SMOOTH",
"275 661 OFFCURVE",
"260 680 OFFCURVE",
"214 680 CURVE SMOOTH",
"95 680 LINE SMOOTH",
"50 680 OFFCURVE",
"35 661 OFFCURVE",
"35 623 CURVE SMOOTH",
"35 57 LINE SMOOTH",
"35 19 OFFCURVE",
"50 0 OFFCURVE",
"95 0 CURVE SMOOTH"
);
},
{
closed = 1;
nodes = (
"498 -232 OFFCURVE",
"565 -155 OFFCURVE",
"565 -55 CURVE SMOOTH",
"565 -44 OFFCURVE",
"559 -37 OFFCURVE",
"549 -37 CURVE SMOOTH",
"420 -37 LINE SMOOTH",
"406 -37 OFFCURVE",
"403 -44 OFFCURVE",
"403 -56 CURVE SMOOTH",
"403 -80 OFFCURVE",
"388 -92 OFFCURVE",
"364 -92 CURVE SMOOTH",
"340 -92 OFFCURVE",
"325 -80 OFFCURVE",
"325 -56 CURVE SMOOTH",
"325 -44 OFFCURVE",
"322 -37 OFFCURVE",
"308 -37 CURVE SMOOTH",
"179 -37 LINE SMOOTH",
"169 -37 OFFCURVE",
"163 -44 OFFCURVE",
"163 -55 CURVE SMOOTH",
"163 -155 OFFCURVE",
"229 -232 OFFCURVE",
"364 -232 CURVE SMOOTH"
);
}
);
width = 728;
}
);
note = Hbrevebelow;
unicode = 1E2A;
},
{
glyphname = Hcircumflex;
lastChange = "2015-07-18 05:53:05 +0000";
layers = (
{
layerId = "14EB8CAA-E485-44FF-8841-EC36E7F264D4";
name = Bold;
paths = (
{
closed = 1;
nodes = (
"214 0 LINE SMOOTH",
"260 0 OFFCURVE",
"275 19 OFFCURVE",
"275 57 CURVE SMOOTH",
"275 255 LINE",
"453 255 LINE",
"453 57 LINE SMOOTH",
"453 19 OFFCURVE",
"468 0 OFFCURVE",
"513 0 CURVE SMOOTH",
"632 0 LINE SMOOTH",
"678 0 OFFCURVE",
"693 19 OFFCURVE",
"693 57 CURVE SMOOTH",
"693 623 LINE SMOOTH",
"693 661 OFFCURVE",
"678 680 OFFCURVE",
"632 680 CURVE SMOOTH",
"513 680 LINE SMOOTH",
"468 680 OFFCURVE",
"453 661 OFFCURVE",
"453 623 CURVE SMOOTH",
"453 425 LINE",
"275 425 LINE",
"275 623 LINE SMOOTH",
"275 661 OFFCURVE",
"260 680 OFFCURVE",
"214 680 CURVE SMOOTH",
"95 680 LINE SMOOTH",
"50 680 OFFCURVE",
"35 661 OFFCURVE",
"35 623 CURVE SMOOTH",
"35 57 LINE SMOOTH",
"35 19 OFFCURVE",
"50 0 OFFCURVE",
"95 0 CURVE SMOOTH"
);
},
{
closed = 1;
nodes = (
"259 739 LINE SMOOTH",
"297 739 OFFCURVE",
"308 746 OFFCURVE",
"322 767 CURVE SMOOTH",
"364 832 LINE",
"406 767 LINE SMOOTH",
"420 746 OFFCURVE",
"431 739 OFFCURVE",
"469 739 CURVE SMOOTH",
"558 739 LINE SMOOTH",
"595 739 OFFCURVE",
"605 760 OFFCURVE",
"579 793 CURVE SMOOTH",
"487 910 LINE SMOOTH",
"470 932 OFFCURVE",
"466 939 OFFCURVE",
"426 939 CURVE SMOOTH",
"302 939 LINE SMOOTH",
"262 939 OFFCURVE",
"258 932 OFFCURVE",
"241 910 CURVE SMOOTH",
"149 793 LINE SMOOTH",
"123 760 OFFCURVE",
"133 739 OFFCURVE",
"170 739 CURVE SMOOTH"
);
}
);
width = 728;
}
);
note = Hcircumflex;
unicode = 0124;
},
{
glyphname = Hdotbelow;
lastChange = "2015-07-18 05:53:07 +0000";
layers = (
{
layerId = "14EB8CAA-E485-44FF-8841-EC36E7F264D4";
name = Bold;
paths = (
{
closed = 1;
nodes = (
"214 0 LINE SMOOTH",
"260 0 OFFCURVE",
"275 19 OFFCURVE",
"275 57 CURVE SMOOTH",
"275 255 LINE",
"453 255 LINE",
"453 57 LINE SMOOTH",
"453 19 OFFCURVE",
"468 0 OFFCURVE",
"513 0 CURVE SMOOTH",
"632 0 LINE SMOOTH",
"678 0 OFFCURVE",
"693 19 OFFCURVE",
"693 57 CURVE SMOOTH",
"693 623 LINE SMOOTH",
"693 661 OFFCURVE",
"678 680 OFFCURVE",
"632 680 CURVE SMOOTH",
"513 680 LINE SMOOTH",
"468 680 OFFCURVE",
"453 661 OFFCURVE",
"453 623 CURVE SMOOTH",
"453 425 LINE",
"275 425 LINE",
"275 623 LINE SMOOTH",
"275 661 OFFCURVE",
"260 680 OFFCURVE",
"214 680 CURVE SMOOTH",
"95 680 LINE SMOOTH",
"50 680 OFFCURVE",
"35 661 OFFCURVE",
"35 623 CURVE SMOOTH",
"35 57 LINE SMOOTH",
"35 19 OFFCURVE",
"50 0 OFFCURVE",
"95 0 CURVE SMOOTH"
);
},
{
closed = 1;
nodes = (
"386 -217 LINE SMOOTH",
"427 -217 OFFCURVE",
"454 -184 OFFCURVE",
"454 -146 CURVE SMOOTH",
"454 -117 LINE SMOOTH",
"454 -77 OFFCURVE",
"426 -46 OFFCURVE",
"386 -46 CURVE SMOOTH",
"356 -46 LINE SMOOTH",
"316 -46 OFFCURVE",
"288 -77 OFFCURVE",
"288 -117 CURVE SMOOTH",
"288 -146 LINE SMOOTH",
"288 -184 OFFCURVE",
"316 -217 OFFCURVE",
"356 -217 CURVE SMOOTH"
);
}
);
width = 728;
}
);
note = Hdotbelow;
unicode = 1E24;
},
{
glyphname = I;
lastChange = "2015-07-18 05:53:02 +0000";
layers = (
{
layerId = "14EB8CAA-E485-44FF-8841-EC36E7F264D4";
name = Bold;
paths = (
{
closed = 1;
nodes = (
"214 0 LINE SMOOTH",
"260 0 OFFCURVE",
"275 19 OFFCURVE",
"275 57 CURVE SMOOTH",
"275 623 LINE SMOOTH",
"275 661 OFFCURVE",
"260 680 OFFCURVE",
"214 680 CURVE SMOOTH",
"95 680 LINE SMOOTH",
"50 680 OFFCURVE",
"35 661 OFFCURVE",
"35 623 CURVE SMOOTH",
"35 57 LINE SMOOTH",
"35 19 OFFCURVE",
"50 0 OFFCURVE",
"95 0 CURVE SMOOTH"
);
}
);
width = 310;
}
);
note = I;
unicode = 0049;
},
{
glyphname = IJ;
lastChange = "2015-07-18 06:06:01 +0000";
layers = (
{
layerId = "14EB8CAA-E485-44FF-8841-EC36E7F264D4";
name = Bold;
paths = (
{
closed = 1;
nodes = (
"705 -15 OFFCURVE",
"791 78 OFFCURVE",
"791 216 CURVE SMOOTH",
"791 623 LINE SMOOTH",
"791 661 OFFCURVE",
"776 680 OFFCURVE",
"730 680 CURVE SMOOTH",
"611 680 LINE SMOOTH",
"566 680 OFFCURVE",
"551 661 OFFCURVE",
"551 623 CURVE SMOOTH",
"551 218 LINE SMOOTH",
"551 177 OFFCURVE",
"531 153 OFFCURVE",
"483 153 CURVE SMOOTH",
"445 153 OFFCURVE",
"415 171 OFFCURVE",
"391 189 CURVE SMOOTH",
"375 201 OFFCURVE",
"362 202 OFFCURVE",
"350 182 CURVE SMOOTH",
"300 96 LINE SMOOTH",
"290 78 OFFCURVE",
"286 63 OFFCURVE",
"303 51 CURVE SMOOTH",
"356 12 OFFCURVE",
"432 -15 OFFCURVE",
"535 -15 CURVE SMOOTH"
);
},
{
closed = 1;
nodes = (
"214 0 LINE SMOOTH",
"260 0 OFFCURVE",
"275 19 OFFCURVE",
"275 57 CURVE SMOOTH",
"275 623 LINE SMOOTH",
"275 661 OFFCURVE",
"260 680 OFFCURVE",
"214 680 CURVE SMOOTH",
"95 680 LINE SMOOTH",
"50 680 OFFCURVE",
"35 661 OFFCURVE",
"35 623 CURVE SMOOTH",
"35 57 LINE SMOOTH",
"35 19 OFFCURVE",
"50 0 OFFCURVE",
"95 0 CURVE SMOOTH"
);
}
);
width = 826;
}
);
note = IJ;
unicode = 0132;
},
{
glyphname = Iacute;
lastChange = "2015-07-18 15:44:10 +0000";
layers = (
{
layerId = "14EB8CAA-E485-44FF-8841-EC36E7F264D4";
name = Bold;
paths = (
{
closed = 1;
nodes = (
"219 0 LINE SMOOTH",
"265 0 OFFCURVE",
"280 19 OFFCURVE",
"280 57 CURVE SMOOTH",
"280 623 LINE SMOOTH",
"280 661 OFFCURVE",
"265 680 OFFCURVE",
"219 680 CURVE SMOOTH",
"100 680 LINE SMOOTH",
"55 680 OFFCURVE",
"40 661 OFFCURVE",
"40 623 CURVE SMOOTH",
"40 57 LINE SMOOTH",
"40 19 OFFCURVE",
"55 0 OFFCURVE",
"100 0 CURVE SMOOTH"
);
},
{
closed = 1;
nodes = (
"210 736 LINE SMOOTH",
"258 736 OFFCURVE",
"266 744 OFFCURVE",
"284 774 CURVE SMOOTH",
"348 882 LINE SMOOTH",
"369 918 OFFCURVE",
"348 936 OFFCURVE",
"311 936 CURVE SMOOTH",
"168 936 LINE SMOOTH",
"125 936 OFFCURVE",
"118 925 OFFCURVE",
"108 897 CURVE SMOOTH",
"66 781 LINE SMOOTH",
"57 755 OFFCURVE",
"66 736 OFFCURVE",
"103 736 CURVE SMOOTH"
);
}
);
width = 320;
}
);
note = Iacute;
unicode = 00CD;
},
{
glyphname = Ibreve;
lastChange = "2015-07-18 15:44:23 +0000";
layers = (
{
layerId = "14EB8CAA-E485-44FF-8841-EC36E7F264D4";
name = Bold;
paths = (
{
closed = 1;
nodes = (
"219 0 LINE SMOOTH",
"265 0 OFFCURVE",
"280 19 OFFCURVE",
"280 57 CURVE SMOOTH",
"280 623 LINE SMOOTH",
"280 661 OFFCURVE",
"265 680 OFFCURVE",
"219 680 CURVE SMOOTH",
"100 680 LINE SMOOTH",
"55 680 OFFCURVE",
"40 661 OFFCURVE",
"40 623 CURVE SMOOTH",
"40 57 LINE SMOOTH",
"40 19 OFFCURVE",
"55 0 OFFCURVE",
"100 0 CURVE SMOOTH"
);
},
{
closed = 1;
nodes = (
"292 736 OFFCURVE",
"359 813 OFFCURVE",
"359 913 CURVE SMOOTH",
"359 924 OFFCURVE",
"353 931 OFFCURVE",
"343 931 CURVE SMOOTH",
"214 931 LINE SMOOTH",
"200 931 OFFCURVE",
"197 924 OFFCURVE",
"197 912 CURVE SMOOTH",
"197 888 OFFCURVE",
"182 876 OFFCURVE",
"158 876 CURVE SMOOTH",
"134 876 OFFCURVE",
"119 888 OFFCURVE",
"119 912 CURVE SMOOTH",
"119 924 OFFCURVE",
"116 931 OFFCURVE",
"102 931 CURVE SMOOTH",
"-27 931 LINE SMOOTH",
"-37 931 OFFCURVE",
"-43 924 OFFCURVE",
"-43 913 CURVE SMOOTH",
"-43 813 OFFCURVE",
"23 736 OFFCURVE",
"158 736 CURVE SMOOTH"
);
}
);
width = 320;
}
);
note = Ibreve;
unicode = 012C;
},
{
glyphname = Icaron;
lastChange = "2015-07-18 15:44:36 +0000";
layers = (
{
layerId = "14EB8CAA-E485-44FF-8841-EC36E7F264D4";
name = Bold;
paths = (
{
closed = 1;
nodes = (
"219 0 LINE SMOOTH",
"265 0 OFFCURVE",
"280 19 OFFCURVE",
"280 57 CURVE SMOOTH",
"280 623 LINE SMOOTH",
"280 661 OFFCURVE",
"265 680 OFFCURVE",
"219 680 CURVE SMOOTH",
"100 680 LINE SMOOTH",
"55 680 OFFCURVE",
"40 661 OFFCURVE",
"40 623 CURVE SMOOTH",
"40 57 LINE SMOOTH",
"40 19 OFFCURVE",
"55 0 OFFCURVE",
"100 0 CURVE SMOOTH"
);
},
{
closed = 1;
nodes = (
"223 736 LINE SMOOTH",
"263 736 OFFCURVE",
"267 743 OFFCURVE",
"284 765 CURVE SMOOTH",
"376 882 LINE SMOOTH",
"402 915 OFFCURVE",
"392 936 OFFCURVE",
"355 936 CURVE SMOOTH",
"266 936 LINE SMOOTH",
"228 936 OFFCURVE",
"217 929 OFFCURVE",
"203 908 CURVE SMOOTH",
"161 843 LINE",
"119 908 LINE SMOOTH",
"105 929 OFFCURVE",
"94 936 OFFCURVE",
"56 936 CURVE SMOOTH",
"-33 936 LINE SMOOTH",
"-70 936 OFFCURVE",
"-80 915 OFFCURVE",
"-54 882 CURVE SMOOTH",
"38 765 LINE SMOOTH",
"55 743 OFFCURVE",
"59 736 OFFCURVE",
"99 736 CURVE SMOOTH"
);
}
);
width = 320;
}
);
note = Icaron;
unicode = 01CF;
},
{
glyphname = Icircumflex;
lastChange = "2015-07-18 15:44:51 +0000";
layers = (
{
layerId = "14EB8CAA-E485-44FF-8841-EC36E7F264D4";
name = Bold;
paths = (
{
closed = 1;
nodes = (
"219 0 LINE SMOOTH",
"265 0 OFFCURVE",
"280 19 OFFCURVE",
"280 57 CURVE SMOOTH",
"280 623 LINE SMOOTH",
"280 661 OFFCURVE",
"265 680 OFFCURVE",
"219 680 CURVE SMOOTH",
"100 680 LINE SMOOTH",
"55 680 OFFCURVE",
"40 661 OFFCURVE",
"40 623 CURVE SMOOTH",
"40 57 LINE SMOOTH",
"40 19 OFFCURVE",
"55 0 OFFCURVE",
"100 0 CURVE SMOOTH"
);
},
{
closed = 1;
nodes = (
"54 746 LINE SMOOTH",
"92 746 OFFCURVE",
"103 753 OFFCURVE",
"117 774 CURVE SMOOTH",
"159 839 LINE",
"201 774 LINE SMOOTH",
"215 753 OFFCURVE",
"226 746 OFFCURVE",
"264 746 CURVE SMOOTH",
"353 746 LINE SMOOTH",
"390 746 OFFCURVE",
"400 767 OFFCURVE",
"374 800 CURVE SMOOTH",
"282 917 LINE SMOOTH",
"265 939 OFFCURVE",
"261 946 OFFCURVE",
"221 946 CURVE SMOOTH",
"97 946 LINE SMOOTH",
"57 946 OFFCURVE",
"53 939 OFFCURVE",
"36 917 CURVE SMOOTH",
"-56 800 LINE SMOOTH",
"-82 767 OFFCURVE",
"-72 746 OFFCURVE",
"-35 746 CURVE SMOOTH"
);
}
);
width = 320;
}
);
note = Icircumflex;
unicode = 00CE;
},
{
glyphname = Idieresis;
lastChange = "2015-07-18 15:45:03 +0000";
layers = (
{
layerId = "14EB8CAA-E485-44FF-8841-EC36E7F264D4";
name = Bold;
paths = (
{
closed = 1;
nodes = (
"219 0 LINE SMOOTH",
"265 0 OFFCURVE",
"280 19 OFFCURVE",
"280 57 CURVE SMOOTH",
"280 623 LINE SMOOTH",
"280 661 OFFCURVE",
"265 680 OFFCURVE",
"219 680 CURVE SMOOTH",
"100 680 LINE SMOOTH",
"55 680 OFFCURVE",
"40 661 OFFCURVE",
"40 623 CURVE SMOOTH",
"40 57 LINE SMOOTH",
"40 19 OFFCURVE",
"55 0 OFFCURVE",
"100 0 CURVE SMOOTH"
);
},
{
closed = 1;
nodes = (
"67 749 LINE SMOOTH",
"108 749 OFFCURVE",
"135 782 OFFCURVE",
"135 820 CURVE SMOOTH",
"135 849 LINE SMOOTH",
"135 889 OFFCURVE",
"107 920 OFFCURVE",
"67 920 CURVE SMOOTH",
"37 920 LINE SMOOTH",
"-3 920 OFFCURVE",
"-31 889 OFFCURVE",
"-31 849 CURVE SMOOTH",
"-31 820 LINE SMOOTH",
"-31 782 OFFCURVE",
"-3 749 OFFCURVE",
"37 749 CURVE SMOOTH"
);
},
{
closed = 1;
nodes = (
"290 749 LINE SMOOTH",
"331 749 OFFCURVE",
"358 782 OFFCURVE",
"358 820 CURVE SMOOTH",
"358 849 LINE SMOOTH",
"358 889 OFFCURVE",
"330 920 OFFCURVE",
"290 920 CURVE SMOOTH",
"260 920 LINE SMOOTH",
"220 920 OFFCURVE",
"192 889 OFFCURVE",
"192 849 CURVE SMOOTH",
"192 820 LINE SMOOTH",
"192 782 OFFCURVE",
"220 749 OFFCURVE",
"260 749 CURVE SMOOTH"
);
}
);
width = 320;
}
);
note = Idieresis;
unicode = 00CF;
},
{
glyphname = Idotaccent;
lastChange = "2015-07-18 15:45:15 +0000";
layers = (
{
layerId = "14EB8CAA-E485-44FF-8841-EC36E7F264D4";
name = Bold;
paths = (
{
closed = 1;
nodes = (
"214 0 LINE SMOOTH",
"260 0 OFFCURVE",
"275 19 OFFCURVE",
"275 57 CURVE SMOOTH",
"275 623 LINE SMOOTH",
"275 661 OFFCURVE",
"260 680 OFFCURVE",
"214 680 CURVE SMOOTH",
"95 680 LINE SMOOTH",
"50 680 OFFCURVE",
"35 661 OFFCURVE",
"35 623 CURVE SMOOTH",
"35 57 LINE SMOOTH",
"35 19 OFFCURVE",
"50 0 OFFCURVE",
"95 0 CURVE SMOOTH"
);
},
{
closed = 1;
nodes = (
"176 752 LINE SMOOTH",
"217 752 OFFCURVE",
"244 785 OFFCURVE",
"244 823 CURVE SMOOTH",
"244 852 LINE SMOOTH",
"244 892 OFFCURVE",
"216 923 OFFCURVE",
"176 923 CURVE SMOOTH",
"146 923 LINE SMOOTH",
"106 923 OFFCURVE",
"78 892 OFFCURVE",
"78 852 CURVE SMOOTH",
"78 823 LINE SMOOTH",
"78 785 OFFCURVE",
"106 752 OFFCURVE",
"146 752 CURVE SMOOTH"
);
}
);
width = 310;
}
);
note = Idotaccent;
unicode = 0130;
},
{
glyphname = Idotbelow;
lastChange = "2015-07-18 15:45:28 +0000";
layers = (
{
layerId = "14EB8CAA-E485-44FF-8841-EC36E7F264D4";
name = Bold;
paths = (
{
closed = 1;
nodes = (
"214 0 LINE SMOOTH",
"260 0 OFFCURVE",
"275 19 OFFCURVE",
"275 57 CURVE SMOOTH",
"275 623 LINE SMOOTH",
"275 661 OFFCURVE",
"260 680 OFFCURVE",
"214 680 CURVE SMOOTH",
"95 680 LINE SMOOTH",
"50 680 OFFCURVE",
"35 661 OFFCURVE",
"35 623 CURVE SMOOTH",
"35 57 LINE SMOOTH",
"35 19 OFFCURVE",
"50 0 OFFCURVE",
"95 0 CURVE SMOOTH"
);
},
{
closed = 1;
nodes = (
"169 -217 LINE SMOOTH",
"210 -217 OFFCURVE",
"237 -184 OFFCURVE",
"237 -146 CURVE SMOOTH",
"237 -117 LINE SMOOTH",
"237 -77 OFFCURVE",
"209 -46 OFFCURVE",
"169 -46 CURVE SMOOTH",
"139 -46 LINE SMOOTH",
"99 -46 OFFCURVE",
"71 -77 OFFCURVE",
"71 -117 CURVE SMOOTH",
"71 -146 LINE SMOOTH",
"71 -184 OFFCURVE",
"99 -217 OFFCURVE",
"139 -217 CURVE SMOOTH"
);
}
);
width = 310;
}
);
note = Idotbelow;
unicode = 1ECA;
},
{
glyphname = Igrave;
lastChange = "2015-07-18 15:45:44 +0000";
layers = (
{
layerId = "14EB8CAA-E485-44FF-8841-EC36E7F264D4";
name = Bold;
paths = (
{
closed = 1;
nodes = (
"219 0 LINE SMOOTH",
"265 0 OFFCURVE",
"280 19 OFFCURVE",
"280 57 CURVE SMOOTH",
"280 623 LINE SMOOTH",
"280 661 OFFCURVE",
"265 680 OFFCURVE",
"219 680 CURVE SMOOTH",
"100 680 LINE SMOOTH",
"55 680 OFFCURVE",
"40 661 OFFCURVE",
"40 623 CURVE SMOOTH",
"40 57 LINE SMOOTH",
"40 19 OFFCURVE",
"55 0 OFFCURVE",
"100 0 CURVE SMOOTH"
);
},
{
closed = 1;
nodes = (
"233 736 LINE SMOOTH",
"270 736 OFFCURVE",
"280 755 OFFCURVE",
"270 781 CURVE SMOOTH",
"228 897 LINE SMOOTH",
"218 926 OFFCURVE",
"211 936 OFFCURVE",
"168 936 CURVE SMOOTH",
"25 936 LINE SMOOTH",
"-12 936 OFFCURVE",
"-33 918 OFFCURVE",
"-12 882 CURVE SMOOTH",
"52 774 LINE SMOOTH",
"70 744 OFFCURVE",
"78 736 OFFCURVE",
"126 736 CURVE SMOOTH"
);
}
);
width = 320;
}
);
note = Igrave;
unicode = 00CC;
},
{
glyphname = Ihookabove;
lastChange = "2015-07-18 15:45:58 +0000";
layers = (
{
layerId = "14EB8CAA-E485-44FF-8841-EC36E7F264D4";
name = Bold;
paths = (
{
closed = 1;
nodes = (
"219 0 LINE SMOOTH",
"265 0 OFFCURVE",
"280 19 OFFCURVE",
"280 57 CURVE SMOOTH",
"280 623 LINE SMOOTH",
"280 661 OFFCURVE",
"265 680 OFFCURVE",
"219 680 CURVE SMOOTH",
"100 680 LINE SMOOTH",
"55 680 OFFCURVE",
"40 661 OFFCURVE",
"40 623 CURVE SMOOTH",
"40 57 LINE SMOOTH",
"40 19 OFFCURVE",
"55 0 OFFCURVE",
"100 0 CURVE SMOOTH"
);
},
{
closed = 1;
nodes = (
"204 724 LINE SMOOTH",
"220 724 OFFCURVE",
"227 732 OFFCURVE",
"227 747 CURVE SMOOTH",
"227 760 LINE",
"277 760 OFFCURVE",
"316 799 OFFCURVE",
"316 863 CURVE SMOOTH",
"316 936 OFFCURVE",
"267 975 OFFCURVE",
"169 975 CURVE SMOOTH",
"126 975 OFFCURVE",
"69 963 OFFCURVE",
"38 943 CURVE",
"31 938 OFFCURVE",
"31 933 OFFCURVE",
"34 927 CURVE",
"65 856 LINE",
"68 850 OFFCURVE",
"72 850 OFFCURVE",
"77 852 CURVE",
"97 861 OFFCURVE",
"117 870 OFFCURVE",
"141 870 CURVE SMOOTH",
"160 870 OFFCURVE",
"168 865 OFFCURVE",
"168 853 CURVE SMOOTH",
"168 837 OFFCURVE",
"152 833 OFFCURVE",
"125 833 CURVE SMOOTH",
"93 833 OFFCURVE",
"88 824 OFFCURVE",
"88 802 CURVE SMOOTH",
"88 747 LINE SMOOTH",
"88 732 OFFCURVE",
"95 724 OFFCURVE",
"111 724 CURVE SMOOTH"
);
}
);
width = 320;
}
);
note = Ihookabove;
unicode = 1EC8;
},
{
glyphname = Imacron;
lastChange = "2015-07-18 15:46:14 +0000";
layers = (
{
layerId = "14EB8CAA-E485-44FF-8841-EC36E7F264D4";
name = Bold;
paths = (
{
closed = 1;
nodes = (
"224 0 LINE SMOOTH",
"270 0 OFFCURVE",
"285 19 OFFCURVE",
"285 57 CURVE SMOOTH",
"285 623 LINE SMOOTH",
"285 661 OFFCURVE",
"270 680 OFFCURVE",
"224 680 CURVE SMOOTH",
"105 680 LINE SMOOTH",
"60 680 OFFCURVE",
"45 661 OFFCURVE",
"45 623 CURVE SMOOTH",
"45 57 LINE SMOOTH",
"45 19 OFFCURVE",
"60 0 OFFCURVE",
"105 0 CURVE SMOOTH"
);
},
{
closed = 1;
nodes = (
"299 742 LINE SMOOTH",
"344 742 OFFCURVE",
"354 761 OFFCURVE",
"354 799 CURVE SMOOTH",
"354 855 LINE SMOOTH",
"354 893 OFFCURVE",
"344 912 OFFCURVE",
"299 912 CURVE SMOOTH",
"32 912 LINE SMOOTH",
"-13 912 OFFCURVE",
"-23 893 OFFCURVE",
"-23 855 CURVE SMOOTH",
"-23 799 LINE SMOOTH",
"-23 761 OFFCURVE",
"-13 742 OFFCURVE",
"32 742 CURVE SMOOTH"
);
}
);
width = 330;
}
);
note = Imacron;
unicode = 012A;
},
{
glyphname = Iogonek;
lastChange = "2015-07-18 15:46:41 +0000";
layers = (
{
layerId = "14EB8CAA-E485-44FF-8841-EC36E7F264D4";
name = Bold;
paths = (
{
closed = 1;
nodes = (
"219 0 LINE SMOOTH",
"265 0 OFFCURVE",
"280 19 OFFCURVE",
"280 57 CURVE SMOOTH",
"280 623 LINE SMOOTH",
"280 661 OFFCURVE",
"265 680 OFFCURVE",
"219 680 CURVE SMOOTH",
"100 680 LINE SMOOTH",
"55 680 OFFCURVE",
"40 661 OFFCURVE",
"40 623 CURVE SMOOTH",
"40 57 LINE SMOOTH",
"40 19 OFFCURVE",
"55 0 OFFCURVE",
"100 0 CURVE SMOOTH"
);
},
{
closed = 1;
nodes = (
"180 -225 OFFCURVE",
"216 -220 OFFCURVE",
"245 -207 CURVE SMOOTH",
"258 -201 OFFCURVE",
"258 -197 OFFCURVE",
"255 -190 CURVE",
"231 -139 LINE SMOOTH",
"227 -130 OFFCURVE",
"224 -131 OFFCURVE",
"217 -134 CURVE",
"211 -137 OFFCURVE",
"204 -138 OFFCURVE",
"195 -138 CURVE SMOOTH",
"180 -138 OFFCURVE",
"171 -128 OFFCURVE",
"171 -111 CURVE SMOOTH",
"171 -82 OFFCURVE",
"199 -48 OFFCURVE",
"245 8 CURVE SMOOTH",
"252 16 OFFCURVE",
"247 24 OFFCURVE",
"235 24 CURVE SMOOTH",
"119 24 LINE SMOOTH",
"106 24 OFFCURVE",
"102 20 OFFCURVE",
"94 11 CURVE SMOOTH",
"50 -39 OFFCURVE",
"22 -95 OFFCURVE",
"22 -131 CURVE SMOOTH",
"22 -182 OFFCURVE",
"53 -225 OFFCURVE",
"130 -225 CURVE SMOOTH"
);
}
);
width = 320;
}
);
note = Iogonek;
unicode = 012E;
},
{
glyphname = Itilde;
lastChange = "2015-07-18 15:48:34 +0000";
layers = (
{
layerId = "14EB8CAA-E485-44FF-8841-EC36E7F264D4";
name = Bold;
paths = (
{
closed = 1;
nodes = (
"219 0 LINE SMOOTH",
"265 0 OFFCURVE",
"280 19 OFFCURVE",
"280 57 CURVE SMOOTH",
"280 623 LINE SMOOTH",
"280 661 OFFCURVE",
"265 680 OFFCURVE",
"219 680 CURVE SMOOTH",
"100 680 LINE SMOOTH",
"55 680 OFFCURVE",
"40 661 OFFCURVE",
"40 623 CURVE SMOOTH",
"40 57 LINE SMOOTH",
"40 19 OFFCURVE",
"55 0 OFFCURVE",
"100 0 CURVE SMOOTH"
);
},
{
closed = 1;
nodes = (
"323 716 OFFCURVE",
"356 745 OFFCURVE",
"398 806 CURVE SMOOTH",
"423 842 OFFCURVE",
"419 859 OFFCURVE",
"376 891 CURVE SMOOTH",
"332 924 OFFCURVE",
"309 932 OFFCURVE",
"290 909 CURVE SMOOTH",
"270 885 OFFCURVE",
"260 876 OFFCURVE",
"237 876 CURVE SMOOTH",
"194 876 OFFCURVE",
"159 925 OFFCURVE",
"81 925 CURVE SMOOTH",
"20 925 OFFCURVE",
"-13 894 OFFCURVE",
"-55 833 CURVE SMOOTH",
"-80 797 OFFCURVE",
"-74 782 OFFCURVE",
"-31 750 CURVE SMOOTH",
"13 717 OFFCURVE",
"36 709 OFFCURVE",
"55 732 CURVE SMOOTH",
"75 756 OFFCURVE",
"88 765 OFFCURVE",
"112 765 CURVE SMOOTH",
"161 765 OFFCURVE",
"201 716 OFFCURVE",
"262 716 CURVE SMOOTH"
);
}
);
width = 320;
}
);
note = Itilde;
unicode = 0128;
},
{
glyphname = J;
lastChange = "2015-07-18 05:53:02 +0000";
layers = (
{
layerId = "14EB8CAA-E485-44FF-8841-EC36E7F264D4";
name = Bold;
paths = (
{
closed = 1;
nodes = (
"409 -15 OFFCURVE",
"495 78 OFFCURVE",
"495 216 CURVE SMOOTH",
"495 623 LINE SMOOTH",
"495 661 OFFCURVE",
"480 680 OFFCURVE",
"434 680 CURVE SMOOTH",
"315 680 LINE SMOOTH",
"270 680 OFFCURVE",
"255 661 OFFCURVE",
"255 623 CURVE SMOOTH",
"255 218 LINE SMOOTH",
"255 177 OFFCURVE",
"235 153 OFFCURVE",
"187 153 CURVE SMOOTH",
"149 153 OFFCURVE",
"119 171 OFFCURVE",
"95 189 CURVE SMOOTH",
"79 201 OFFCURVE",
"66 202 OFFCURVE",
"54 182 CURVE SMOOTH",
"4 96 LINE SMOOTH",
"-6 78 OFFCURVE",
"-10 63 OFFCURVE",
"7 51 CURVE SMOOTH",
"60 12 OFFCURVE",
"136 -15 OFFCURVE",
"239 -15 CURVE SMOOTH"
);
}
);
width = 525;
}
);
note = J;
unicode = 004A;
},
{
glyphname = Jcircumflex;
lastChange = "2015-07-18 05:53:07 +0000";
layers = (
{
layerId = "14EB8CAA-E485-44FF-8841-EC36E7F264D4";
name = Bold;
paths = (
{
closed = 1;
nodes = (
"409 -15 OFFCURVE",
"495 78 OFFCURVE",
"495 216 CURVE SMOOTH",
"495 623 LINE SMOOTH",
"495 661 OFFCURVE",
"480 680 OFFCURVE",
"434 680 CURVE SMOOTH",
"315 680 LINE SMOOTH",
"270 680 OFFCURVE",
"255 661 OFFCURVE",
"255 623 CURVE SMOOTH",
"255 218 LINE SMOOTH",
"255 177 OFFCURVE",
"235 153 OFFCURVE",
"187 153 CURVE SMOOTH",
"149 153 OFFCURVE",
"119 171 OFFCURVE",
"95 189 CURVE SMOOTH",
"79 201 OFFCURVE",
"66 202 OFFCURVE",
"54 182 CURVE SMOOTH",
"4 96 LINE SMOOTH",
"-6 78 OFFCURVE",
"-10 63 OFFCURVE",
"7 51 CURVE SMOOTH",
"60 12 OFFCURVE",
"136 -15 OFFCURVE",
"239 -15 CURVE SMOOTH"
);
},
{
closed = 1;
nodes = (
"273 739 LINE SMOOTH",
"311 739 OFFCURVE",
"322 746 OFFCURVE",
"336 767 CURVE SMOOTH",
"378 832 LINE",
"420 767 LINE SMOOTH",
"434 746 OFFCURVE",
"445 739 OFFCURVE",
"483 739 CURVE SMOOTH",
"572 739 LINE SMOOTH",
"609 739 OFFCURVE",
"619 760 OFFCURVE",
"593 793 CURVE SMOOTH",
"501 910 LINE SMOOTH",
"484 932 OFFCURVE",
"480 939 OFFCURVE",
"440 939 CURVE SMOOTH",
"316 939 LINE SMOOTH",
"276 939 OFFCURVE",
"272 932 OFFCURVE",
"255 910 CURVE SMOOTH",
"163 793 LINE SMOOTH",
"137 760 OFFCURVE",
"147 739 OFFCURVE",
"184 739 CURVE SMOOTH"
);
}
);
width = 593;
}
);
note = Jcircumflex;
unicode = 0134;
},
{
glyphname = K;
lastChange = "2015-07-18 05:53:02 +0000";
layers = (
{
layerId = "14EB8CAA-E485-44FF-8841-EC36E7F264D4";
name = Bold;
paths = (
{
closed = 1;
nodes = (
"214 0 LINE SMOOTH",
"260 0 OFFCURVE",
"275 19 OFFCURVE",
"275 57 CURVE SMOOTH",
"275 228 LINE",
"410 15 LINE SMOOTH",
"418 2 OFFCURVE",
"427 0 OFFCURVE",
"447 0 CURVE SMOOTH",
"632 0 LINE SMOOTH",
"656 0 OFFCURVE",
"663 22 OFFCURVE",
"649 43 CURVE SMOOTH",
"449 344 LINE",
"640 637 LINE SMOOTH",
"654 658 OFFCURVE",
"647 680 OFFCURVE",
"623 680 CURVE SMOOTH",
"438 680 LINE SMOOTH",
"418 680 OFFCURVE",
"408 677 OFFCURVE",
"401 665 CURVE SMOOTH",
"275 459 LINE",
"275 623 LINE SMOOTH",
"275 661 OFFCURVE",
"260 680 OFFCURVE",
"214 680 CURVE SMOOTH",
"95 680 LINE SMOOTH",
"50 680 OFFCURVE",
"35 661 OFFCURVE",
"35 623 CURVE SMOOTH",
"35 57 LINE SMOOTH",
"35 19 OFFCURVE",
"50 0 OFFCURVE",
"95 0 CURVE SMOOTH"
);
}
);
width = 672;
}
);
note = K;
unicode = 004B;
},
{
glyphname = Kcommaaccent;
lastChange = "2015-07-18 05:53:06 +0000";
layers = (
{
layerId = "14EB8CAA-E485-44FF-8841-EC36E7F264D4";
name = Bold;
paths = (
{
closed = 1;
nodes = (
"214 0 LINE SMOOTH",
"260 0 OFFCURVE",
"275 19 OFFCURVE",
"275 57 CURVE SMOOTH",
"275 228 LINE",
"410 15 LINE SMOOTH",
"418 2 OFFCURVE",
"427 0 OFFCURVE",
"447 0 CURVE SMOOTH",
"632 0 LINE SMOOTH",
"656 0 OFFCURVE",
"663 22 OFFCURVE",
"649 43 CURVE SMOOTH",
"449 344 LINE",
"640 637 LINE SMOOTH",
"654 658 OFFCURVE",
"647 680 OFFCURVE",
"623 680 CURVE SMOOTH",
"438 680 LINE SMOOTH",
"418 680 OFFCURVE",
"408 677 OFFCURVE",
"401 665 CURVE SMOOTH",
"275 459 LINE",
"275 623 LINE SMOOTH",
"275 661 OFFCURVE",
"260 680 OFFCURVE",
"214 680 CURVE SMOOTH",
"95 680 LINE SMOOTH",
"50 680 OFFCURVE",
"35 661 OFFCURVE",
"35 623 CURVE SMOOTH",
"35 57 LINE SMOOTH",
"35 19 OFFCURVE",
"50 0 OFFCURVE",
"95 0 CURVE SMOOTH"
);
},
{
closed = 1;
nodes = (
"336 -277 LINE SMOOTH",
"362 -277 OFFCURVE",
"372 -267 OFFCURVE",
"379 -251 CURVE SMOOTH",
"446 -94 LINE SMOOTH",
"464 -52 OFFCURVE",
"456 -36 OFFCURVE",
"411 -36 CURVE SMOOTH",
"317 -36 LINE SMOOTH",
"282 -36 OFFCURVE",
"270 -43 OFFCURVE",
"260 -78 CURVE SMOOTH",
"216 -240 LINE SMOOTH",
"210 -261 OFFCURVE",
"215 -277 OFFCURVE",
"244 -277 CURVE SMOOTH"
);
}
);
width = 672;
}
);
note = Kcommaaccent;
unicode = 0136;
},
{
glyphname = L;
lastChange = "2015-07-18 05:53:02 +0000";
layers = (
{
layerId = "14EB8CAA-E485-44FF-8841-EC36E7F264D4";
name = Bold;
paths = (
{
closed = 1;
nodes = (
"508 0 LINE SMOOTH",
"553 0 OFFCURVE",
"563 19 OFFCURVE",
"563 57 CURVE SMOOTH",
"563 113 LINE SMOOTH",
"563 151 OFFCURVE",
"553 170 OFFCURVE",
"508 170 CURVE SMOOTH",
"275 170 LINE",
"275 623 LINE SMOOTH",
"275 661 OFFCURVE",
"260 680 OFFCURVE",
"214 680 CURVE SMOOTH",
"95 680 LINE SMOOTH",
"50 680 OFFCURVE",
"35 661 OFFCURVE",
"35 623 CURVE SMOOTH",
"35 57 LINE SMOOTH",
"35 19 OFFCURVE",
"50 0 OFFCURVE",
"95 0 CURVE SMOOTH"
);
}
);
width = 558;
}
);
note = L;
unicode = 004C;
},
{
glyphname = Lacute;
lastChange = "2015-07-18 05:53:05 +0000";
layers = (
{
layerId = "14EB8CAA-E485-44FF-8841-EC36E7F264D4";
name = Bold;
paths = (
{
closed = 1;
nodes = (
"508 0 LINE SMOOTH",
"553 0 OFFCURVE",
"563 19 OFFCURVE",
"563 57 CURVE SMOOTH",
"563 113 LINE SMOOTH",
"563 151 OFFCURVE",
"553 170 OFFCURVE",
"508 170 CURVE SMOOTH",
"275 170 LINE",
"275 623 LINE SMOOTH",
"275 661 OFFCURVE",
"260 680 OFFCURVE",
"214 680 CURVE SMOOTH",
"95 680 LINE SMOOTH",
"50 680 OFFCURVE",
"35 661 OFFCURVE",
"35 623 CURVE SMOOTH",
"35 57 LINE SMOOTH",
"35 19 OFFCURVE",
"50 0 OFFCURVE",
"95 0 CURVE SMOOTH"
);
},
{
closed = 1;
nodes = (
"229 712 LINE SMOOTH",
"277 712 OFFCURVE",
"285 720 OFFCURVE",
"303 750 CURVE SMOOTH",
"367 858 LINE SMOOTH",
"388 894 OFFCURVE",
"367 912 OFFCURVE",
"330 912 CURVE SMOOTH",
"187 912 LINE SMOOTH",
"144 912 OFFCURVE",
"137 901 OFFCURVE",
"127 873 CURVE SMOOTH",
"85 757 LINE SMOOTH",
"76 731 OFFCURVE",
"85 712 OFFCURVE",
"122 712 CURVE SMOOTH"
);
}
);
width = 558;
}
);
note = Lacute;
unicode = 0139;
},
{
glyphname = Lcaron;
lastChange = "2015-07-18 05:53:06 +0000";
layers = (
{
layerId = "14EB8CAA-E485-44FF-8841-EC36E7F264D4";
name = Bold;
paths = (
{
closed = 1;
nodes = (
"508 0 LINE SMOOTH",
"553 0 OFFCURVE",
"563 19 OFFCURVE",
"563 57 CURVE SMOOTH",
"563 113 LINE SMOOTH",
"563 151 OFFCURVE",
"553 170 OFFCURVE",
"508 170 CURVE SMOOTH",
"275 170 LINE",
"275 623 LINE SMOOTH",
"275 661 OFFCURVE",
"260 680 OFFCURVE",
"214 680 CURVE SMOOTH",
"95 680 LINE SMOOTH",
"50 680 OFFCURVE",
"35 661 OFFCURVE",
"35 623 CURVE SMOOTH",
"35 57 LINE SMOOTH",
"35 19 OFFCURVE",
"50 0 OFFCURVE",
"95 0 CURVE SMOOTH"
);
},
{
closed = 1;
nodes = (
"482 486 LINE SMOOTH",
"508 486 OFFCURVE",
"518 496 OFFCURVE",
"525 512 CURVE SMOOTH",
"592 669 LINE SMOOTH",
"610 711 OFFCURVE",
"602 727 OFFCURVE",
"557 727 CURVE SMOOTH",
"463 727 LINE SMOOTH",
"428 727 OFFCURVE",
"416 720 OFFCURVE",
"406 685 CURVE SMOOTH",
"362 523 LINE SMOOTH",
"356 502 OFFCURVE",
"361 486 OFFCURVE",
"390 486 CURVE SMOOTH"
);
}
);
width = 598;
}
);
note = Lcaron;
unicode = 013D;
},
{
glyphname = Lcommaaccent;
lastChange = "2015-07-18 05:53:07 +0000";
layers = (
{
layerId = "14EB8CAA-E485-44FF-8841-EC36E7F264D4";
name = Bold;
paths = (
{
closed = 1;
nodes = (
"508 0 LINE SMOOTH",
"553 0 OFFCURVE",
"563 19 OFFCURVE",
"563 57 CURVE SMOOTH",
"563 113 LINE SMOOTH",
"563 151 OFFCURVE",
"553 170 OFFCURVE",
"508 170 CURVE SMOOTH",
"275 170 LINE",
"275 623 LINE SMOOTH",
"275 661 OFFCURVE",
"260 680 OFFCURVE",
"214 680 CURVE SMOOTH",
"95 680 LINE SMOOTH",
"50 680 OFFCURVE",
"35 661 OFFCURVE",
"35 623 CURVE SMOOTH",
"35 57 LINE SMOOTH",
"35 19 OFFCURVE",
"50 0 OFFCURVE",
"95 0 CURVE SMOOTH"
);
},
{
closed = 1;
nodes = (
"296 -277 LINE SMOOTH",
"322 -277 OFFCURVE",
"332 -267 OFFCURVE",
"339 -251 CURVE SMOOTH",
"406 -94 LINE SMOOTH",
"424 -52 OFFCURVE",
"416 -36 OFFCURVE",
"371 -36 CURVE SMOOTH",
"277 -36 LINE SMOOTH",
"242 -36 OFFCURVE",
"230 -43 OFFCURVE",
"220 -78 CURVE SMOOTH",
"176 -240 LINE SMOOTH",
"170 -261 OFFCURVE",
"175 -277 OFFCURVE",
"204 -277 CURVE SMOOTH"
);
}
);
width = 558;
}
);
note = Lcommaaccent;
unicode = 013B;
},
{
glyphname = Ldot;
lastChange = "2015-07-18 05:53:06 +0000";
layers = (
{
layerId = "14EB8CAA-E485-44FF-8841-EC36E7F264D4";
name = Bold;
paths = (
{
closed = 1;
nodes = (
"508 0 LINE SMOOTH",
"553 0 OFFCURVE",
"563 19 OFFCURVE",
"563 57 CURVE SMOOTH",
"563 113 LINE SMOOTH",
"563 151 OFFCURVE",
"553 170 OFFCURVE",
"508 170 CURVE SMOOTH",
"275 170 LINE",
"275 623 LINE SMOOTH",
"275 661 OFFCURVE",
"260 680 OFFCURVE",
"214 680 CURVE SMOOTH",
"95 680 LINE SMOOTH",
"50 680 OFFCURVE",
"35 661 OFFCURVE",
"35 623 CURVE SMOOTH",
"35 57 LINE SMOOTH",
"35 19 OFFCURVE",
"50 0 OFFCURVE",
"95 0 CURVE SMOOTH"
);
},
{
closed = 1;
nodes = (
"442 279 LINE SMOOTH",
"483 279 OFFCURVE",
"510 312 OFFCURVE",
"510 350 CURVE SMOOTH",
"510 379 LINE SMOOTH",
"510 419 OFFCURVE",
"482 450 OFFCURVE",
"442 450 CURVE SMOOTH",
"412 450 LINE SMOOTH",
"372 450 OFFCURVE",
"344 419 OFFCURVE",
"344 379 CURVE SMOOTH",
"344 350 LINE SMOOTH",
"344 312 OFFCURVE",
"372 279 OFFCURVE",
"412 279 CURVE SMOOTH"
);
}
);
width = 558;
}
);
note = Ldot;
unicode = 013F;
},
{
glyphname = Ldotbelow;
lastChange = "2015-07-18 05:53:06 +0000";
layers = (
{
layerId = "14EB8CAA-E485-44FF-8841-EC36E7F264D4";
name = Bold;
paths = (
{
closed = 1;
nodes = (
"508 0 LINE SMOOTH",
"553 0 OFFCURVE",
"563 19 OFFCURVE",
"563 57 CURVE SMOOTH",
"563 113 LINE SMOOTH",
"563 151 OFFCURVE",
"553 170 OFFCURVE",
"508 170 CURVE SMOOTH",
"275 170 LINE",
"275 623 LINE SMOOTH",
"275 661 OFFCURVE",
"260 680 OFFCURVE",
"214 680 CURVE SMOOTH",
"95 680 LINE SMOOTH",
"50 680 OFFCURVE",
"35 661 OFFCURVE",
"35 623 CURVE SMOOTH",
"35 57 LINE SMOOTH",
"35 19 OFFCURVE",
"50 0 OFFCURVE",
"95 0 CURVE SMOOTH"
);
},
{
closed = 1;
nodes = (
"332 -217 LINE SMOOTH",
"373 -217 OFFCURVE",
"400 -184 OFFCURVE",
"400 -146 CURVE SMOOTH",
"400 -117 LINE SMOOTH",
"400 -77 OFFCURVE",
"372 -46 OFFCURVE",
"332 -46 CURVE SMOOTH",
"302 -46 LINE SMOOTH",
"262 -46 OFFCURVE",
"234 -77 OFFCURVE",
"234 -117 CURVE SMOOTH",
"234 -146 LINE SMOOTH",
"234 -184 OFFCURVE",
"262 -217 OFFCURVE",
"302 -217 CURVE SMOOTH"
);
}
);
width = 558;
}
);
note = Ldotbelow;
unicode = 1E36;
},
{
glyphname = Ldotbelowmacron;
lastChange = "2015-07-18 15:49:01 +0000";
layers = (
{
layerId = "14EB8CAA-E485-44FF-8841-EC36E7F264D4";
name = Bold;
paths = (
{
closed = 1;
nodes = (
"508 0 LINE SMOOTH",
"553 0 OFFCURVE",
"563 19 OFFCURVE",
"563 57 CURVE SMOOTH",
"563 113 LINE SMOOTH",
"563 151 OFFCURVE",
"553 170 OFFCURVE",
"508 170 CURVE SMOOTH",
"275 170 LINE",
"275 623 LINE SMOOTH",
"275 661 OFFCURVE",
"260 680 OFFCURVE",
"214 680 CURVE SMOOTH",
"95 680 LINE SMOOTH",
"50 680 OFFCURVE",
"35 661 OFFCURVE",
"35 623 CURVE SMOOTH",
"35 57 LINE SMOOTH",
"35 19 OFFCURVE",
"50 0 OFFCURVE",
"95 0 CURVE SMOOTH"
);
},
{
closed = 1;
nodes = (
"332 -217 LINE SMOOTH",
"373 -217 OFFCURVE",
"400 -184 OFFCURVE",
"400 -146 CURVE SMOOTH",
"400 -117 LINE SMOOTH",
"400 -77 OFFCURVE",
"372 -46 OFFCURVE",
"332 -46 CURVE SMOOTH",
"302 -46 LINE SMOOTH",
"262 -46 OFFCURVE",
"234 -77 OFFCURVE",
"234 -117 CURVE SMOOTH",
"234 -146 LINE SMOOTH",
"234 -184 OFFCURVE",
"262 -217 OFFCURVE",
"302 -217 CURVE SMOOTH"
);
},
{
closed = 1;
nodes = (
"287 730 LINE SMOOTH",
"332 730 OFFCURVE",
"342 749 OFFCURVE",
"342 787 CURVE SMOOTH",
"342 843 LINE SMOOTH",
"342 881 OFFCURVE",
"332 900 OFFCURVE",
"287 900 CURVE SMOOTH",
"20 900 LINE SMOOTH",
"-25 900 OFFCURVE",
"-35 881 OFFCURVE",
"-35 843 CURVE SMOOTH",
"-35 787 LINE SMOOTH",
"-35 749 OFFCURVE",
"-25 730 OFFCURVE",
"20 730 CURVE SMOOTH"
);
}
);
width = 558;
}
);
note = Ldotbelowmacron;
unicode = 1E38;
},
{
glyphname = Llinebelow;
lastChange = "2015-07-18 05:53:07 +0000";
layers = (
{
layerId = "14EB8CAA-E485-44FF-8841-EC36E7F264D4";
name = Bold;
paths = (
{
closed = 1;
nodes = (
"508 0 LINE SMOOTH",
"553 0 OFFCURVE",
"563 19 OFFCURVE",
"563 57 CURVE SMOOTH",
"563 113 LINE SMOOTH",
"563 151 OFFCURVE",
"553 170 OFFCURVE",
"508 170 CURVE SMOOTH",
"275 170 LINE",
"275 623 LINE SMOOTH",
"275 661 OFFCURVE",
"260 680 OFFCURVE",
"214 680 CURVE SMOOTH",
"95 680 LINE SMOOTH",
"50 680 OFFCURVE",
"35 661 OFFCURVE",
"35 623 CURVE SMOOTH",
"35 57 LINE SMOOTH",
"35 19 OFFCURVE",
"50 0 OFFCURVE",
"95 0 CURVE SMOOTH"
);
},
{
closed = 1;
nodes = (
"392 -200 LINE SMOOTH",
"437 -200 OFFCURVE",
"447 -181 OFFCURVE",
"447 -143 CURVE SMOOTH",
"447 -107 LINE SMOOTH",
"447 -69 OFFCURVE",
"437 -50 OFFCURVE",
"392 -50 CURVE SMOOTH",
"158 -50 LINE SMOOTH",
"113 -50 OFFCURVE",
"103 -69 OFFCURVE",
"103 -107 CURVE SMOOTH",
"103 -143 LINE SMOOTH",
"103 -181 OFFCURVE",
"113 -200 OFFCURVE",
"158 -200 CURVE SMOOTH"
);
}
);
width = 558;
}
);
note = Llinebelow;
unicode = 1E3A;
},
{
glyphname = Lslash;
lastChange = "2015-07-18 05:53:07 +0000";
layers = (
{
layerId = "14EB8CAA-E485-44FF-8841-EC36E7F264D4";
name = Bold;
paths = (
{
closed = 1;
nodes = (
"599 0 LINE SMOOTH",
"644 0 OFFCURVE",
"654 19 OFFCURVE",
"654 57 CURVE SMOOTH",
"654 113 LINE SMOOTH",
"654 151 OFFCURVE",
"644 170 OFFCURVE",
"599 170 CURVE SMOOTH",
"366 170 LINE",
"366 623 LINE SMOOTH",
"366 661 OFFCURVE",
"351 680 OFFCURVE",
"305 680 CURVE SMOOTH",
"186 680 LINE SMOOTH",
"141 680 OFFCURVE",
"126 661 OFFCURVE",
"126 623 CURVE SMOOTH",
"126 57 LINE SMOOTH",
"126 19 OFFCURVE",
"141 0 OFFCURVE",
"186 0 CURVE SMOOTH"
);
},
{
closed = 1;
nodes = (
"463 392 LINE SMOOTH",
"476 399 OFFCURVE",
"481 407 OFFCURVE",
"473 420 CURVE SMOOTH",
"414 517 LINE SMOOTH",
"405 531 OFFCURVE",
"397 533 OFFCURVE",
"384 525 CURVE",
"-2 306 LINE SMOOTH",
"-15 299 OFFCURVE",
"-19 290 OFFCURVE",
"-10 276 CURVE SMOOTH",
"48 179 LINE SMOOTH",
"57 165 OFFCURVE",
"65 165 OFFCURVE",
"78 173 CURVE SMOOTH"
);
}
);
width = 649;
}
);
note = Lslash;
unicode = 0141;
},
{
glyphname = M;
lastChange = "2015-07-18 05:53:02 +0000";
layers = (
{
layerId = "14EB8CAA-E485-44FF-8841-EC36E7F264D4";
name = Bold;
paths = (
{
closed = 1;
nodes = (
"191 0 LINE SMOOTH",
"237 0 OFFCURVE",
"252 19 OFFCURVE",
"252 57 CURVE SMOOTH",
"252 330 LINE",
"311 194 LINE SMOOTH",
"325 161 OFFCURVE",
"337 140 OFFCURVE",
"383 140 CURVE SMOOTH",
"429 140 OFFCURVE",
"441 161 OFFCURVE",
"455 194 CURVE SMOOTH",
"514 330 LINE",
"514 57 LINE SMOOTH",
"514 19 OFFCURVE",
"529 0 OFFCURVE",
"575 0 CURVE SMOOTH",
"671 0 LINE SMOOTH",
"716 0 OFFCURVE",
"731 19 OFFCURVE",
"731 57 CURVE SMOOTH",
"731 624 LINE SMOOTH",
"731 662 OFFCURVE",
"716 680 OFFCURVE",
"670 680 CURVE SMOOTH",
"555 680 LINE SMOOTH",
"528 680 OFFCURVE",
"510 676 OFFCURVE",
"500 653 CURVE SMOOTH",
"383 360 LINE",
"266 653 LINE SMOOTH",
"256 676 OFFCURVE",
"238 680 OFFCURVE",
"211 680 CURVE SMOOTH",
"96 680 LINE SMOOTH",
"50 680 OFFCURVE",
"35 662 OFFCURVE",
"35 624 CURVE SMOOTH",
"35 57 LINE SMOOTH",
"35 19 OFFCURVE",
"50 0 OFFCURVE",
"95 0 CURVE SMOOTH"
);
}
);
width = 766;
}
);
note = M;
unicode = 004D;
},
{
glyphname = Mdotbelow;
lastChange = "2015-07-18 05:53:05 +0000";
layers = (
{
layerId = "14EB8CAA-E485-44FF-8841-EC36E7F264D4";
name = Bold;
paths = (
{
closed = 1;
nodes = (
"191 0 LINE SMOOTH",
"237 0 OFFCURVE",
"252 19 OFFCURVE",
"252 57 CURVE SMOOTH",
"252 330 LINE",
"311 194 LINE SMOOTH",
"325 161 OFFCURVE",
"337 140 OFFCURVE",
"383 140 CURVE SMOOTH",
"429 140 OFFCURVE",
"441 161 OFFCURVE",
"455 194 CURVE SMOOTH",
"514 330 LINE",
"514 57 LINE SMOOTH",
"514 19 OFFCURVE",
"529 0 OFFCURVE",
"575 0 CURVE SMOOTH",
"671 0 LINE SMOOTH",
"716 0 OFFCURVE",
"731 19 OFFCURVE",
"731 57 CURVE SMOOTH",
"731 624 LINE SMOOTH",
"731 662 OFFCURVE",
"716 680 OFFCURVE",
"670 680 CURVE SMOOTH",
"555 680 LINE SMOOTH",
"528 680 OFFCURVE",
"510 676 OFFCURVE",
"500 653 CURVE SMOOTH",
"383 360 LINE",
"266 653 LINE SMOOTH",
"256 676 OFFCURVE",
"238 680 OFFCURVE",
"211 680 CURVE SMOOTH",
"96 680 LINE SMOOTH",
"50 680 OFFCURVE",
"35 662 OFFCURVE",
"35 624 CURVE SMOOTH",
"35 57 LINE SMOOTH",
"35 19 OFFCURVE",
"50 0 OFFCURVE",
"95 0 CURVE SMOOTH"
);
},
{
closed = 1;
nodes = (
"406 -217 LINE SMOOTH",
"447 -217 OFFCURVE",
"474 -184 OFFCURVE",
"474 -146 CURVE SMOOTH",
"474 -117 LINE SMOOTH",
"474 -77 OFFCURVE",
"446 -46 OFFCURVE",
"406 -46 CURVE SMOOTH",
"376 -46 LINE SMOOTH",
"336 -46 OFFCURVE",
"308 -77 OFFCURVE",
"308 -117 CURVE SMOOTH",
"308 -146 LINE SMOOTH",
"308 -184 OFFCURVE",
"336 -217 OFFCURVE",
"376 -217 CURVE SMOOTH"
);
}
);
width = 766;
}
);
note = Mdotbelow;
unicode = 1E42;
},
{
glyphname = N;
lastChange = "2015-07-18 05:53:02 +0000";
layers = (
{
layerId = "14EB8CAA-E485-44FF-8841-EC36E7F264D4";
name = Bold;
paths = (
{
closed = 1;
nodes = (
"214 0 LINE SMOOTH",
"260 0 OFFCURVE",
"275 18 OFFCURVE",
"275 56 CURVE SMOOTH",
"275 296 LINE",
"456 27 LINE SMOOTH",
"471 5 OFFCURVE",
"484 0 OFFCURVE",
"511 0 CURVE SMOOTH",
"606 0 LINE SMOOTH",
"652 0 OFFCURVE",
"667 18 OFFCURVE",
"667 56 CURVE SMOOTH",
"667 623 LINE SMOOTH",
"667 661 OFFCURVE",
"652 680 OFFCURVE",
"606 680 CURVE SMOOTH",
"487 680 LINE SMOOTH",
"442 680 OFFCURVE",
"427 661 OFFCURVE",
"427 623 CURVE SMOOTH",
"427 384 LINE",
"246 653 LINE SMOOTH",
"231 675 OFFCURVE",
"218 680 OFFCURVE",
"191 680 CURVE SMOOTH",
"96 680 LINE SMOOTH",
"50 680 OFFCURVE",
"35 662 OFFCURVE",
"35 624 CURVE SMOOTH",
"35 57 LINE SMOOTH",
"35 19 OFFCURVE",
"50 0 OFFCURVE",
"95 0 CURVE SMOOTH"
);
}
);
width = 702;
}
);
note = N;
unicode = 004E;
},
{
glyphname = Nacute;
lastChange = "2015-07-18 05:53:06 +0000";
layers = (
{
layerId = "14EB8CAA-E485-44FF-8841-EC36E7F264D4";
name = Bold;
paths = (
{
closed = 1;
nodes = (
"214 0 LINE SMOOTH",
"260 0 OFFCURVE",
"275 18 OFFCURVE",
"275 56 CURVE SMOOTH",
"275 296 LINE",
"456 27 LINE SMOOTH",
"471 5 OFFCURVE",
"484 0 OFFCURVE",
"511 0 CURVE SMOOTH",
"606 0 LINE SMOOTH",
"652 0 OFFCURVE",
"667 18 OFFCURVE",
"667 56 CURVE SMOOTH",
"667 623 LINE SMOOTH",
"667 661 OFFCURVE",
"652 680 OFFCURVE",
"606 680 CURVE SMOOTH",
"487 680 LINE SMOOTH",
"442 680 OFFCURVE",
"427 661 OFFCURVE",
"427 623 CURVE SMOOTH",
"427 384 LINE",
"246 653 LINE SMOOTH",
"231 675 OFFCURVE",
"218 680 OFFCURVE",
"191 680 CURVE SMOOTH",
"96 680 LINE SMOOTH",
"50 680 OFFCURVE",
"35 662 OFFCURVE",
"35 624 CURVE SMOOTH",
"35 57 LINE SMOOTH",
"35 19 OFFCURVE",
"50 0 OFFCURVE",
"95 0 CURVE SMOOTH"
);
},
{
closed = 1;
nodes = (
"381 724 LINE SMOOTH",
"429 724 OFFCURVE",
"437 732 OFFCURVE",
"455 762 CURVE SMOOTH",
"519 870 LINE SMOOTH",
"540 906 OFFCURVE",
"519 924 OFFCURVE",
"482 924 CURVE SMOOTH",
"339 924 LINE SMOOTH",
"296 924 OFFCURVE",
"289 913 OFFCURVE",
"279 885 CURVE SMOOTH",
"237 769 LINE SMOOTH",
"228 743 OFFCURVE",
"237 724 OFFCURVE",
"274 724 CURVE SMOOTH"
);
}
);
width = 702;
}
);
note = Nacute;
unicode = 0143;
},
{
glyphname = Ncaron;
lastChange = "2015-07-18 05:53:06 +0000";
layers = (
{
layerId = "14EB8CAA-E485-44FF-8841-EC36E7F264D4";
name = Bold;
paths = (
{
closed = 1;
nodes = (
"214 0 LINE SMOOTH",
"260 0 OFFCURVE",
"275 18 OFFCURVE",
"275 56 CURVE SMOOTH",
"275 296 LINE",
"456 27 LINE SMOOTH",
"471 5 OFFCURVE",
"484 0 OFFCURVE",
"511 0 CURVE SMOOTH",
"606 0 LINE SMOOTH",
"652 0 OFFCURVE",
"667 18 OFFCURVE",
"667 56 CURVE SMOOTH",
"667 623 LINE SMOOTH",
"667 661 OFFCURVE",
"652 680 OFFCURVE",
"606 680 CURVE SMOOTH",
"487 680 LINE SMOOTH",
"442 680 OFFCURVE",
"427 661 OFFCURVE",
"427 623 CURVE SMOOTH",
"427 384 LINE",
"246 653 LINE SMOOTH",
"231 675 OFFCURVE",
"218 680 OFFCURVE",
"191 680 CURVE SMOOTH",
"96 680 LINE SMOOTH",
"50 680 OFFCURVE",
"35 662 OFFCURVE",
"35 624 CURVE SMOOTH",
"35 57 LINE SMOOTH",
"35 19 OFFCURVE",
"50 0 OFFCURVE",
"95 0 CURVE SMOOTH"
);
},
{
closed = 1;
nodes = (
"413 736 LINE SMOOTH",
"453 736 OFFCURVE",
"457 743 OFFCURVE",
"474 765 CURVE SMOOTH",
"566 882 LINE SMOOTH",
"592 915 OFFCURVE",
"582 936 OFFCURVE",
"545 936 CURVE SMOOTH",
"456 936 LINE SMOOTH",
"418 936 OFFCURVE",
"407 929 OFFCURVE",
"393 908 CURVE SMOOTH",
"351 843 LINE",
"309 908 LINE SMOOTH",
"295 929 OFFCURVE",
"284 936 OFFCURVE",
"246 936 CURVE SMOOTH",
"157 936 LINE SMOOTH",
"120 936 OFFCURVE",
"110 915 OFFCURVE",
"136 882 CURVE SMOOTH",
"228 765 LINE SMOOTH",
"245 743 OFFCURVE",
"249 736 OFFCURVE",
"289 736 CURVE SMOOTH"
);
}
);
width = 702;
}
);
note = Ncaron;
unicode = 0147;
},
{
glyphname = Ncommaaccent;
lastChange = "2015-07-18 05:53:06 +0000";
layers = (
{
layerId = "14EB8CAA-E485-44FF-8841-EC36E7F264D4";
name = Bold;
paths = (
{
closed = 1;
nodes = (
"214 0 LINE SMOOTH",
"260 0 OFFCURVE",
"275 18 OFFCURVE",
"275 56 CURVE SMOOTH",
"275 296 LINE",
"456 27 LINE SMOOTH",
"471 5 OFFCURVE",
"484 0 OFFCURVE",
"511 0 CURVE SMOOTH",
"606 0 LINE SMOOTH",
"652 0 OFFCURVE",
"667 18 OFFCURVE",
"667 56 CURVE SMOOTH",
"667 623 LINE SMOOTH",
"667 661 OFFCURVE",
"652 680 OFFCURVE",
"606 680 CURVE SMOOTH",
"487 680 LINE SMOOTH",
"442 680 OFFCURVE",
"427 661 OFFCURVE",
"427 623 CURVE SMOOTH",
"427 384 LINE",
"246 653 LINE SMOOTH",
"231 675 OFFCURVE",
"218 680 OFFCURVE",
"191 680 CURVE SMOOTH",
"96 680 LINE SMOOTH",
"50 680 OFFCURVE",
"35 662 OFFCURVE",
"35 624 CURVE SMOOTH",
"35 57 LINE SMOOTH",
"35 19 OFFCURVE",
"50 0 OFFCURVE",
"95 0 CURVE SMOOTH"
);
},
{
closed = 1;
nodes = (
"350 -277 LINE SMOOTH",
"376 -277 OFFCURVE",
"386 -267 OFFCURVE",
"393 -251 CURVE SMOOTH",
"460 -94 LINE SMOOTH",
"478 -52 OFFCURVE",
"470 -36 OFFCURVE",
"425 -36 CURVE SMOOTH",
"331 -36 LINE SMOOTH",
"296 -36 OFFCURVE",
"284 -43 OFFCURVE",
"274 -78 CURVE SMOOTH",
"230 -240 LINE SMOOTH",
"224 -261 OFFCURVE",
"229 -277 OFFCURVE",
"258 -277 CURVE SMOOTH"
);
}
);
width = 702;
}
);
note = Ncommaaccent;
unicode = 0145;
},
{
glyphname = Ndotaccent;
lastChange = "2015-07-18 05:53:05 +0000";
layers = (
{
layerId = "14EB8CAA-E485-44FF-8841-EC36E7F264D4";
name = Bold;
paths = (
{
closed = 1;
nodes = (
"214 0 LINE SMOOTH",
"260 0 OFFCURVE",
"275 18 OFFCURVE",
"275 56 CURVE SMOOTH",
"275 296 LINE",
"456 27 LINE SMOOTH",
"471 5 OFFCURVE",
"484 0 OFFCURVE",
"511 0 CURVE SMOOTH",
"606 0 LINE SMOOTH",
"652 0 OFFCURVE",
"667 18 OFFCURVE",
"667 56 CURVE SMOOTH",
"667 623 LINE SMOOTH",
"667 661 OFFCURVE",
"652 680 OFFCURVE",
"606 680 CURVE SMOOTH",
"487 680 LINE SMOOTH",
"442 680 OFFCURVE",
"427 661 OFFCURVE",
"427 623 CURVE SMOOTH",
"427 384 LINE",
"246 653 LINE SMOOTH",
"231 675 OFFCURVE",
"218 680 OFFCURVE",
"191 680 CURVE SMOOTH",
"96 680 LINE SMOOTH",
"50 680 OFFCURVE",
"35 662 OFFCURVE",
"35 624 CURVE SMOOTH",
"35 57 LINE SMOOTH",
"35 19 OFFCURVE",
"50 0 OFFCURVE",
"95 0 CURVE SMOOTH"
);
},
{
closed = 1;
nodes = (
"364 729 LINE SMOOTH",
"405 729 OFFCURVE",
"432 762 OFFCURVE",
"432 800 CURVE SMOOTH",
"432 829 LINE SMOOTH",
"432 869 OFFCURVE",
"404 900 OFFCURVE",
"364 900 CURVE SMOOTH",
"334 900 LINE SMOOTH",
"294 900 OFFCURVE",
"266 869 OFFCURVE",
"266 829 CURVE SMOOTH",
"266 800 LINE SMOOTH",
"266 762 OFFCURVE",
"294 729 OFFCURVE",
"334 729 CURVE SMOOTH"
);
}
);
width = 702;
}
);
note = Ndotaccent;
unicode = 1E44;
},
{
glyphname = Ndotbelow;
lastChange = "2015-07-18 05:53:05 +0000";
layers = (
{
layerId = "14EB8CAA-E485-44FF-8841-EC36E7F264D4";
name = Bold;
paths = (
{
closed = 1;
nodes = (
"214 0 LINE SMOOTH",
"260 0 OFFCURVE",
"275 18 OFFCURVE",
"275 56 CURVE SMOOTH",
"275 296 LINE",
"456 27 LINE SMOOTH",
"471 5 OFFCURVE",
"484 0 OFFCURVE",
"511 0 CURVE SMOOTH",
"606 0 LINE SMOOTH",
"652 0 OFFCURVE",
"667 18 OFFCURVE",
"667 56 CURVE SMOOTH",
"667 623 LINE SMOOTH",
"667 661 OFFCURVE",
"652 680 OFFCURVE",
"606 680 CURVE SMOOTH",
"487 680 LINE SMOOTH",
"442 680 OFFCURVE",
"427 661 OFFCURVE",
"427 623 CURVE SMOOTH",
"427 384 LINE",
"246 653 LINE SMOOTH",
"231 675 OFFCURVE",
"218 680 OFFCURVE",
"191 680 CURVE SMOOTH",
"96 680 LINE SMOOTH",
"50 680 OFFCURVE",
"35 662 OFFCURVE",
"35 624 CURVE SMOOTH",
"35 57 LINE SMOOTH",
"35 19 OFFCURVE",
"50 0 OFFCURVE",
"95 0 CURVE SMOOTH"
);
},
{
closed = 1;
nodes = (
"384 -217 LINE SMOOTH",
"425 -217 OFFCURVE",
"452 -184 OFFCURVE",
"452 -146 CURVE SMOOTH",
"452 -117 LINE SMOOTH",
"452 -77 OFFCURVE",
"424 -46 OFFCURVE",
"384 -46 CURVE SMOOTH",
"354 -46 LINE SMOOTH",
"314 -46 OFFCURVE",
"286 -77 OFFCURVE",
"286 -117 CURVE SMOOTH",
"286 -146 LINE SMOOTH",
"286 -184 OFFCURVE",
"314 -217 OFFCURVE",
"354 -217 CURVE SMOOTH"
);
}
);
width = 702;
}
);
note = Ndotbelow;
unicode = 1E46;
},
{
glyphname = Eng;
lastChange = "2015-07-18 05:53:07 +0000";
layers = (
{
layerId = "14EB8CAA-E485-44FF-8841-EC36E7F264D4";
name = Bold;
paths = (
{
closed = 1;
nodes = (
"214 0 LINE SMOOTH",
"260 0 OFFCURVE",
"275 18 OFFCURVE",
"275 56 CURVE SMOOTH",
"275 296 LINE",
"456 27 LINE SMOOTH",
"471 5 OFFCURVE",
"484 0 OFFCURVE",
"511 0 CURVE SMOOTH",
"606 0 LINE SMOOTH",
"652 0 OFFCURVE",
"667 18 OFFCURVE",
"667 56 CURVE SMOOTH",
"667 623 LINE SMOOTH",
"667 661 OFFCURVE",
"652 680 OFFCURVE",
"606 680 CURVE SMOOTH",
"487 680 LINE SMOOTH",
"442 680 OFFCURVE",
"427 661 OFFCURVE",
"427 623 CURVE SMOOTH",
"427 384 LINE",
"246 653 LINE SMOOTH",
"231 675 OFFCURVE",
"218 680 OFFCURVE",
"191 680 CURVE SMOOTH",
"96 680 LINE SMOOTH",
"50 680 OFFCURVE",
"35 662 OFFCURVE",
"35 624 CURVE SMOOTH",
"35 57 LINE SMOOTH",
"35 19 OFFCURVE",
"50 0 OFFCURVE",
"95 0 CURVE SMOOTH"
);
},
{
closed = 1;
nodes = (
"581 -233 OFFCURVE",
"667 -140 OFFCURVE",
"667 -2 CURVE SMOOTH",
"667 405 LINE SMOOTH",
"667 443 OFFCURVE",
"652 462 OFFCURVE",
"606 462 CURVE SMOOTH",
"487 462 LINE SMOOTH",
"442 462 OFFCURVE",
"427 443 OFFCURVE",
"427 405 CURVE SMOOTH",
"427 0 LINE SMOOTH",
"427 -41 OFFCURVE",
"407 -65 OFFCURVE",
"359 -65 CURVE SMOOTH",
"321 -65 OFFCURVE",
"291 -47 OFFCURVE",
"267 -29 CURVE SMOOTH",
"251 -17 OFFCURVE",
"238 -16 OFFCURVE",
"226 -36 CURVE SMOOTH",
"176 -122 LINE SMOOTH",
"166 -140 OFFCURVE",
"162 -155 OFFCURVE",
"179 -167 CURVE SMOOTH",
"232 -206 OFFCURVE",
"308 -233 OFFCURVE",
"411 -233 CURVE SMOOTH"
);
}
);
width = 702;
}
);
note = Eng;
unicode = 014A;
},
{
glyphname = Nlinebelow;
lastChange = "2015-07-18 05:53:05 +0000";
layers = (
{
layerId = "14EB8CAA-E485-44FF-8841-EC36E7F264D4";
name = Bold;
paths = (
{
closed = 1;
nodes = (
"214 0 LINE SMOOTH",
"260 0 OFFCURVE",
"275 18 OFFCURVE",
"275 56 CURVE SMOOTH",
"275 296 LINE",
"456 27 LINE SMOOTH",
"471 5 OFFCURVE",
"484 0 OFFCURVE",
"511 0 CURVE SMOOTH",
"606 0 LINE SMOOTH",
"652 0 OFFCURVE",
"667 18 OFFCURVE",
"667 56 CURVE SMOOTH",
"667 623 LINE SMOOTH",
"667 661 OFFCURVE",
"652 680 OFFCURVE",
"606 680 CURVE SMOOTH",
"487 680 LINE SMOOTH",
"442 680 OFFCURVE",
"427 661 OFFCURVE",
"427 623 CURVE SMOOTH",
"427 384 LINE",
"246 653 LINE SMOOTH",
"231 675 OFFCURVE",
"218 680 OFFCURVE",
"191 680 CURVE SMOOTH",
"96 680 LINE SMOOTH",
"50 680 OFFCURVE",
"35 662 OFFCURVE",
"35 624 CURVE SMOOTH",
"35 57 LINE SMOOTH",
"35 19 OFFCURVE",
"50 0 OFFCURVE",
"95 0 CURVE SMOOTH"
);
},
{
closed = 1;
nodes = (
"468 -200 LINE SMOOTH",
"513 -200 OFFCURVE",
"523 -181 OFFCURVE",
"523 -143 CURVE SMOOTH",
"523 -107 LINE SMOOTH",
"523 -69 OFFCURVE",
"513 -50 OFFCURVE",
"468 -50 CURVE SMOOTH",
"234 -50 LINE SMOOTH",
"189 -50 OFFCURVE",
"179 -69 OFFCURVE",
"179 -107 CURVE SMOOTH",
"179 -143 LINE SMOOTH",
"179 -181 OFFCURVE",
"189 -200 OFFCURVE",
"234 -200 CURVE SMOOTH"
);
}
);
width = 702;
}
);
note = Nlinebelow;
unicode = 1E48;
},
{
glyphname = Ntilde;
lastChange = "2015-07-18 05:53:07 +0000";
layers = (
{
layerId = "14EB8CAA-E485-44FF-8841-EC36E7F264D4";
name = Bold;
paths = (
{
closed = 1;
nodes = (
"214 0 LINE SMOOTH",
"260 0 OFFCURVE",
"275 18 OFFCURVE",
"275 56 CURVE SMOOTH",
"275 296 LINE",
"456 27 LINE SMOOTH",
"471 5 OFFCURVE",
"484 0 OFFCURVE",
"511 0 CURVE SMOOTH",
"606 0 LINE SMOOTH",
"652 0 OFFCURVE",
"667 18 OFFCURVE",
"667 56 CURVE SMOOTH",
"667 623 LINE SMOOTH",
"667 661 OFFCURVE",
"652 680 OFFCURVE",
"606 680 CURVE SMOOTH",
"487 680 LINE SMOOTH",
"442 680 OFFCURVE",
"427 661 OFFCURVE",
"427 623 CURVE SMOOTH",
"427 384 LINE",
"246 653 LINE SMOOTH",
"231 675 OFFCURVE",
"218 680 OFFCURVE",
"191 680 CURVE SMOOTH",
"96 680 LINE SMOOTH",
"50 680 OFFCURVE",
"35 662 OFFCURVE",
"35 624 CURVE SMOOTH",
"35 57 LINE SMOOTH",
"35 19 OFFCURVE",
"50 0 OFFCURVE",
"95 0 CURVE SMOOTH"
);
},
{
closed = 1;
nodes = (
"501 729 OFFCURVE",
"534 758 OFFCURVE",
"576 819 CURVE SMOOTH",
"601 855 OFFCURVE",
"597 872 OFFCURVE",
"554 904 CURVE SMOOTH",
"510 937 OFFCURVE",
"487 945 OFFCURVE",
"468 922 CURVE SMOOTH",
"448 898 OFFCURVE",
"438 889 OFFCURVE",
"415 889 CURVE SMOOTH",
"372 889 OFFCURVE",
"337 938 OFFCURVE",
"259 938 CURVE SMOOTH",
"198 938 OFFCURVE",
"165 907 OFFCURVE",
"123 846 CURVE SMOOTH",
"98 810 OFFCURVE",
"104 795 OFFCURVE",
"147 763 CURVE SMOOTH",
"191 730 OFFCURVE",
"214 722 OFFCURVE",
"233 745 CURVE SMOOTH",
"253 769 OFFCURVE",
"266 778 OFFCURVE",
"290 778 CURVE SMOOTH",
"339 778 OFFCURVE",
"379 729 OFFCURVE",
"440 729 CURVE SMOOTH"
);
}
);
width = 702;
}
);
note = Ntilde;
unicode = 00D1;
},
{
glyphname = O;
lastChange = "2015-07-18 05:53:06 +0000";
layers = (
{
layerId = "14EB8CAA-E485-44FF-8841-EC36E7F264D4";
name = Bold;
paths = (
{
closed = 1;
nodes = (
"618 -15 OFFCURVE",
"739 116 OFFCURVE",
"739 340 CURVE SMOOTH",
"739 564 OFFCURVE",
"618 695 OFFCURVE",
"377 695 CURVE SMOOTH",
"136 695 OFFCURVE",
"15 564 OFFCURVE",
"15 340 CURVE SMOOTH",
"15 116 OFFCURVE",
"136 -15 OFFCURVE",
"377 -15 CURVE SMOOTH"
);
},
{
closed = 1;
nodes = (
"288 153 OFFCURVE",
"254 218 OFFCURVE",
"254 340 CURVE SMOOTH",
"254 463 OFFCURVE",
"288 527 OFFCURVE",
"377 527 CURVE SMOOTH",
"466 527 OFFCURVE",
"500 463 OFFCURVE",
"500 340 CURVE SMOOTH",
"500 218 OFFCURVE",
"466 153 OFFCURVE",
"377 153 CURVE SMOOTH"
);
}
);
width = 754;
}
);
note = O;
unicode = 004F;
},
{
glyphname = Oacute;
lastChange = "2015-07-18 05:53:07 +0000";
layers = (
{
layerId = "14EB8CAA-E485-44FF-8841-EC36E7F264D4";
name = Bold;
paths = (
{
closed = 1;
nodes = (
"618 -15 OFFCURVE",
"739 116 OFFCURVE",
"739 340 CURVE SMOOTH",
"739 564 OFFCURVE",
"618 695 OFFCURVE",
"377 695 CURVE SMOOTH",
"136 695 OFFCURVE",
"15 564 OFFCURVE",
"15 340 CURVE SMOOTH",
"15 116 OFFCURVE",
"136 -15 OFFCURVE",
"377 -15 CURVE SMOOTH"
);
},
{
closed = 1;
nodes = (
"288 153 OFFCURVE",
"254 218 OFFCURVE",
"254 340 CURVE SMOOTH",
"254 463 OFFCURVE",
"288 527 OFFCURVE",
"377 527 CURVE SMOOTH",
"466 527 OFFCURVE",
"500 463 OFFCURVE",
"500 340 CURVE SMOOTH",
"500 218 OFFCURVE",
"466 153 OFFCURVE",
"377 153 CURVE SMOOTH"
);
},
{
closed = 1;
nodes = (
"418 736 LINE SMOOTH",
"466 736 OFFCURVE",
"474 744 OFFCURVE",
"492 774 CURVE SMOOTH",
"556 882 LINE SMOOTH",
"577 918 OFFCURVE",
"556 936 OFFCURVE",
"519 936 CURVE SMOOTH",
"376 936 LINE SMOOTH",
"333 936 OFFCURVE",
"326 925 OFFCURVE",
"316 897 CURVE SMOOTH",
"274 781 LINE SMOOTH",
"265 755 OFFCURVE",
"274 736 OFFCURVE",
"311 736 CURVE SMOOTH"
);
}
);
width = 754;
}
);
note = Oacute;
unicode = 00D3;
},
{
glyphname = Obreve;
lastChange = "2015-07-18 05:53:06 +0000";
layers = (
{
layerId = "14EB8CAA-E485-44FF-8841-EC36E7F264D4";
name = Bold;
paths = (
{
closed = 1;
nodes = (
"618 -15 OFFCURVE",
"739 116 OFFCURVE",
"739 340 CURVE SMOOTH",
"739 564 OFFCURVE",
"618 695 OFFCURVE",
"377 695 CURVE SMOOTH",
"136 695 OFFCURVE",
"15 564 OFFCURVE",
"15 340 CURVE SMOOTH",
"15 116 OFFCURVE",
"136 -15 OFFCURVE",
"377 -15 CURVE SMOOTH"
);
},
{
closed = 1;
nodes = (
"288 153 OFFCURVE",
"254 218 OFFCURVE",
"254 340 CURVE SMOOTH",
"254 463 OFFCURVE",
"288 527 OFFCURVE",
"377 527 CURVE SMOOTH",
"466 527 OFFCURVE",
"500 463 OFFCURVE",
"500 340 CURVE SMOOTH",
"500 218 OFFCURVE",
"466 153 OFFCURVE",
"377 153 CURVE SMOOTH"
);
},
{
closed = 1;
nodes = (
"513 727 OFFCURVE",
"580 804 OFFCURVE",
"580 904 CURVE SMOOTH",
"580 915 OFFCURVE",
"574 922 OFFCURVE",
"564 922 CURVE SMOOTH",
"435 922 LINE SMOOTH",
"421 922 OFFCURVE",
"418 915 OFFCURVE",
"418 903 CURVE SMOOTH",
"418 879 OFFCURVE",
"403 867 OFFCURVE",
"379 867 CURVE SMOOTH",
"355 867 OFFCURVE",
"340 879 OFFCURVE",
"340 903 CURVE SMOOTH",
"340 915 OFFCURVE",
"337 922 OFFCURVE",
"323 922 CURVE SMOOTH",
"194 922 LINE SMOOTH",
"184 922 OFFCURVE",
"178 915 OFFCURVE",
"178 904 CURVE SMOOTH",
"178 804 OFFCURVE",
"244 727 OFFCURVE",
"379 727 CURVE SMOOTH"
);
}
);
width = 754;
}
);
note = Obreve;
unicode = 014E;
},
{
glyphname = Ocaron;
lastChange = "2015-07-18 05:53:06 +0000";
layers = (
{
layerId = "14EB8CAA-E485-44FF-8841-EC36E7F264D4";
name = Bold;
paths = (
{
closed = 1;
nodes = (
"618 -15 OFFCURVE",
"739 116 OFFCURVE",
"739 340 CURVE SMOOTH",
"739 564 OFFCURVE",
"618 695 OFFCURVE",
"377 695 CURVE SMOOTH",
"136 695 OFFCURVE",
"15 564 OFFCURVE",
"15 340 CURVE SMOOTH",
"15 116 OFFCURVE",
"136 -15 OFFCURVE",
"377 -15 CURVE SMOOTH"
);
},
{
closed = 1;
nodes = (
"288 153 OFFCURVE",
"254 218 OFFCURVE",
"254 340 CURVE SMOOTH",
"254 463 OFFCURVE",
"288 527 OFFCURVE",
"377 527 CURVE SMOOTH",
"466 527 OFFCURVE",
"500 463 OFFCURVE",
"500 340 CURVE SMOOTH",
"500 218 OFFCURVE",
"466 153 OFFCURVE",
"377 153 CURVE SMOOTH"
);
},
{
closed = 1;
nodes = (
"439 736 LINE SMOOTH",
"479 736 OFFCURVE",
"483 743 OFFCURVE",
"500 765 CURVE SMOOTH",
"592 882 LINE SMOOTH",
"618 915 OFFCURVE",
"608 936 OFFCURVE",
"571 936 CURVE SMOOTH",
"482 936 LINE SMOOTH",
"444 936 OFFCURVE",
"433 929 OFFCURVE",
"419 908 CURVE SMOOTH",
"377 843 LINE",
"335 908 LINE SMOOTH",
"321 929 OFFCURVE",
"310 936 OFFCURVE",
"272 936 CURVE SMOOTH",
"183 936 LINE SMOOTH",
"146 936 OFFCURVE",
"136 915 OFFCURVE",
"162 882 CURVE SMOOTH",
"254 765 LINE SMOOTH",
"271 743 OFFCURVE",
"275 736 OFFCURVE",
"315 736 CURVE SMOOTH"
);
}
);
width = 754;
}
);
note = Ocaron;
unicode = 01D1;
},
{
glyphname = Ocircumflex;
lastChange = "2015-07-18 06:14:12 +0000";
layers = (
{
layerId = "14EB8CAA-E485-44FF-8841-EC36E7F264D4";
name = Bold;
paths = (
{
closed = 1;
nodes = (
"618 -15 OFFCURVE",
"739 116 OFFCURVE",
"739 340 CURVE SMOOTH",
"739 564 OFFCURVE",
"618 695 OFFCURVE",
"377 695 CURVE SMOOTH",
"136 695 OFFCURVE",
"15 564 OFFCURVE",
"15 340 CURVE SMOOTH",
"15 116 OFFCURVE",
"136 -15 OFFCURVE",
"377 -15 CURVE SMOOTH"
);
},
{
closed = 1;
nodes = (
"288 153 OFFCURVE",
"254 218 OFFCURVE",
"254 340 CURVE SMOOTH",
"254 463 OFFCURVE",
"288 527 OFFCURVE",
"377 527 CURVE SMOOTH",
"466 527 OFFCURVE",
"500 463 OFFCURVE",
"500 340 CURVE SMOOTH",
"500 218 OFFCURVE",
"466 153 OFFCURVE",
"377 153 CURVE SMOOTH"
);
},
{
closed = 1;
nodes = (
"277 739 LINE SMOOTH",
"315 739 OFFCURVE",
"326 746 OFFCURVE",
"340 767 CURVE SMOOTH",
"382 832 LINE",
"424 767 LINE SMOOTH",
"438 746 OFFCURVE",
"449 739 OFFCURVE",
"487 739 CURVE SMOOTH",
"576 739 LINE SMOOTH",
"613 739 OFFCURVE",
"623 760 OFFCURVE",
"597 793 CURVE SMOOTH",
"505 910 LINE SMOOTH",
"488 932 OFFCURVE",
"484 939 OFFCURVE",
"444 939 CURVE SMOOTH",
"320 939 LINE SMOOTH",
"280 939 OFFCURVE",
"276 932 OFFCURVE",
"259 910 CURVE SMOOTH",
"167 793 LINE SMOOTH",
"141 760 OFFCURVE",
"151 739 OFFCURVE",
"188 739 CURVE SMOOTH"
);
}
);
width = 754;
}
);
note = Ocircumflex;
unicode = 00D4;
},
{
glyphname = Ocircumflexacute;
lastChange = "2015-07-18 06:14:08 +0000";
layers = (
{
layerId = "14EB8CAA-E485-44FF-8841-EC36E7F264D4";
name = Bold;
paths = (
{
closed = 1;
nodes = (
"618 -15 OFFCURVE",
"739 116 OFFCURVE",
"739 340 CURVE SMOOTH",
"739 564 OFFCURVE",
"618 695 OFFCURVE",
"377 695 CURVE SMOOTH",
"136 695 OFFCURVE",
"15 564 OFFCURVE",
"15 340 CURVE SMOOTH",
"15 116 OFFCURVE",
"136 -15 OFFCURVE",
"377 -15 CURVE SMOOTH"
);
},
{
closed = 1;
nodes = (
"288 153 OFFCURVE",
"254 218 OFFCURVE",
"254 340 CURVE SMOOTH",
"254 463 OFFCURVE",
"288 527 OFFCURVE",
"377 527 CURVE SMOOTH",
"466 527 OFFCURVE",
"500 463 OFFCURVE",
"500 340 CURVE SMOOTH",
"500 218 OFFCURVE",
"466 153 OFFCURVE",
"377 153 CURVE SMOOTH"
);
},
{
closed = 1;
nodes = (
"275 718 LINE SMOOTH",
"313 718 OFFCURVE",
"325 725 OFFCURVE",
"338 746 CURVE SMOOTH",
"375 806 LINE",
"412 746 LINE SMOOTH",
"425 725 OFFCURVE",
"437 718 OFFCURVE",
"475 718 CURVE SMOOTH",
"559 718 LINE SMOOTH",
"596 718 OFFCURVE",
"606 739 OFFCURVE",
"580 772 CURVE SMOOTH",
"488 889 LINE SMOOTH",
"471 911 OFFCURVE",
"467 918 OFFCURVE",
"427 918 CURVE SMOOTH",
"323 918 LINE SMOOTH",
"283 918 OFFCURVE",
"279 911 OFFCURVE",
"262 889 CURVE SMOOTH",
"170 772 LINE SMOOTH",
"144 739 OFFCURVE",
"154 718 OFFCURVE",
"191 718 CURVE SMOOTH"
);
},
{
closed = 1;
nodes = (
"584 886 LINE SMOOTH",
"626 886 OFFCURVE",
"633 890 OFFCURVE",
"653 924 CURVE SMOOTH",
"692 990 LINE SMOOTH",
"711 1022 OFFCURVE",
"703 1044 OFFCURVE",
"668 1044 CURVE SMOOTH",
"583 1044 LINE SMOOTH",
"547 1044 OFFCURVE",
"542 1033 OFFCURVE",
"532 1005 CURVE SMOOTH",
"502 924 LINE SMOOTH",
"494 903 OFFCURVE",
"505 886 OFFCURVE",
"533 886 CURVE SMOOTH"
);
}
);
width = 754;
}
);
note = Ocircumflexacute;
unicode = 1ED0;
},
{
glyphname = Ocircumflexdotbelow;
lastChange = "2015-07-18 05:53:06 +0000";
layers = (
{
layerId = "14EB8CAA-E485-44FF-8841-EC36E7F264D4";
name = Bold;
paths = (
{
closed = 1;
nodes = (
"618 -15 OFFCURVE",
"739 116 OFFCURVE",
"739 340 CURVE SMOOTH",
"739 564 OFFCURVE",
"618 695 OFFCURVE",
"377 695 CURVE SMOOTH",
"136 695 OFFCURVE",
"15 564 OFFCURVE",
"15 340 CURVE SMOOTH",
"15 116 OFFCURVE",
"136 -15 OFFCURVE",
"377 -15 CURVE SMOOTH"
);
},
{
closed = 1;
nodes = (
"390 -217 LINE SMOOTH",
"431 -217 OFFCURVE",
"458 -184 OFFCURVE",
"458 -146 CURVE SMOOTH",
"458 -117 LINE SMOOTH",
"458 -77 OFFCURVE",
"430 -46 OFFCURVE",
"390 -46 CURVE SMOOTH",
"360 -46 LINE SMOOTH",
"320 -46 OFFCURVE",
"292 -77 OFFCURVE",
"292 -117 CURVE SMOOTH",
"292 -146 LINE SMOOTH",
"292 -184 OFFCURVE",
"320 -217 OFFCURVE",
"360 -217 CURVE SMOOTH"
);
},
{
closed = 1;
nodes = (
"288 153 OFFCURVE",
"254 218 OFFCURVE",
"254 340 CURVE SMOOTH",
"254 463 OFFCURVE",
"288 527 OFFCURVE",
"377 527 CURVE SMOOTH",
"466 527 OFFCURVE",
"500 463 OFFCURVE",
"500 340 CURVE SMOOTH",
"500 218 OFFCURVE",
"466 153 OFFCURVE",
"377 153 CURVE SMOOTH"
);
},
{
closed = 1;
nodes = (
"272 717 LINE SMOOTH",
"310 717 OFFCURVE",
"321 724 OFFCURVE",
"335 745 CURVE SMOOTH",
"377 810 LINE",
"419 745 LINE SMOOTH",
"433 724 OFFCURVE",
"444 717 OFFCURVE",
"482 717 CURVE SMOOTH",
"571 717 LINE SMOOTH",
"608 717 OFFCURVE",
"618 738 OFFCURVE",
"592 771 CURVE SMOOTH",
"500 888 LINE SMOOTH",
"483 910 OFFCURVE",
"479 917 OFFCURVE",
"439 917 CURVE SMOOTH",
"315 917 LINE SMOOTH",
"275 917 OFFCURVE",
"271 910 OFFCURVE",
"254 888 CURVE SMOOTH",
"162 771 LINE SMOOTH",
"136 738 OFFCURVE",
"146 717 OFFCURVE",
"183 717 CURVE SMOOTH"
);
}
);
width = 754;
}
);
note = Ocircumflexdotbelow;
unicode = 1ED8;
},
{
glyphname = Ocircumflexgrave;
lastChange = "2015-07-18 06:13:44 +0000";
layers = (
{
layerId = "14EB8CAA-E485-44FF-8841-EC36E7F264D4";
name = Bold;
paths = (
{
closed = 1;
nodes = (
"618 -15 OFFCURVE",
"739 116 OFFCURVE",
"739 340 CURVE SMOOTH",
"739 564 OFFCURVE",
"618 695 OFFCURVE",
"377 695 CURVE SMOOTH",
"136 695 OFFCURVE",
"15 564 OFFCURVE",
"15 340 CURVE SMOOTH",
"15 116 OFFCURVE",
"136 -15 OFFCURVE",
"377 -15 CURVE SMOOTH"
);
},
{
closed = 1;
nodes = (
"288 153 OFFCURVE",
"254 218 OFFCURVE",
"254 340 CURVE SMOOTH",
"254 463 OFFCURVE",
"288 527 OFFCURVE",
"377 527 CURVE SMOOTH",
"466 527 OFFCURVE",
"500 463 OFFCURVE",
"500 340 CURVE SMOOTH",
"500 218 OFFCURVE",
"466 153 OFFCURVE",
"377 153 CURVE SMOOTH"
);
},
{
closed = 1;
nodes = (
"220 886 LINE SMOOTH",
"248 886 OFFCURVE",
"259 903 OFFCURVE",
"251 924 CURVE SMOOTH",
"221 1005 LINE SMOOTH",
"211 1033 OFFCURVE",
"206 1044 OFFCURVE",
"170 1044 CURVE SMOOTH",
"85 1044 LINE SMOOTH",
"50 1044 OFFCURVE",
"42 1022 OFFCURVE",
"61 990 CURVE SMOOTH",
"100 924 LINE SMOOTH",
"120 890 OFFCURVE",
"127 886 OFFCURVE",
"169 886 CURVE SMOOTH"
);
},
{
closed = 1;
nodes = (
"278 718 LINE SMOOTH",
"316 718 OFFCURVE",
"328 725 OFFCURVE",
"341 746 CURVE SMOOTH",
"378 806 LINE",
"415 746 LINE SMOOTH",
"428 725 OFFCURVE",
"440 718 OFFCURVE",
"478 718 CURVE SMOOTH",
"562 718 LINE SMOOTH",
"599 718 OFFCURVE",
"609 739 OFFCURVE",
"583 772 CURVE SMOOTH",
"491 889 LINE SMOOTH",
"474 911 OFFCURVE",
"470 918 OFFCURVE",
"430 918 CURVE SMOOTH",
"326 918 LINE SMOOTH",
"286 918 OFFCURVE",
"282 911 OFFCURVE",
"265 889 CURVE SMOOTH",
"173 772 LINE SMOOTH",
"147 739 OFFCURVE",
"157 718 OFFCURVE",
"194 718 CURVE SMOOTH"
);
}
);
width = 754;
}
);
note = Ocircumflexgrave;
unicode = 1ED2;
},
{
glyphname = Ocircumflexhookabove;
lastChange = "2015-07-18 06:13:50 +0000";
layers = (
{
layerId = "14EB8CAA-E485-44FF-8841-EC36E7F264D4";
name = Bold;
paths = (
{
closed = 1;
nodes = (
"618 -15 OFFCURVE",
"739 116 OFFCURVE",
"739 340 CURVE SMOOTH",
"739 564 OFFCURVE",
"618 695 OFFCURVE",
"377 695 CURVE SMOOTH",
"136 695 OFFCURVE",
"15 564 OFFCURVE",
"15 340 CURVE SMOOTH",
"15 116 OFFCURVE",
"136 -15 OFFCURVE",
"377 -15 CURVE SMOOTH"
);
},
{
closed = 1;
nodes = (
"288 153 OFFCURVE",
"254 218 OFFCURVE",
"254 340 CURVE SMOOTH",
"254 463 OFFCURVE",
"288 527 OFFCURVE",
"377 527 CURVE SMOOTH",
"466 527 OFFCURVE",
"500 463 OFFCURVE",
"500 340 CURVE SMOOTH",
"500 218 OFFCURVE",
"466 153 OFFCURVE",
"377 153 CURVE SMOOTH"
);
},
{
closed = 1;
nodes = (
"279 718 LINE SMOOTH",
"317 718 OFFCURVE",
"329 725 OFFCURVE",
"342 746 CURVE SMOOTH",
"379 806 LINE",
"416 746 LINE SMOOTH",
"429 725 OFFCURVE",
"441 718 OFFCURVE",
"479 718 CURVE SMOOTH",
"563 718 LINE SMOOTH",
"600 718 OFFCURVE",
"610 739 OFFCURVE",
"584 772 CURVE SMOOTH",
"492 889 LINE SMOOTH",
"475 911 OFFCURVE",
"471 918 OFFCURVE",
"431 918 CURVE SMOOTH",
"327 918 LINE SMOOTH",
"287 918 OFFCURVE",
"283 911 OFFCURVE",
"266 889 CURVE SMOOTH",
"174 772 LINE SMOOTH",
"148 739 OFFCURVE",
"158 718 OFFCURVE",
"195 718 CURVE SMOOTH"
);
},
{
closed = 1;
nodes = (
"601 873 LINE SMOOTH",
"612 873 OFFCURVE",
"617 879 OFFCURVE",
"617 889 CURVE SMOOTH",
"617 904 LINE",
"651 904 OFFCURVE",
"679 928 OFFCURVE",
"679 969 CURVE SMOOTH",
"679 1019 OFFCURVE",
"649 1045 OFFCURVE",
"576 1045 CURVE SMOOTH",
"539 1045 OFFCURVE",
"501 1037 OFFCURVE",
"475 1023 CURVE SMOOTH",
"469 1020 OFFCURVE",
"470 1016 OFFCURVE",
"472 1012 CURVE SMOOTH",
"494 964 LINE SMOOTH",
"496 960 OFFCURVE",
"499 960 OFFCURVE",
"502 962 CURVE",
"514 969 OFFCURVE",
"530 974 OFFCURVE",
"547 974 CURVE SMOOTH",
"560 974 OFFCURVE",
"565 970 OFFCURVE",
"565 962 CURVE SMOOTH",
"565 951 OFFCURVE",
"555 948 OFFCURVE",
"536 948 CURVE SMOOTH",
"516 948 OFFCURVE",
"511 942 OFFCURVE",
"511 926 CURVE SMOOTH",
"511 889 LINE SMOOTH",
"511 879 OFFCURVE",
"516 873 OFFCURVE",
"527 873 CURVE SMOOTH"
);
}
);
width = 754;
}
);
note = Ocircumflexhookabove;
unicode = 1ED4;
},
{
glyphname = Ocircumflextilde;
lastChange = "2015-07-18 05:53:05 +0000";
layers = (
{
layerId = "14EB8CAA-E485-44FF-8841-EC36E7F264D4";
name = Bold;
paths = (
{
closed = 1;
nodes = (
"618 -15 OFFCURVE",
"739 116 OFFCURVE",
"739 340 CURVE SMOOTH",
"739 564 OFFCURVE",
"618 695 OFFCURVE",
"377 695 CURVE SMOOTH",
"136 695 OFFCURVE",
"15 564 OFFCURVE",
"15 340 CURVE SMOOTH",
"15 116 OFFCURVE",
"136 -15 OFFCURVE",
"377 -15 CURVE SMOOTH"
);
},
{
closed = 1;
nodes = (
"288 153 OFFCURVE",
"254 218 OFFCURVE",
"254 340 CURVE SMOOTH",
"254 463 OFFCURVE",
"288 527 OFFCURVE",
"377 527 CURVE SMOOTH",
"466 527 OFFCURVE",
"500 463 OFFCURVE",
"500 340 CURVE SMOOTH",
"500 218 OFFCURVE",
"466 153 OFFCURVE",
"377 153 CURVE SMOOTH"
);
},
{
closed = 1;
nodes = (
"512 714 OFFCURVE",
"578 791 OFFCURVE",
"578 881 CURVE SMOOTH",
"578 892 OFFCURVE",
"572 899 OFFCURVE",
"562 899 CURVE SMOOTH",
"463 899 LINE SMOOTH",
"449 899 OFFCURVE",
"446 892 OFFCURVE",
"446 880 CURVE SMOOTH",
"446 846 OFFCURVE",
"421 834 OFFCURVE",
"377 834 CURVE SMOOTH",
"333 834 OFFCURVE",
"308 846 OFFCURVE",
"308 880 CURVE SMOOTH",
"308 892 OFFCURVE",
"305 899 OFFCURVE",
"291 899 CURVE SMOOTH",
"192 899 LINE SMOOTH",
"182 899 OFFCURVE",
"176 892 OFFCURVE",
"176 881 CURVE SMOOTH",
"176 791 OFFCURVE",
"243 714 OFFCURVE",
"377 714 CURVE SMOOTH"
);
},
{
closed = 1;
nodes = (
"527 914 OFFCURVE",
"550 927 OFFCURVE",
"582 969 CURVE SMOOTH",
"609 1003 OFFCURVE",
"598 1015 OFFCURVE",
"560 1043 CURVE SMOOTH",
"520 1073 OFFCURVE",
"508 1074 OFFCURVE",
"489 1052 CURVE SMOOTH",
"472 1032 OFFCURVE",
"460 1025 OFFCURVE",
"435 1025 CURVE SMOOTH",
"404 1025 OFFCURVE",
"370 1060 OFFCURVE",
"307 1060 CURVE SMOOTH",
"255 1060 OFFCURVE",
"216 1048 OFFCURVE",
"178 1000 CURVE SMOOTH",
"157 974 OFFCURVE",
"159 965 OFFCURVE",
"200 934 CURVE SMOOTH",
"243 902 OFFCURVE",
"249 906 OFFCURVE",
"277 932 CURVE SMOOTH",
"291 945 OFFCURVE",
"309 948 OFFCURVE",
"325 948 CURVE SMOOTH",
"356 948 OFFCURVE",
"412 914 OFFCURVE",
"468 914 CURVE SMOOTH"
);
}
);
width = 754;
}
);
note = Ocircumflextilde;
unicode = 1ED6;
},
{
glyphname = Odieresis;
lastChange = "2015-07-18 06:13:58 +0000";
layers = (
{
layerId = "14EB8CAA-E485-44FF-8841-EC36E7F264D4";
name = Bold;
paths = (
{
closed = 1;
nodes = (
"618 -15 OFFCURVE",
"739 116 OFFCURVE",
"739 340 CURVE SMOOTH",
"739 564 OFFCURVE",
"618 695 OFFCURVE",
"377 695 CURVE SMOOTH",
"136 695 OFFCURVE",
"15 564 OFFCURVE",
"15 340 CURVE SMOOTH",
"15 116 OFFCURVE",
"136 -15 OFFCURVE",
"377 -15 CURVE SMOOTH"
);
},
{
closed = 1;
nodes = (
"288 153 OFFCURVE",
"254 218 OFFCURVE",
"254 340 CURVE SMOOTH",
"254 463 OFFCURVE",
"288 527 OFFCURVE",
"377 527 CURVE SMOOTH",
"466 527 OFFCURVE",
"500 463 OFFCURVE",
"500 340 CURVE SMOOTH",
"500 218 OFFCURVE",
"466 153 OFFCURVE",
"377 153 CURVE SMOOTH"
);
},
{
closed = 1;
nodes = (
"281 721 LINE SMOOTH",
"322 721 OFFCURVE",
"349 754 OFFCURVE",
"349 792 CURVE SMOOTH",
"349 821 LINE SMOOTH",
"349 861 OFFCURVE",
"321 892 OFFCURVE",
"281 892 CURVE SMOOTH",
"251 892 LINE SMOOTH",
"211 892 OFFCURVE",
"183 861 OFFCURVE",
"183 821 CURVE SMOOTH",
"183 792 LINE SMOOTH",
"183 754 OFFCURVE",
"211 721 OFFCURVE",
"251 721 CURVE SMOOTH"
);
},
{
closed = 1;
nodes = (
"504 721 LINE SMOOTH",
"545 721 OFFCURVE",
"572 754 OFFCURVE",
"572 792 CURVE SMOOTH",
"572 821 LINE SMOOTH",
"572 861 OFFCURVE",
"544 892 OFFCURVE",
"504 892 CURVE SMOOTH",
"474 892 LINE SMOOTH",
"434 892 OFFCURVE",
"406 861 OFFCURVE",
"406 821 CURVE SMOOTH",
"406 792 LINE SMOOTH",
"406 754 OFFCURVE",
"434 721 OFFCURVE",
"474 721 CURVE SMOOTH"
);
}
);
width = 754;
}
);
note = Odieresis;
unicode = 00D6;
},
{
glyphname = Odotbelow;
lastChange = "2015-07-18 05:53:06 +0000";
layers = (
{
layerId = "14EB8CAA-E485-44FF-8841-EC36E7F264D4";
name = Bold;
paths = (
{
closed = 1;
nodes = (
"618 -15 OFFCURVE",
"739 116 OFFCURVE",
"739 340 CURVE SMOOTH",
"739 564 OFFCURVE",
"618 695 OFFCURVE",
"377 695 CURVE SMOOTH",
"136 695 OFFCURVE",
"15 564 OFFCURVE",
"15 340 CURVE SMOOTH",
"15 116 OFFCURVE",
"136 -15 OFFCURVE",
"377 -15 CURVE SMOOTH"
);
},
{
closed = 1;
nodes = (
"392 -217 LINE SMOOTH",
"433 -217 OFFCURVE",
"460 -184 OFFCURVE",
"460 -146 CURVE SMOOTH",
"460 -117 LINE SMOOTH",
"460 -77 OFFCURVE",
"432 -46 OFFCURVE",
"392 -46 CURVE SMOOTH",
"362 -46 LINE SMOOTH",
"322 -46 OFFCURVE",
"294 -77 OFFCURVE",
"294 -117 CURVE SMOOTH",
"294 -146 LINE SMOOTH",
"294 -184 OFFCURVE",
"322 -217 OFFCURVE",
"362 -217 CURVE SMOOTH"
);
},
{
closed = 1;
nodes = (
"288 153 OFFCURVE",
"254 218 OFFCURVE",
"254 340 CURVE SMOOTH",
"254 463 OFFCURVE",
"288 527 OFFCURVE",
"377 527 CURVE SMOOTH",
"466 527 OFFCURVE",
"500 463 OFFCURVE",
"500 340 CURVE SMOOTH",
"500 218 OFFCURVE",
"466 153 OFFCURVE",
"377 153 CURVE SMOOTH"
);
}
);
width = 754;
}
);
note = Odotbelow;
unicode = 1ECC;
},
{
glyphname = Ograve;
lastChange = "2015-07-18 05:53:07 +0000";
layers = (
{
layerId = "14EB8CAA-E485-44FF-8841-EC36E7F264D4";
name = Bold;
paths = (
{
closed = 1;
nodes = (
"618 -15 OFFCURVE",
"739 116 OFFCURVE",
"739 340 CURVE SMOOTH",
"739 564 OFFCURVE",
"618 695 OFFCURVE",
"377 695 CURVE SMOOTH",
"136 695 OFFCURVE",
"15 564 OFFCURVE",
"15 340 CURVE SMOOTH",
"15 116 OFFCURVE",
"136 -15 OFFCURVE",
"377 -15 CURVE SMOOTH"
);
},
{
closed = 1;
nodes = (
"288 153 OFFCURVE",
"254 218 OFFCURVE",
"254 340 CURVE SMOOTH",
"254 463 OFFCURVE",
"288 527 OFFCURVE",
"377 527 CURVE SMOOTH",
"466 527 OFFCURVE",
"500 463 OFFCURVE",
"500 340 CURVE SMOOTH",
"500 218 OFFCURVE",
"466 153 OFFCURVE",
"377 153 CURVE SMOOTH"
);
},
{
closed = 1;
nodes = (
"455 736 LINE SMOOTH",
"492 736 OFFCURVE",
"502 755 OFFCURVE",
"492 781 CURVE SMOOTH",
"450 897 LINE SMOOTH",
"440 926 OFFCURVE",
"433 936 OFFCURVE",
"390 936 CURVE SMOOTH",
"247 936 LINE SMOOTH",
"210 936 OFFCURVE",
"189 918 OFFCURVE",
"210 882 CURVE SMOOTH",
"274 774 LINE SMOOTH",
"292 744 OFFCURVE",
"300 736 OFFCURVE",
"348 736 CURVE SMOOTH"
);
}
);
width = 754;
}
);
note = Ograve;
unicode = 00D2;
},
{
glyphname = Ohookabove;
lastChange = "2015-07-18 05:53:06 +0000";
layers = (
{
layerId = "14EB8CAA-E485-44FF-8841-EC36E7F264D4";
name = Bold;
paths = (
{
closed = 1;
nodes = (
"618 -15 OFFCURVE",
"739 116 OFFCURVE",
"739 340 CURVE SMOOTH",
"739 564 OFFCURVE",
"618 695 OFFCURVE",
"377 695 CURVE SMOOTH",
"136 695 OFFCURVE",
"15 564 OFFCURVE",
"15 340 CURVE SMOOTH",
"15 116 OFFCURVE",
"136 -15 OFFCURVE",
"377 -15 CURVE SMOOTH"
);
},
{
closed = 1;
nodes = (
"288 153 OFFCURVE",
"254 218 OFFCURVE",
"254 340 CURVE SMOOTH",
"254 463 OFFCURVE",
"288 527 OFFCURVE",
"377 527 CURVE SMOOTH",
"466 527 OFFCURVE",
"500 463 OFFCURVE",
"500 340 CURVE SMOOTH",
"500 218 OFFCURVE",
"466 153 OFFCURVE",
"377 153 CURVE SMOOTH"
);
},
{
closed = 1;
nodes = (
"434 724 LINE SMOOTH",
"450 724 OFFCURVE",
"457 732 OFFCURVE",
"457 747 CURVE SMOOTH",
"457 760 LINE",
"507 760 OFFCURVE",
"546 799 OFFCURVE",
"546 863 CURVE SMOOTH",
"546 936 OFFCURVE",
"497 975 OFFCURVE",
"399 975 CURVE SMOOTH",
"356 975 OFFCURVE",
"299 963 OFFCURVE",
"268 943 CURVE",
"261 938 OFFCURVE",
"261 933 OFFCURVE",
"264 927 CURVE",
"295 856 LINE",
"298 850 OFFCURVE",
"302 850 OFFCURVE",
"307 852 CURVE",
"327 861 OFFCURVE",
"347 870 OFFCURVE",
"371 870 CURVE SMOOTH",
"390 870 OFFCURVE",
"398 865 OFFCURVE",
"398 853 CURVE SMOOTH",
"398 837 OFFCURVE",
"382 833 OFFCURVE",
"355 833 CURVE SMOOTH",
"323 833 OFFCURVE",
"318 824 OFFCURVE",
"318 802 CURVE SMOOTH",
"318 747 LINE SMOOTH",
"318 732 OFFCURVE",
"325 724 OFFCURVE",
"341 724 CURVE SMOOTH"
);
}
);
width = 754;
}
);
note = Ohookabove;
unicode = 1ECE;
},
{
glyphname = Ohorn;
lastChange = "2015-07-18 05:53:07 +0000";
layers = (
{
layerId = "14EB8CAA-E485-44FF-8841-EC36E7F264D4";
name = Bold;
paths = (
{
closed = 1;
nodes = (
"618 -15 OFFCURVE",
"739 116 OFFCURVE",
"739 340 CURVE SMOOTH",
"739 402 OFFCURVE",
"730 456 OFFCURVE",
"711 503 CURVE",
"803 539 OFFCURVE",
"830 610 OFFCURVE",
"830 709 CURVE SMOOTH",
"830 742 OFFCURVE",
"824 749 OFFCURVE",
"798 749 CURVE SMOOTH",
"669 749 LINE SMOOTH",
"649 749 OFFCURVE",
"642 743 OFFCURVE",
"642 710 CURVE SMOOTH",
"642 669 OFFCURVE",
"633 647 OFFCURVE",
"604 637 CURVE",
"547 675 OFFCURVE",
"471 695 OFFCURVE",
"377 695 CURVE SMOOTH",
"136 695 OFFCURVE",
"15 564 OFFCURVE",
"15 340 CURVE SMOOTH",
"15 116 OFFCURVE",
"136 -15 OFFCURVE",
"377 -15 CURVE SMOOTH"
);
},
{
closed = 1;
nodes = (
"288 153 OFFCURVE",
"254 218 OFFCURVE",
"254 340 CURVE SMOOTH",
"254 463 OFFCURVE",
"288 527 OFFCURVE",
"377 527 CURVE SMOOTH",
"466 527 OFFCURVE",
"500 463 OFFCURVE",
"500 340 CURVE SMOOTH",
"500 218 OFFCURVE",
"466 153 OFFCURVE",
"377 153 CURVE SMOOTH"
);
}
);
width = 815;
}
);
note = Ohorn;
unicode = 01A0;
},
{
glyphname = Ohornacute;
lastChange = "2015-07-18 05:53:06 +0000";
layers = (
{
layerId = "14EB8CAA-E485-44FF-8841-EC36E7F264D4";
name = Bold;
paths = (
{
closed = 1;
nodes = (
"618 -15 OFFCURVE",
"739 116 OFFCURVE",
"739 340 CURVE SMOOTH",
"739 402 OFFCURVE",
"730 456 OFFCURVE",
"711 503 CURVE",
"803 539 OFFCURVE",
"830 610 OFFCURVE",
"830 709 CURVE SMOOTH",
"830 742 OFFCURVE",
"824 749 OFFCURVE",
"798 749 CURVE SMOOTH",
"669 749 LINE SMOOTH",
"649 749 OFFCURVE",
"642 743 OFFCURVE",
"642 710 CURVE SMOOTH",
"642 669 OFFCURVE",
"633 647 OFFCURVE",
"604 637 CURVE",
"547 675 OFFCURVE",
"471 695 OFFCURVE",
"377 695 CURVE SMOOTH",
"136 695 OFFCURVE",
"15 564 OFFCURVE",
"15 340 CURVE SMOOTH",
"15 116 OFFCURVE",
"136 -15 OFFCURVE",
"377 -15 CURVE SMOOTH"
);
},
{
closed = 1;
nodes = (
"288 153 OFFCURVE",
"254 218 OFFCURVE",
"254 340 CURVE SMOOTH",
"254 463 OFFCURVE",
"288 527 OFFCURVE",
"377 527 CURVE SMOOTH",
"466 527 OFFCURVE",
"500 463 OFFCURVE",
"500 340 CURVE SMOOTH",
"500 218 OFFCURVE",
"466 153 OFFCURVE",
"377 153 CURVE SMOOTH"
);
},
{
closed = 1;
nodes = (
"427 722 LINE SMOOTH",
"475 722 OFFCURVE",
"483 730 OFFCURVE",
"501 760 CURVE SMOOTH",
"565 868 LINE SMOOTH",
"586 904 OFFCURVE",
"565 922 OFFCURVE",
"528 922 CURVE SMOOTH",
"385 922 LINE SMOOTH",
"342 922 OFFCURVE",
"335 911 OFFCURVE",
"325 883 CURVE SMOOTH",
"283 767 LINE SMOOTH",
"274 741 OFFCURVE",
"283 722 OFFCURVE",
"320 722 CURVE SMOOTH"
);
}
);
width = 815;
}
);
note = Ohornacute;
unicode = 1EDA;
},
{
glyphname = Ohorndotbelow;
lastChange = "2015-07-18 05:53:06 +0000";
layers = (
{
layerId = "14EB8CAA-E485-44FF-8841-EC36E7F264D4";
name = Bold;
paths = (
{
closed = 1;
nodes = (
"618 -15 OFFCURVE",
"739 116 OFFCURVE",
"739 340 CURVE SMOOTH",
"739 402 OFFCURVE",
"730 456 OFFCURVE",
"711 503 CURVE",
"803 539 OFFCURVE",
"830 610 OFFCURVE",
"830 709 CURVE SMOOTH",
"830 742 OFFCURVE",
"824 749 OFFCURVE",
"798 749 CURVE SMOOTH",
"669 749 LINE SMOOTH",
"649 749 OFFCURVE",
"642 743 OFFCURVE",
"642 710 CURVE SMOOTH",
"642 669 OFFCURVE",
"633 647 OFFCURVE",
"604 637 CURVE",
"547 675 OFFCURVE",
"471 695 OFFCURVE",
"377 695 CURVE SMOOTH",
"136 695 OFFCURVE",
"15 564 OFFCURVE",
"15 340 CURVE SMOOTH",
"15 116 OFFCURVE",
"136 -15 OFFCURVE",
"377 -15 CURVE SMOOTH"
);
},
{
closed = 1;
nodes = (
"391 -217 LINE SMOOTH",
"432 -217 OFFCURVE",
"459 -184 OFFCURVE",
"459 -146 CURVE SMOOTH",
"459 -117 LINE SMOOTH",
"459 -77 OFFCURVE",
"431 -46 OFFCURVE",
"391 -46 CURVE SMOOTH",
"361 -46 LINE SMOOTH",
"321 -46 OFFCURVE",
"293 -77 OFFCURVE",
"293 -117 CURVE SMOOTH",
"293 -146 LINE SMOOTH",
"293 -184 OFFCURVE",
"321 -217 OFFCURVE",
"361 -217 CURVE SMOOTH"
);
},
{
closed = 1;
nodes = (
"288 153 OFFCURVE",
"254 218 OFFCURVE",
"254 340 CURVE SMOOTH",
"254 463 OFFCURVE",
"288 527 OFFCURVE",
"377 527 CURVE SMOOTH",
"466 527 OFFCURVE",
"500 463 OFFCURVE",
"500 340 CURVE SMOOTH",
"500 218 OFFCURVE",
"466 153 OFFCURVE",
"377 153 CURVE SMOOTH"
);
}
);
width = 815;
}
);
note = Ohorndotbelow;
unicode = 1EE2;
},
{
glyphname = Ohorngrave;
lastChange = "2015-07-18 05:53:05 +0000";
layers = (
{
layerId = "14EB8CAA-E485-44FF-8841-EC36E7F264D4";
name = Bold;
paths = (
{
closed = 1;
nodes = (
"618 -15 OFFCURVE",
"739 116 OFFCURVE",
"739 340 CURVE SMOOTH",
"739 402 OFFCURVE",
"730 456 OFFCURVE",
"711 503 CURVE",
"803 539 OFFCURVE",
"830 610 OFFCURVE",
"830 709 CURVE SMOOTH",
"830 742 OFFCURVE",
"824 749 OFFCURVE",
"798 749 CURVE SMOOTH",
"669 749 LINE SMOOTH",
"649 749 OFFCURVE",
"642 743 OFFCURVE",
"642 710 CURVE SMOOTH",
"642 669 OFFCURVE",
"633 647 OFFCURVE",
"604 637 CURVE",
"547 675 OFFCURVE",
"471 695 OFFCURVE",
"377 695 CURVE SMOOTH",
"136 695 OFFCURVE",
"15 564 OFFCURVE",
"15 340 CURVE SMOOTH",
"15 116 OFFCURVE",
"136 -15 OFFCURVE",
"377 -15 CURVE SMOOTH"
);
},
{
closed = 1;
nodes = (
"288 153 OFFCURVE",
"254 218 OFFCURVE",
"254 340 CURVE SMOOTH",
"254 463 OFFCURVE",
"288 527 OFFCURVE",
"377 527 CURVE SMOOTH",
"466 527 OFFCURVE",
"500 463 OFFCURVE",
"500 340 CURVE SMOOTH",
"500 218 OFFCURVE",
"466 153 OFFCURVE",
"377 153 CURVE SMOOTH"
);
},
{
closed = 1;
nodes = (
"442 722 LINE SMOOTH",
"479 722 OFFCURVE",
"489 741 OFFCURVE",
"479 767 CURVE SMOOTH",
"437 883 LINE SMOOTH",
"427 912 OFFCURVE",
"420 922 OFFCURVE",
"377 922 CURVE SMOOTH",
"234 922 LINE SMOOTH",
"197 922 OFFCURVE",
"176 904 OFFCURVE",
"197 868 CURVE SMOOTH",
"261 760 LINE SMOOTH",
"279 730 OFFCURVE",
"287 722 OFFCURVE",
"335 722 CURVE SMOOTH"
);
}
);
width = 815;
}
);
note = Ohorngrave;
unicode = 1EDC;
},
{
glyphname = Ohornhookabove;
lastChange = "2015-07-18 05:53:06 +0000";
layers = (
{
layerId = "14EB8CAA-E485-44FF-8841-EC36E7F264D4";
name = Bold;
paths = (
{
closed = 1;
nodes = (
"618 -15 OFFCURVE",
"739 116 OFFCURVE",
"739 340 CURVE SMOOTH",
"739 402 OFFCURVE",
"730 456 OFFCURVE",
"711 503 CURVE",
"803 539 OFFCURVE",
"830 610 OFFCURVE",
"830 709 CURVE SMOOTH",
"830 742 OFFCURVE",
"824 749 OFFCURVE",
"798 749 CURVE SMOOTH",
"669 749 LINE SMOOTH",
"649 749 OFFCURVE",
"642 743 OFFCURVE",
"642 710 CURVE SMOOTH",
"642 669 OFFCURVE",
"633 647 OFFCURVE",
"604 637 CURVE",
"547 675 OFFCURVE",
"471 695 OFFCURVE",
"377 695 CURVE SMOOTH",
"136 695 OFFCURVE",
"15 564 OFFCURVE",
"15 340 CURVE SMOOTH",
"15 116 OFFCURVE",
"136 -15 OFFCURVE",
"377 -15 CURVE SMOOTH"
);
},
{
closed = 1;
nodes = (
"288 153 OFFCURVE",
"254 218 OFFCURVE",
"254 340 CURVE SMOOTH",
"254 463 OFFCURVE",
"288 527 OFFCURVE",
"377 527 CURVE SMOOTH",
"466 527 OFFCURVE",
"500 463 OFFCURVE",
"500 340 CURVE SMOOTH",
"500 218 OFFCURVE",
"466 153 OFFCURVE",
"377 153 CURVE SMOOTH"
);
},
{
closed = 1;
nodes = (
"411 724 LINE SMOOTH",
"427 724 OFFCURVE",
"434 732 OFFCURVE",
"434 747 CURVE SMOOTH",
"434 760 LINE",
"484 760 OFFCURVE",
"523 799 OFFCURVE",
"523 863 CURVE SMOOTH",
"523 936 OFFCURVE",
"474 975 OFFCURVE",
"376 975 CURVE SMOOTH",
"333 975 OFFCURVE",
"276 963 OFFCURVE",
"245 943 CURVE",
"238 938 OFFCURVE",
"238 933 OFFCURVE",
"241 927 CURVE",
"272 856 LINE",
"275 850 OFFCURVE",
"279 850 OFFCURVE",
"284 852 CURVE",
"304 861 OFFCURVE",
"324 870 OFFCURVE",
"348 870 CURVE SMOOTH",
"367 870 OFFCURVE",
"375 865 OFFCURVE",
"375 853 CURVE SMOOTH",
"375 837 OFFCURVE",
"359 833 OFFCURVE",
"332 833 CURVE SMOOTH",
"300 833 OFFCURVE",
"295 824 OFFCURVE",
"295 802 CURVE SMOOTH",
"295 747 LINE SMOOTH",
"295 732 OFFCURVE",
"302 724 OFFCURVE",
"318 724 CURVE SMOOTH"
);
}
);
width = 815;
}
);
note = Ohornhookabove;
unicode = 1EDE;
},
{
glyphname = Ohorntilde;
lastChange = "2015-07-18 05:53:06 +0000";
layers = (
{
layerId = "14EB8CAA-E485-44FF-8841-EC36E7F264D4";
name = Bold;
paths = (
{
closed = 1;
nodes = (
"618 -15 OFFCURVE",
"739 116 OFFCURVE",
"739 340 CURVE SMOOTH",
"739 402 OFFCURVE",
"730 456 OFFCURVE",
"711 503 CURVE",
"803 539 OFFCURVE",
"830 610 OFFCURVE",
"830 709 CURVE SMOOTH",
"830 742 OFFCURVE",
"824 749 OFFCURVE",
"798 749 CURVE SMOOTH",
"669 749 LINE SMOOTH",
"649 749 OFFCURVE",
"642 743 OFFCURVE",
"642 710 CURVE SMOOTH",
"642 669 OFFCURVE",
"633 647 OFFCURVE",
"604 637 CURVE",
"547 675 OFFCURVE",
"471 695 OFFCURVE",
"377 695 CURVE SMOOTH",
"136 695 OFFCURVE",
"15 564 OFFCURVE",
"15 340 CURVE SMOOTH",
"15 116 OFFCURVE",
"136 -15 OFFCURVE",
"377 -15 CURVE SMOOTH"
);
},
{
closed = 1;
nodes = (
"288 153 OFFCURVE",
"254 218 OFFCURVE",
"254 340 CURVE SMOOTH",
"254 463 OFFCURVE",
"288 527 OFFCURVE",
"377 527 CURVE SMOOTH",
"466 527 OFFCURVE",
"500 463 OFFCURVE",
"500 340 CURVE SMOOTH",
"500 218 OFFCURVE",
"466 153 OFFCURVE",
"377 153 CURVE SMOOTH"
);
},
{
closed = 1;
nodes = (
"550 715 OFFCURVE",
"583 744 OFFCURVE",
"625 805 CURVE SMOOTH",
"650 841 OFFCURVE",
"646 858 OFFCURVE",
"603 890 CURVE SMOOTH",
"559 923 OFFCURVE",
"536 931 OFFCURVE",
"517 908 CURVE SMOOTH",
"497 884 OFFCURVE",
"487 875 OFFCURVE",
"464 875 CURVE SMOOTH",
"421 875 OFFCURVE",
"386 924 OFFCURVE",
"308 924 CURVE SMOOTH",
"247 924 OFFCURVE",
"214 893 OFFCURVE",
"172 832 CURVE SMOOTH",
"147 796 OFFCURVE",
"153 781 OFFCURVE",
"196 749 CURVE SMOOTH",
"240 716 OFFCURVE",
"263 708 OFFCURVE",
"282 731 CURVE SMOOTH",
"302 755 OFFCURVE",
"315 764 OFFCURVE",
"339 764 CURVE SMOOTH",
"388 764 OFFCURVE",
"428 715 OFFCURVE",
"489 715 CURVE SMOOTH"
);
}
);
width = 815;
}
);
note = Ohorntilde;
unicode = 1EE0;
},
{
glyphname = Ohungarumlaut;
lastChange = "2015-07-18 15:52:04 +0000";
layers = (
{
layerId = "14EB8CAA-E485-44FF-8841-EC36E7F264D4";
name = Bold;
paths = (
{
closed = 1;
nodes = (
"618 -15 OFFCURVE",
"739 116 OFFCURVE",
"739 340 CURVE SMOOTH",
"739 564 OFFCURVE",
"618 695 OFFCURVE",
"377 695 CURVE SMOOTH",
"136 695 OFFCURVE",
"15 564 OFFCURVE",
"15 340 CURVE SMOOTH",
"15 116 OFFCURVE",
"136 -15 OFFCURVE",
"377 -15 CURVE SMOOTH"
);
},
{
closed = 1;
nodes = (
"288 153 OFFCURVE",
"254 218 OFFCURVE",
"254 340 CURVE SMOOTH",
"254 463 OFFCURVE",
"288 527 OFFCURVE",
"377 527 CURVE SMOOTH",
"466 527 OFFCURVE",
"500 463 OFFCURVE",
"500 340 CURVE SMOOTH",
"500 218 OFFCURVE",
"466 153 OFFCURVE",
"377 153 CURVE SMOOTH"
);
},
{
closed = 1;
nodes = (
"280 734 LINE SMOOTH",
"328 734 OFFCURVE",
"333 744 OFFCURVE",
"354 772 CURVE SMOOTH",
"433 880 LINE SMOOTH",
"458 914 OFFCURVE",
"433 934 OFFCURVE",
"396 934 CURVE SMOOTH",
"273 934 LINE SMOOTH",
"230 934 OFFCURVE",
"226 922 OFFCURVE",
"213 895 CURVE SMOOTH",
"156 779 LINE SMOOTH",
"144 754 OFFCURVE",
"156 734 OFFCURVE",
"193 734 CURVE SMOOTH"
);
},
{
closed = 1;
nodes = (
"543 734 LINE SMOOTH",
"591 734 OFFCURVE",
"596 744 OFFCURVE",
"617 772 CURVE SMOOTH",
"696 880 LINE SMOOTH",
"721 914 OFFCURVE",
"696 934 OFFCURVE",
"659 934 CURVE SMOOTH",
"536 934 LINE SMOOTH",
"493 934 OFFCURVE",
"489 922 OFFCURVE",
"476 895 CURVE SMOOTH",
"419 779 LINE SMOOTH",
"407 754 OFFCURVE",
"419 734 OFFCURVE",
"456 734 CURVE SMOOTH"
);
}
);
width = 754;
}
);
note = Ohungarumlaut;
unicode = 0150;
},
{
glyphname = Omacron;
lastChange = "2015-07-18 06:14:31 +0000";
layers = (
{
layerId = "14EB8CAA-E485-44FF-8841-EC36E7F264D4";
name = Bold;
paths = (
{
closed = 1;
nodes = (
"618 -15 OFFCURVE",
"739 116 OFFCURVE",
"739 340 CURVE SMOOTH",
"739 564 OFFCURVE",
"618 695 OFFCURVE",
"377 695 CURVE SMOOTH",
"136 695 OFFCURVE",
"15 564 OFFCURVE",
"15 340 CURVE SMOOTH",
"15 116 OFFCURVE",
"136 -15 OFFCURVE",
"377 -15 CURVE SMOOTH"
);
},
{
closed = 1;
nodes = (
"288 153 OFFCURVE",
"254 218 OFFCURVE",
"254 340 CURVE SMOOTH",
"254 463 OFFCURVE",
"288 527 OFFCURVE",
"377 527 CURVE SMOOTH",
"466 527 OFFCURVE",
"500 463 OFFCURVE",
"500 340 CURVE SMOOTH",
"500 218 OFFCURVE",
"466 153 OFFCURVE",
"377 153 CURVE SMOOTH"
);
},
{
closed = 1;
nodes = (
"515 730 LINE SMOOTH",
"560 730 OFFCURVE",
"570 749 OFFCURVE",
"570 787 CURVE SMOOTH",
"570 843 LINE SMOOTH",
"570 881 OFFCURVE",
"560 900 OFFCURVE",
"515 900 CURVE SMOOTH",
"248 900 LINE SMOOTH",
"203 900 OFFCURVE",
"193 881 OFFCURVE",
"193 843 CURVE SMOOTH",
"193 787 LINE SMOOTH",
"193 749 OFFCURVE",
"203 730 OFFCURVE",
"248 730 CURVE SMOOTH"
);
}
);
width = 754;
}
);
note = Omacron;
unicode = 014C;
},
{
glyphname = Oslash;
lastChange = "2015-07-18 05:53:06 +0000";
layers = (
{
layerId = "14EB8CAA-E485-44FF-8841-EC36E7F264D4";
name = Bold;
paths = (
{
closed = 1;
nodes = (
"272 -86 LINE SMOOTH",
"294 -86 OFFCURVE",
"304 -75 OFFCURVE",
"311 -59 CURVE SMOOTH",
"330 -13 LINE",
"345 -14 OFFCURVE",
"360 -15 OFFCURVE",
"377 -15 CURVE SMOOTH",
"618 -15 OFFCURVE",
"739 116 OFFCURVE",
"739 340 CURVE SMOOTH",
"739 479 OFFCURVE",
"692 583 OFFCURVE",
"598 641 CURVE",
"626 708 LINE SMOOTH",
"635 731 OFFCURVE",
"633 751 OFFCURVE",
"609 751 CURVE SMOOTH",
"485 751 LINE SMOOTH",
"463 751 OFFCURVE",
"453 740 OFFCURVE",
"446 724 CURVE SMOOTH",
"433 692 LINE",
"415 694 OFFCURVE",
"396 695 OFFCURVE",
"377 695 CURVE SMOOTH",
"136 695 OFFCURVE",
"15 564 OFFCURVE",
"15 340 CURVE SMOOTH",
"15 197 OFFCURVE",
"64 92 OFFCURVE",
"163 34 CURVE",
"131 -43 LINE SMOOTH",
"122 -66 OFFCURVE",
"124 -86 OFFCURVE",
"148 -86 CURVE SMOOTH"
);
},
{
closed = 1;
nodes = (
"255 289 OFFCURVE",
"254 313 OFFCURVE",
"254 340 CURVE SMOOTH",
"254 457 OFFCURVE",
"285 521 OFFCURVE",
"365 526 CURVE",
"259 268 LINE"
);
},
{
closed = 1;
nodes = (
"497 394 LINE",
"499 378 OFFCURVE",
"500 359 OFFCURVE",
"500 340 CURVE SMOOTH",
"500 228 OFFCURVE",
"471 165 OFFCURVE",
"399 154 CURVE"
);
}
);
width = 754;
}
);
note = Oslash;
unicode = 00D8;
},
{
glyphname = Oslashacute;
lastChange = "2015-07-18 05:53:06 +0000";
layers = (
{
layerId = "14EB8CAA-E485-44FF-8841-EC36E7F264D4";
name = Bold;
paths = (
{
closed = 1;
nodes = (
"272 -86 LINE SMOOTH",
"294 -86 OFFCURVE",
"304 -75 OFFCURVE",
"311 -59 CURVE SMOOTH",
"330 -13 LINE",
"345 -14 OFFCURVE",
"360 -15 OFFCURVE",
"377 -15 CURVE SMOOTH",
"618 -15 OFFCURVE",
"739 116 OFFCURVE",
"739 340 CURVE SMOOTH",
"739 479 OFFCURVE",
"692 583 OFFCURVE",
"598 641 CURVE",
"626 708 LINE SMOOTH",
"635 731 OFFCURVE",
"633 751 OFFCURVE",
"609 751 CURVE SMOOTH",
"485 751 LINE SMOOTH",
"463 751 OFFCURVE",
"453 740 OFFCURVE",
"446 724 CURVE SMOOTH",
"433 692 LINE",
"415 694 OFFCURVE",
"396 695 OFFCURVE",
"377 695 CURVE SMOOTH",
"136 695 OFFCURVE",
"15 564 OFFCURVE",
"15 340 CURVE SMOOTH",
"15 197 OFFCURVE",
"64 92 OFFCURVE",
"163 34 CURVE",
"131 -43 LINE SMOOTH",
"122 -66 OFFCURVE",
"124 -86 OFFCURVE",
"148 -86 CURVE SMOOTH"
);
},
{
closed = 1;
nodes = (
"255 289 OFFCURVE",
"254 313 OFFCURVE",
"254 340 CURVE SMOOTH",
"254 457 OFFCURVE",
"285 521 OFFCURVE",
"365 526 CURVE",
"259 268 LINE"
);
},
{
closed = 1;
nodes = (
"497 394 LINE",
"499 378 OFFCURVE",
"500 359 OFFCURVE",
"500 340 CURVE SMOOTH",
"500 228 OFFCURVE",
"471 165 OFFCURVE",
"399 154 CURVE"
);
},
{
closed = 1;
nodes = (
"422 766 LINE SMOOTH",
"470 766 OFFCURVE",
"478 774 OFFCURVE",
"496 804 CURVE SMOOTH",
"560 912 LINE SMOOTH",
"581 948 OFFCURVE",
"560 966 OFFCURVE",
"523 966 CURVE SMOOTH",
"380 966 LINE SMOOTH",
"337 966 OFFCURVE",
"330 955 OFFCURVE",
"320 927 CURVE SMOOTH",
"278 811 LINE SMOOTH",
"269 785 OFFCURVE",
"278 766 OFFCURVE",
"315 766 CURVE SMOOTH"
);
}
);
width = 754;
}
);
note = Oslashacute;
unicode = 01FE;
},
{
glyphname = Otilde;
lastChange = "2015-07-18 05:53:05 +0000";
layers = (
{
layerId = "14EB8CAA-E485-44FF-8841-EC36E7F264D4";
name = Bold;
paths = (
{
closed = 1;
nodes = (
"618 -15 OFFCURVE",
"739 116 OFFCURVE",
"739 340 CURVE SMOOTH",
"739 564 OFFCURVE",
"618 695 OFFCURVE",
"377 695 CURVE SMOOTH",
"136 695 OFFCURVE",
"15 564 OFFCURVE",
"15 340 CURVE SMOOTH",
"15 116 OFFCURVE",
"136 -15 OFFCURVE",
"377 -15 CURVE SMOOTH"
);
},
{
closed = 1;
nodes = (
"288 153 OFFCURVE",
"254 218 OFFCURVE",
"254 340 CURVE SMOOTH",
"254 463 OFFCURVE",
"288 527 OFFCURVE",
"377 527 CURVE SMOOTH",
"466 527 OFFCURVE",
"500 463 OFFCURVE",
"500 340 CURVE SMOOTH",
"500 218 OFFCURVE",
"466 153 OFFCURVE",
"377 153 CURVE SMOOTH"
);
},
{
closed = 1;
nodes = (
"529 729 OFFCURVE",
"562 758 OFFCURVE",
"604 819 CURVE SMOOTH",
"629 855 OFFCURVE",
"625 872 OFFCURVE",
"582 904 CURVE SMOOTH",
"538 937 OFFCURVE",
"515 945 OFFCURVE",
"496 922 CURVE SMOOTH",
"476 898 OFFCURVE",
"466 889 OFFCURVE",
"443 889 CURVE SMOOTH",
"400 889 OFFCURVE",
"365 938 OFFCURVE",
"287 938 CURVE SMOOTH",
"226 938 OFFCURVE",
"193 907 OFFCURVE",
"151 846 CURVE SMOOTH",
"126 810 OFFCURVE",
"132 795 OFFCURVE",
"175 763 CURVE SMOOTH",
"219 730 OFFCURVE",
"242 722 OFFCURVE",
"261 745 CURVE SMOOTH",
"281 769 OFFCURVE",
"294 778 OFFCURVE",
"318 778 CURVE SMOOTH",
"367 778 OFFCURVE",
"407 729 OFFCURVE",
"468 729 CURVE SMOOTH"
);
}
);
width = 754;
}
);
note = Otilde;
unicode = 00D5;
},
{
glyphname = OE;
lastChange = "2015-07-18 15:53:26 +0000";
layers = (
{
layerId = "14EB8CAA-E485-44FF-8841-EC36E7F264D4";
name = Bold;
paths = (
{
closed = 1;
nodes = (
"288 153 OFFCURVE",
"254 218 OFFCURVE",
"254 340 CURVE SMOOTH",
"254 463 OFFCURVE",
"288 527 OFFCURVE",
"377 527 CURVE SMOOTH",
"466 527 OFFCURVE",
"500 463 OFFCURVE",
"500 340 CURVE SMOOTH",
"500 218 OFFCURVE",
"466 153 OFFCURVE",
"377 153 CURVE SMOOTH"
);
},
{
closed = 1;
nodes = (
"15 112 OFFCURVE",
"141 -15 OFFCURVE",
"367 -15 CURVE SMOOTH",
"467 -15 OFFCURVE",
"552 17 OFFCURVE",
"605 73.487 CURVE",
"605 57 LINE SMOOTH",
"605 19 OFFCURVE",
"620 0 OFFCURVE",
"665 0 CURVE SMOOTH",
"1038 0 LINE SMOOTH",
"1083 0 OFFCURVE",
"1093 19 OFFCURVE",
"1093 57 CURVE SMOOTH",
"1093 113 LINE SMOOTH",
"1093 151 OFFCURVE",
"1083 170 OFFCURVE",
"1038 170 CURVE SMOOTH",
"805 170 LINE",
"805 256 LINE",
"949 256 LINE SMOOTH",
"994 256 OFFCURVE",
"1004 275 OFFCURVE",
"1004 313 CURVE SMOOTH",
"1004 367 LINE SMOOTH",
"1004 405 OFFCURVE",
"994 424 OFFCURVE",
"949 424 CURVE SMOOTH",
"805 424 LINE",
"805 510 LINE",
"1039 510 LINE SMOOTH",
"1084 510 OFFCURVE",
"1094 529 OFFCURVE",
"1094 567 CURVE SMOOTH",
"1094 623 LINE SMOOTH",
"1094 661 OFFCURVE",
"1084 680 OFFCURVE",
"1039 680 CURVE SMOOTH",
"665 680 LINE SMOOTH",
"620 680 OFFCURVE",
"605 661 OFFCURVE",
"605 623 CURVE SMOOTH",
"605 606.513 LINE",
"552 663 OFFCURVE",
"467 695 OFFCURVE",
"367 695 CURVE SMOOTH",
"141 695 OFFCURVE",
"15 568 OFFCURVE",
"15 340 CURVE SMOOTH"
);
}
);
width = 1109;
}
);
note = OE;
unicode = 0152;
},
{
glyphname = P;
lastChange = "2015-07-18 05:53:06 +0000";
layers = (
{
layerId = "14EB8CAA-E485-44FF-8841-EC36E7F264D4";
name = Bold;
paths = (
{
closed = 1;
nodes = (
"214 0 LINE SMOOTH",
"260 0 OFFCURVE",
"275 19 OFFCURVE",
"275 57 CURVE SMOOTH",
"275 203 LINE",
"335 203 LINE SMOOTH",
"537 203 OFFCURVE",
"621 284 OFFCURVE",
"621 441 CURVE SMOOTH",
"621 598 OFFCURVE",
"537 680 OFFCURVE",
"334 680 CURVE SMOOTH",
"95 680 LINE SMOOTH",
"50 680 OFFCURVE",
"35 661 OFFCURVE",
"35 623 CURVE SMOOTH",
"35 57 LINE SMOOTH",
"35 19 OFFCURVE",
"50 0 OFFCURVE",
"95 0 CURVE SMOOTH"
);
},
{
closed = 1;
nodes = (
"245 510 LINE",
"313 510 LINE SMOOTH",
"354 510 OFFCURVE",
"382 489 OFFCURVE",
"382 441 CURVE SMOOTH",
"382 394 OFFCURVE",
"354 373 OFFCURVE",
"313 373 CURVE SMOOTH",
"245 373 LINE"
);
}
);
width = 616;
}
);
note = P;
unicode = 0050;
},
{
glyphname = Thorn;
lastChange = "2015-07-18 05:53:07 +0000";
layers = (
{
layerId = "14EB8CAA-E485-44FF-8841-EC36E7F264D4";
name = Bold;
paths = (
{
closed = 1;
nodes = (
"214 0 LINE SMOOTH",
"260 0 OFFCURVE",
"275 19 OFFCURVE",
"275 57 CURVE SMOOTH",
"275 102 LINE",
"335 102 LINE SMOOTH",
"537 102 OFFCURVE",
"621 183 OFFCURVE",
"621 340 CURVE SMOOTH",
"621 497 OFFCURVE",
"537 579 OFFCURVE",
"334 579 CURVE SMOOTH",
"275 579 LINE",
"275 623 LINE SMOOTH",
"275 661 OFFCURVE",
"260 680 OFFCURVE",
"214 680 CURVE SMOOTH",
"95 680 LINE SMOOTH",
"50 680 OFFCURVE",
"35 661 OFFCURVE",
"35 623 CURVE SMOOTH",
"35 57 LINE SMOOTH",
"35 19 OFFCURVE",
"50 0 OFFCURVE",
"95 0 CURVE SMOOTH"
);
},
{
closed = 1;
nodes = (
"245 409 LINE",
"313 409 LINE SMOOTH",
"354 409 OFFCURVE",
"382 388 OFFCURVE",
"382 340 CURVE SMOOTH",
"382 293 OFFCURVE",
"354 272 OFFCURVE",
"313 272 CURVE SMOOTH",
"245 272 LINE"
);
}
);
width = 636;
}
);
note = Thorn;
unicode = 00DE;
},
{
glyphname = Q;
lastChange = "2015-07-18 05:53:06 +0000";
layers = (
{
layerId = "14EB8CAA-E485-44FF-8841-EC36E7F264D4";
name = Bold;
paths = (
{
closed = 1;
nodes = (
"594 -181 OFFCURVE",
"638 -161 OFFCURVE",
"673 -132 CURVE SMOOTH",
"687 -121 OFFCURVE",
"688 -115 OFFCURVE",
"680 -103 CURVE SMOOTH",
"626 -18 LINE SMOOTH",
"620 -8 OFFCURVE",
"613 -6 OFFCURVE",
"600 -15 CURVE SMOOTH",
"582 -27 OFFCURVE",
"559 -36 OFFCURVE",
"523 -36 CURVE SMOOTH",
"495 -36 OFFCURVE",
"462 -26 OFFCURVE",
"450 -4 CURVE",
"644 24 OFFCURVE",
"739 143 OFFCURVE",
"739 340 CURVE SMOOTH",
"739 564 OFFCURVE",
"618 695 OFFCURVE",
"377 695 CURVE SMOOTH",
"136 695 OFFCURVE",
"15 564 OFFCURVE",
"15 340 CURVE SMOOTH",
"15 147 OFFCURVE",
"104 23 OFFCURVE",
"284 -7 CURVE",
"303 -106 OFFCURVE",
"390 -181 OFFCURVE",
"523 -181 CURVE SMOOTH"
);
},
{
closed = 1;
nodes = (
"288 153 OFFCURVE",
"254 218 OFFCURVE",
"254 340 CURVE SMOOTH",
"254 463 OFFCURVE",
"288 527 OFFCURVE",
"377 527 CURVE SMOOTH",
"466 527 OFFCURVE",
"500 463 OFFCURVE",
"500 340 CURVE SMOOTH",
"500 218 OFFCURVE",
"466 153 OFFCURVE",
"377 153 CURVE SMOOTH"
);
}
);
width = 754;
}
);
note = Q;
unicode = 0051;
},
{
glyphname = R;
lastChange = "2015-07-18 05:53:06 +0000";
layers = (
{
layerId = "14EB8CAA-E485-44FF-8841-EC36E7F264D4";
name = Bold;
paths = (
{
closed = 1;
nodes = (
"214 0 LINE SMOOTH",
"260 0 OFFCURVE",
"275 19 OFFCURVE",
"275 57 CURVE SMOOTH",
"275 206 LINE",
"309 206 LINE",
"383 20 LINE SMOOTH",
"389 4 OFFCURVE",
"402 0 OFFCURVE",
"422 0 CURVE SMOOTH",
"591 0 LINE SMOOTH",
"615 0 OFFCURVE",
"625 20 OFFCURVE",
"614 43 CURVE SMOOTH",
"521 242 LINE",
"590 280 OFFCURVE",
"621 346 OFFCURVE",
"621 441 CURVE SMOOTH",
"621 598 OFFCURVE",
"537 680 OFFCURVE",
"334 680 CURVE SMOOTH",
"95 680 LINE SMOOTH",
"50 680 OFFCURVE",
"35 661 OFFCURVE",
"35 623 CURVE SMOOTH",
"35 57 LINE SMOOTH",
"35 19 OFFCURVE",
"50 0 OFFCURVE",
"95 0 CURVE SMOOTH"
);
},
{
closed = 1;
nodes = (
"245 510 LINE",
"313 510 LINE SMOOTH",
"354 510 OFFCURVE",
"382 489 OFFCURVE",
"382 441 CURVE SMOOTH",
"382 394 OFFCURVE",
"354 373 OFFCURVE",
"313 373 CURVE SMOOTH",
"245 373 LINE"
);
}
);
width = 636;
}
);
note = R;
unicode = 0052;
},
{
glyphname = Racute;
lastChange = "2015-07-18 05:53:06 +0000";
layers = (
{
layerId = "14EB8CAA-E485-44FF-8841-EC36E7F264D4";
name = Bold;
paths = (
{
closed = 1;
nodes = (
"214 0 LINE SMOOTH",
"260 0 OFFCURVE",
"275 19 OFFCURVE",
"275 57 CURVE SMOOTH",
"275 206 LINE",
"309 206 LINE",
"383 20 LINE SMOOTH",
"389 4 OFFCURVE",
"402 0 OFFCURVE",
"422 0 CURVE SMOOTH",
"591 0 LINE SMOOTH",
"615 0 OFFCURVE",
"625 20 OFFCURVE",
"614 43 CURVE SMOOTH",
"521 242 LINE",
"590 280 OFFCURVE",
"621 346 OFFCURVE",
"621 441 CURVE SMOOTH",
"621 598 OFFCURVE",
"537 680 OFFCURVE",
"334 680 CURVE SMOOTH",
"95 680 LINE SMOOTH",
"50 680 OFFCURVE",
"35 661 OFFCURVE",
"35 623 CURVE SMOOTH",
"35 57 LINE SMOOTH",
"35 19 OFFCURVE",
"50 0 OFFCURVE",
"95 0 CURVE SMOOTH"
);
},
{
closed = 1;
nodes = (
"245 510 LINE",
"313 510 LINE SMOOTH",
"354 510 OFFCURVE",
"382 489 OFFCURVE",
"382 441 CURVE SMOOTH",
"382 394 OFFCURVE",
"354 373 OFFCURVE",
"313 373 CURVE SMOOTH",
"245 373 LINE"
);
},
{
closed = 1;
nodes = (
"372 724 LINE SMOOTH",
"420 724 OFFCURVE",
"428 732 OFFCURVE",
"446 762 CURVE SMOOTH",
"510 870 LINE SMOOTH",
"531 906 OFFCURVE",
"510 924 OFFCURVE",
"473 924 CURVE SMOOTH",
"330 924 LINE SMOOTH",
"287 924 OFFCURVE",
"280 913 OFFCURVE",
"270 885 CURVE SMOOTH",
"228 769 LINE SMOOTH",
"219 743 OFFCURVE",
"228 724 OFFCURVE",
"265 724 CURVE SMOOTH"
);
}
);
width = 636;
}
);
note = Racute;
unicode = 0154;
},
{
glyphname = Rcaron;
lastChange = "2015-07-18 05:53:06 +0000";
layers = (
{
layerId = "14EB8CAA-E485-44FF-8841-EC36E7F264D4";
name = Bold;
paths = (
{
closed = 1;
nodes = (
"214 0 LINE SMOOTH",
"260 0 OFFCURVE",
"275 19 OFFCURVE",
"275 57 CURVE SMOOTH",
"275 206 LINE",
"309 206 LINE",
"383 20 LINE SMOOTH",
"389 4 OFFCURVE",
"402 0 OFFCURVE",
"422 0 CURVE SMOOTH",
"591 0 LINE SMOOTH",
"615 0 OFFCURVE",
"625 20 OFFCURVE",
"614 43 CURVE SMOOTH",
"521 242 LINE",
"590 280 OFFCURVE",
"621 346 OFFCURVE",
"621 441 CURVE SMOOTH",
"621 598 OFFCURVE",
"537 680 OFFCURVE",
"334 680 CURVE SMOOTH",
"95 680 LINE SMOOTH",
"50 680 OFFCURVE",
"35 661 OFFCURVE",
"35 623 CURVE SMOOTH",
"35 57 LINE SMOOTH",
"35 19 OFFCURVE",
"50 0 OFFCURVE",
"95 0 CURVE SMOOTH"
);
},
{
closed = 1;
nodes = (
"245 510 LINE",
"313 510 LINE SMOOTH",
"354 510 OFFCURVE",
"382 489 OFFCURVE",
"382 441 CURVE SMOOTH",
"382 394 OFFCURVE",
"354 373 OFFCURVE",
"313 373 CURVE SMOOTH",
"245 373 LINE"
);
},
{
closed = 1;
nodes = (
"416 736 LINE SMOOTH",
"456 736 OFFCURVE",
"460 743 OFFCURVE",
"477 765 CURVE SMOOTH",
"569 882 LINE SMOOTH",
"595 915 OFFCURVE",
"585 936 OFFCURVE",
"548 936 CURVE SMOOTH",
"459 936 LINE SMOOTH",
"421 936 OFFCURVE",
"410 929 OFFCURVE",
"396 908 CURVE SMOOTH",
"354 843 LINE",
"312 908 LINE SMOOTH",
"298 929 OFFCURVE",
"287 936 OFFCURVE",
"249 936 CURVE SMOOTH",
"160 936 LINE SMOOTH",
"123 936 OFFCURVE",
"113 915 OFFCURVE",
"139 882 CURVE SMOOTH",
"231 765 LINE SMOOTH",
"248 743 OFFCURVE",
"252 736 OFFCURVE",
"292 736 CURVE SMOOTH"
);
}
);
width = 636;
}
);
note = Rcaron;
unicode = 0158;
},
{
glyphname = Rcommaaccent;
lastChange = "2015-07-18 05:53:07 +0000";
layers = (
{
layerId = "14EB8CAA-E485-44FF-8841-EC36E7F264D4";
name = Bold;
paths = (
{
closed = 1;
nodes = (
"214 0 LINE SMOOTH",
"260 0 OFFCURVE",
"275 19 OFFCURVE",
"275 57 CURVE SMOOTH",
"275 206 LINE",
"309 206 LINE",
"383 20 LINE SMOOTH",
"389 4 OFFCURVE",
"402 0 OFFCURVE",
"422 0 CURVE SMOOTH",
"591 0 LINE SMOOTH",
"615 0 OFFCURVE",
"625 20 OFFCURVE",
"614 43 CURVE SMOOTH",
"521 242 LINE",
"590 280 OFFCURVE",
"621 346 OFFCURVE",
"621 441 CURVE SMOOTH",
"621 598 OFFCURVE",
"537 680 OFFCURVE",
"334 680 CURVE SMOOTH",
"95 680 LINE SMOOTH",
"50 680 OFFCURVE",
"35 661 OFFCURVE",
"35 623 CURVE SMOOTH",
"35 57 LINE SMOOTH",
"35 19 OFFCURVE",
"50 0 OFFCURVE",
"95 0 CURVE SMOOTH"
);
},
{
closed = 1;
nodes = (
"332 -277 LINE SMOOTH",
"358 -277 OFFCURVE",
"368 -267 OFFCURVE",
"375 -251 CURVE SMOOTH",
"442 -94 LINE SMOOTH",
"460 -52 OFFCURVE",
"452 -36 OFFCURVE",
"407 -36 CURVE SMOOTH",
"313 -36 LINE SMOOTH",
"278 -36 OFFCURVE",
"266 -43 OFFCURVE",
"256 -78 CURVE SMOOTH",
"212 -240 LINE SMOOTH",
"206 -261 OFFCURVE",
"211 -277 OFFCURVE",
"240 -277 CURVE SMOOTH"
);
},
{
closed = 1;
nodes = (
"245 510 LINE",
"313 510 LINE SMOOTH",
"354 510 OFFCURVE",
"382 489 OFFCURVE",
"382 441 CURVE SMOOTH",
"382 394 OFFCURVE",
"354 373 OFFCURVE",
"313 373 CURVE SMOOTH",
"245 373 LINE"
);
}
);
width = 636;
}
);
note = Rcommaaccent;
unicode = 0156;
},
{
glyphname = Rdotbelow;
lastChange = "2015-07-18 05:53:07 +0000";
layers = (
{
layerId = "14EB8CAA-E485-44FF-8841-EC36E7F264D4";
name = Bold;
paths = (
{
closed = 1;
nodes = (
"214 0 LINE SMOOTH",
"260 0 OFFCURVE",
"275 19 OFFCURVE",
"275 57 CURVE SMOOTH",
"275 206 LINE",
"309 206 LINE",
"383 20 LINE SMOOTH",
"389 4 OFFCURVE",
"402 0 OFFCURVE",
"422 0 CURVE SMOOTH",
"591 0 LINE SMOOTH",
"615 0 OFFCURVE",
"625 20 OFFCURVE",
"614 43 CURVE SMOOTH",
"521 242 LINE",
"590 280 OFFCURVE",
"621 346 OFFCURVE",
"621 441 CURVE SMOOTH",
"621 598 OFFCURVE",
"537 680 OFFCURVE",
"334 680 CURVE SMOOTH",
"95 680 LINE SMOOTH",
"50 680 OFFCURVE",
"35 661 OFFCURVE",
"35 623 CURVE SMOOTH",
"35 57 LINE SMOOTH",
"35 19 OFFCURVE",
"50 0 OFFCURVE",
"95 0 CURVE SMOOTH"
);
},
{
closed = 1;
nodes = (
"329 -217 LINE SMOOTH",
"370 -217 OFFCURVE",
"397 -184 OFFCURVE",
"397 -146 CURVE SMOOTH",
"397 -117 LINE SMOOTH",
"397 -77 OFFCURVE",
"369 -46 OFFCURVE",
"329 -46 CURVE SMOOTH",
"299 -46 LINE SMOOTH",
"259 -46 OFFCURVE",
"231 -77 OFFCURVE",
"231 -117 CURVE SMOOTH",
"231 -146 LINE SMOOTH",
"231 -184 OFFCURVE",
"259 -217 OFFCURVE",
"299 -217 CURVE SMOOTH"
);
},
{
closed = 1;
nodes = (
"245 510 LINE",
"313 510 LINE SMOOTH",
"354 510 OFFCURVE",
"382 489 OFFCURVE",
"382 441 CURVE SMOOTH",
"382 394 OFFCURVE",
"354 373 OFFCURVE",
"313 373 CURVE SMOOTH",
"245 373 LINE"
);
}
);
width = 636;
}
);
note = Rdotbelow;
unicode = 1E5A;
},
